/* XPM */
static char *_164b3dc663f4219dae65aad8e1ab563IIFYC8Lu43B7vadh[] = {
/* columns rows colors chars-per-pixel */
"48 48 251 2 ",
"   c #1E7D39",
".  c #7C6800",
"X  c #617326",
"o  c #677C58",
"O  c #975800",
"+  c #815E1E",
"@  c #866703",
"#  c #9B6100",
"$  c #9A6B02",
"%  c #8C7101",
"&  c #967302",
"*  c #967917",
"=  c #AC7502",
"-  c #AA7701",
";  c #B37302",
":  c #B47909",
">  c #A97816",
",  c #B87E18",
"<  c #AB7B26",
"1  c #9D631F",
"2  c #EB7E0F",
"3  c #987C4A",
"4  c #33A439",
"5  c #5A852C",
"6  c #778C2E",
"7  c #63A738",
"8  c #1E9F43",
"9  c #2D9A49",
"0  c #1CA754",
"q  c #739571",
"w  c #47A565",
"e  c #62BC7F",
"r  c #959F1A",
"t  c #B9891B",
"y  c #898B2A",
"u  c #BC842A",
"i  c #B7832D",
"p  c #BA8634",
"a  c #B5833C",
"s  c #AA813F",
"d  c #B6A324",
"f  c #D78300",
"g  c #C88B0C",
"h  c #F9870A",
"j  c #FB9A07",
"k  c #F38B16",
"l  c #F99818",
"z  c #EC8B17",
"x  c #F0A40A",
"c  c #C48928",
"v  c #D7892A",
"b  c #DC9C2B",
"n  c #DC9933",
"m  c #D4963A",
"M  c #C98837",
"N  c #E9992A",
"B  c #E88B26",
"V  c #E9B62F",
"C  c #EAAF33",
"Z  c #EAB735",
"A  c #EEAE2E",
"S  c #D8A51F",
"D  c #93884F",
"F  c #B59853",
"G  c #949074",
"H  c #B5A760",
"J  c #CC9348",
"K  c #D4A048",
"L  c #CAA75D",
"P  c #D1B750",
"I  c #EDAE51",
"U  c #E5B073",
"Y  c #C8A46F",
"T  c #247FAB",
"R  c #167EB1",
"E  c #457AA6",
"W  c #3889AB",
"Q  c #2A8CB7",
"!  c #3D8DB5",
"~  c #398DBB",
"^  c #348AB6",
"/  c #3D94BC",
"(  c #3A96B8",
")  c #2D8AAF",
"_  c #1D86B3",
"`  c #6C9390",
"'  c #428AAB",
"]  c #4792AD",
"[  c #5897AC",
"{  c #428DB3",
"}  c #488AB7",
"|  c #4292B4",
" . c #4C94B4",
".. c #4595BB",
"X. c #4A95BB",
"o. c #449ABC",
"O. c #4B9ABC",
"+. c #4899B5",
"@. c #5395BA",
"#. c #539CBC",
"$. c #5B9DBB",
"%. c #5598B5",
"&. c #5085A7",
"*. c #609AB6",
"=. c #799FAD",
"-. c #48A1BE",
";. c #5AA4BD",
":. c #54A3BC",
">. c #63A6BD",
",. c #74AAB5",
"<. c #70C896",
"1. c #3D95C2",
"2. c #3D9CCB",
"3. c #399AC4",
"4. c #3B8CC1",
"5. c #3FA2C9",
"6. c #3EA5D2",
"7. c #4C96C3",
"8. c #459AC3",
"9. c #4C9CC3",
"0. c #4B9DCB",
"q. c #439AC6",
"w. c #539DC3",
"e. c #5B9EC2",
"r. c #599FCB",
"t. c #539AC7",
"y. c #4D9ED6",
"u. c #629FC7",
"i. c #44A2C5",
"p. c #4DA2C5",
"a. c #45A2CB",
"s. c #4DA3CB",
"d. c #4DA9CA",
"f. c #45ABC6",
"g. c #54A2C4",
"h. c #5BA4C5",
"j. c #54A9C5",
"k. c #5BA9C6",
"l. c #54A4CB",
"z. c #5BA5CB",
"x. c #55AACD",
"c. c #5CAACC",
"v. c #56B1CE",
"b. c #4DABD4",
"n. c #49A5D4",
"m. c #54A5D2",
"M. c #5CA5D2",
"N. c #55ABD3",
"B. c #5CACD3",
"V. c #55ACDA",
"C. c #5DAED9",
"Z. c #55B4D4",
"A. c #5CB2D5",
"S. c #5CB3DB",
"D. c #56B5DB",
"F. c #4EB4DC",
"G. c #62A4C4",
"H. c #63AAC5",
"J. c #6AABC4",
"K. c #62A6CB",
"L. c #69A6CB",
"P. c #63ABCC",
"I. c #6AADCC",
"U. c #6AA5C5",
"Y. c #74ADC7",
"T. c #6DB1CD",
"R. c #69B2CB",
"E. c #71B2CF",
"W. c #77B5C7",
"Q. c #63A6D2",
"!. c #63ADD3",
"~. c #6BADD2",
"^. c #62ADDB",
"/. c #66AAD9",
"(. c #64B2D4",
"). c #6BB4D4",
"_. c #65B9D5",
"`. c #6BBAD5",
"'. c #63B4DB",
"]. c #6BB4DA",
"[. c #64BADC",
"{. c #6CBADC",
"}. c #72B4D3",
"|. c #74BAD5",
" X c #71B6DB",
".X c #73BBDC",
"XX c #7BBCDB",
"oX c #7BBAD9",
"OX c #5AB6E3",
"+X c #61B5E3",
"@X c #64BAE4",
"#X c #6DBCE2",
"$X c #6DB6E2",
"%X c #74BCE2",
"&X c #7ABCE3",
"*X c #74BAE5",
"=X c #7BC1DD",
"-X c #77C2DB",
";X c #68C1D9",
":X c #6CC1E5",
">X c #74C2E4",
",X c #7DC3E3",
"<X c #7CC6EB",
"1X c #969385",
"2X c #8F9082",
"3X c #95AA9B",
"4X c #99B79F",
"5X c #ADA993",
"6X c #B7B5AC",
"7X c #A4AC9D",
"8X c #C0AC8C",
"9X c #CEB78B",
"0X c #C6BDA5",
"qX c #B1D0B2",
"wX c #9BE3B8",
"eX c #A2CA8E",
"rX c #DBC993",
"tX c #DDD292",
"yX c #ECD39A",
"uX c #F4DA9B",
"iX c #ECC68D",
"pX c #CACBB8",
"aX c #D2CAB9",
"sX c #D5D7B9",
"dX c #D1CBAF",
"fX c #E3D7BB",
"gX c #F0D6AB",
"hX c #DAE0BB",
"jX c #FFE1B2",
"kX c #88B6CB",
"lX c #81BDE6",
"zX c #81C2DE",
"xX c #82C4E3",
"cX c #88C8E8",
"vX c #86D0ED",
"bX c #86D3F9",
"nX c #93D1E7",
"mX c #ADCDCF",
"MX c #D2D2C2",
"NX c #E4DAD1",
"BX c #CFE9CE",
"VX c #FAEAC8",
"CX c #FEF4CA",
"ZX c #E8E8D8",
"AX c #EBF7DB",
"SX c #F6F7DB",
"DX c #E5E5C6",
"FX c #F5FFEB",
"GX c #FCF8E7",
"HX c #FEF8F1",
"JX c #EFF2E4",
/* pixels */
";X+.] g.s.a.V.(.z.B.m.^ t. XnX>.1.s.w.|.oXP.c.q.} (.x.c.~.E K.x.0.8.i.S.l.{.{.k./ s.B...w.g..X,X",
"v.+.;.{.V.~ / k.k.C.S.s.l.k.XXJ.l.l.w.).}.h.h.9./.N.( l.Q.} l.S.l.i.5.N.9./.h.| l.m.9.X.%X].c.(.",
"c.).}.P.m.s.l.P.O.O.l.N.N.O.c.h.P.~.h.l.z.c.).I.M.N.i.s.M.$X^.s.9.Z.Z.Z.8.z.w.9.c.$X!.z.<Xc...[.",
"h.xXXXK.l.m.!.oXR.#.{ w.z.w.c.w.Y.,X].9.8.(.=X|.w.l.x.g.l.bX].w.h.(.Z.d.l.Q.c.B.h..X*X!.c.! / @X",
"#.L.}..XC.~ { }.nX}.@.e.u.Q. X!.Y.oX%XN.0.c.R.E.`.#.G.P.#.).h.~..Xc.( ( (.%X].l.c.c.c.z.....0.s.",
"w.w.h.B.S.b.9.h.E.}.L.oX~.~.].!.$.#.!.'.B.9.O.(._.h.|.}.#.k.$.U.].O.( o.(..X%X).k.O.z./.X.B.S.0.",
"m.B.g./ 2.OX#Xg.#.h.P.xX).c.j.j.9.{ z.c.z.9.1.V.f.9.*X$Xx.i.j.@.h...x.x.c.#.}.-Xx.x.c.*Xz.z.B.(.",
"q.l.S.a._ Q b.c.>X`.g.{.g.o.-.f.V.m.!. .| l.2.6.6.T 7.+Xb.Q s.^./.o.A.(.g.' $.;.S.A.g./.c.g.X.(.",
"j.o.p.x.w.L.oXI.f.d.0.1.b.b./ r.a...P.h.%.c.p./ | V.S.d.(.e.^.y.4.^.w.!.B.) 3.+X>.-X|.h.z.B.0.~ ",
">Xp./ p.Q.lX,X#.( x.B.q.a.a.8.*XV.! #.).).(.l.a.c.l.8.p.`.h.z.0.~ !.$.@.0.q.m.l.%.`.|.h.w.z.V.N.",
".XB.x.8.} r.'.x.j.(.(.l.N.S.B.cX#Xc.P.,X.Xg.s.q.G.!.8.g.h.h.w.0.N.].I.@...m.C.j.| j.k.O.O.9.l.A.",
"K.c.N.l.7.m.s.Q j.c.P.w.p.x.g.).k.P.h.(.(.c.[.N.E.<Xl.z.P.xX{.0.l.h.oXoXc.9.|  .p.-.o.w.z.9.O.N.",
"!.B.x.g.w.M.N.3.-.P.XXP.O.o...c.h.k.] O.z.l.(.l.>.,X!.c.#.).(.B.'.h.E.|.!.0.9.P.[.x.9.B.'.g.l.>X",
"B.B.x.g.h.!.C.Z.x.(.,X).k.x.p.h.,.3X9XrXyXyXuXuXuXyXyXyXrX9X3X+XA.c.$.#.l.S.#X-X(.c.j.c.z.9.N.bX",
"s.o.o.P.cXlXw.) d.w.P.k.c.E.[ + a p p i u u c c c c u u p p p a 1 `  .w.C.N.B.#.g.!.P.#.X.9.N.@X",
"V.x.p.h.U.*.@.g./ O.~.P.k.,.F K m n n n b b N b b b b b n n n m J L ;.l.m.~ l.(.h.&X Xt.w.^.m./ ",
"kXU.$.XXH. .] `.b./ ~ +XJ.` > , : ; : : = = : ; - - - ; ; ; : = > < ` g.N.1.8.x.w..X.XO.O.A.V.2.",
"cXXXI.XX).).R.-XS./ ) $.o * t ; ; = = - - - = = - : - = ; ; = : - > < q {.V.9.{ (.c.g.h.c.l.s.OX",
"!.K.e.).). XK.h.A.x.R.G L I C V Z Z V V Z Z V V A C Z Z Z Z C Z Z Z P P D Q.K.K.9.N.B.z.(.'.l./ ",
"'.9.O.).&X].K.K._.#XcXo D X * @ . % $ # # # O # # O O O @ & $ & & & y ,. .M.M.g.S.p.| O.c.h.#.c.",
"S.q.! X.e.h.Q./.O.k.>XP.e.*.eXX 5 r g f f f f g % @ O # H tXrX9XrXrX:.k.| l.x.p.s.8.! X.c.!.(.).",
"b.V.B.X.h.).*X!.W ..!.!.!.W.wXw 9 7 b l j j j N L H J U CXsX8XdX0XDX;X-Xc.x.x.Z.W B.B.9.!.<X.Xg.",
"Q 0.B. .G.P.c.! N.l.g.P.e.W.wXw 8 7 d x j j j N iXCXCXVXSXsX8X9XfXaX:.R.<X[.i.( A.z.w.w.z.z.P..X",
"2.a.(.k.|.R.c.o.N.x.!.&XG.K.J.e 0 4 r S x j l I jXGXSXFXFXZXVXVXGXkX;.>.XXz.o.-.+.c.r.X.7.c.!.!.",
"B.`.J.L.>X#XP.G.k.h.K.,X).].J.wX0 8 6 d t b K U VXNXZXpXMXZXaXMXHX].G.h.l./ d.j.{ z.!.(...p.N.@X",
"x..X|.I.c.j.h.T.X.#.h.~.P.!.Y.BX<.  5 6 D L F rX5X6X6X2X1XpX1XaXJXw.#.P.A.d.D.(.c.!.g.9.p.A.s./ ",
"O.P.T.h.O.8.c.,Xc.j.h.O.O.8.kXmXBXq o q fX5XG 5XG aXaX2X7XZX5XHXZX]..X>Xx.) ..h.!.<X>Xk.(.'.B.p.",
"..h.>.#.O.p.(.=Xc.k.>X'.B...c.kXAXqXqX4XpXNX7XMX0XdXsXdXdXfXgXSX6Xc. X-Xs.~ o.P...{.>X#.k.9.l.'.",
"l.P.I.h.8.q.l.h.c.A.:Xc.N.l.'.P.AXAXFXFXHXJXGXGXGXGXGXVXCXjXiXU l.{  .c.D.D.l.#.| g.g.' h.O.w.!.",
"!.).XX`.8.1.9.g.`.(.l.W ..#X<XP.pXqXpXAXJXHXGXGXSXVXVXjXU J v M C.| #.x.b.V.8.' B.B.j.g.(.c.k.].",
"c.I.|.).8.q.N.c.c.z.9.9.l.%X].#.4XBXAXsXDXFXAXsXgXuXI B 2 k z v l.X.!.x.1.n.j.$.N.C.c.(.P.).I.~.",
"c.;.G.h.8.n.S.c.).w.{ B.9.l.e.I.;.qXAXSXsXDXsXrXL m 2 h h 2 h < {.g.(.p.~ V.].I.l.x.j.(.P.,X|.L.",
"v.j.g.k.]./.z.r.vXoXJ.W 3.n.B.&.[ qXAXSXfXrXU K v z h h h l z .XnXY.e.Q./.h.E.nXD./ X.!.K.z.B.S.",
"P.h.h.!.z.X.9.[.P.J.J.h.0.n.B.G.:.3XqXAXVXY J v B k k l N v M (.>.=X.X7...!.).>./ p.!.!.z.z.m.1.",
"oXL.~.&X/.p.i.3.p.h.U.xX^.S.l._.S.x.[ 6X8X3 s M c v c u a =.B...;.`.].l.8.w.h.:.^ l.B.9.w.V.N.s.",
",XI.).%X(.A.N.^ x.c.K.lX*XB.i.v.OXx...C.b.Q N.,XkX%.x.l.V.t.l.o.`.j.p.B.N.8.9.(.q.0...X.c.B.N.+X",
"_.-.j.B.O.X.M.Q.d.l.Q.K.~.@.o.f.x.c.P.z.N.S.c.;.G.W c.C.z.{ 9.'.(.l.8.p.N.N.x.l.m.N.l.z.B.9.8.C.",
"_.( +.x.9.{ t.Q.8.n.V.7.L. .g.D.!.L.zXI.z.B. .%.e.O.B.x.z.h.z.c.x.9.+.g.!.C.p./ c.$X{.h.O.X.w.!.",
"`.k.j.c.x.9.7.w.9.a.3.q.}.Y.k.+XV.h.XX|.B.p.' H.(.B.p.9.~.cXP.#.c.O.O.I..XP.9.9.K.}..Xh.+.h..X].",
"u.xX,Xp.( i.Z.D.V.2.R a.,XcXe.M.1.X.h.h.A.:XA.h.m.l./ O.~.cXU.H.z.h.L.}.|.).!.M.L.h.I.}.).=X,XL.",
"h.].!.l.x.c.k.;.| k.c.(.(.P.h.W X.X.z.c.P.e.xXkXn.3.D.v.k.,X).w.p.N.0.8.A.A.x.[.K.!.O.x.A.N.8.*X",
"c.l.o.p.C.z.K.cXk.j.g.z.z.c.].P.l.l.V...9.(.).h.n.a.Q / {.~.h.P.'.....w.X.g.(.P.g.g.l.N.! l.'.M.",
"v.[.d.8.m.r.u.&X(.j.k..X(.P.>X).B.N.N./ q.+X9.9.w.S.Q Q l.P.}.J.M.7.w.h.w.L.}.$.l.l.8.p.q.8.q.@X",
"j.:X'.9.l.t.7./.c.g.(.<X(.c.].X.c.(.c.'.B.x.| z.L.'.F.6.~ c.nXW.8.$X!.w.).,X}.J.'.[.8.0.N./ ^ @X",
"@.h.K.!.C.8.~ OXp.O.c.(.O.O.c.! I.xXh.>X.Xh.h.I.=Xj.D.OX0.c.}.=Xx.S.p...B.`.).>X#XN.C.B.p.l.m.1.",
"@.L.~.K.9.o.3.6.8.9.c.(.9.w.(.O.U.=X .P.).I.xXT.(.j.i./ B.~.] H.Z.) ( Z.p.o.N.[.c.9.w.B.>X(.N.d.",
"c..X>Xh. .B.S.~ x.N.A.#XC.l.!.z.z.B...l.B.h.xXT.l.x.-.O.}.}.O.+.N.^ 9.@XN...p.N.P.#.{ w.bX/.9.:X",
"Z.x._.).P..X<XQ.'.S.x.A.j.| w.B.+Xn.V.OXV.! B.).:Xd.g.vXxXU.`.d.c.{.!.m.C.m.0.+XvXP.e.@.P.k.].B."
};
