/* XPM */
static char *ebf91e9454aa4d44f9a1df29d94f7f00ktWuNNJqeWFhWqr5[] = {
/* columns rows colors chars-per-pixel */
"48 48 220 2 ",
"   c #16150B",
".  c #361E13",
"X  c #2B1D10",
"o  c #1E220E",
"O  c #1F2311",
"+  c #282814",
"@  c #332413",
"#  c #38381A",
"$  c #2D3617",
"%  c #3A3822",
"&  c #482A17",
"*  c #4A391C",
"=  c #603D1D",
"-  c #4B3724",
";  c #673820",
":  c #743E25",
">  c #364319",
",  c #394519",
"<  c #3E4C1E",
"1  c #3F521E",
"2  c #3E4C22",
"3  c #3F5520",
"4  c #44451E",
"5  c #544328",
"6  c #4A5323",
"7  c #445522",
"8  c #575B35",
"9  c #525029",
"0  c #62462E",
"q  c #654B2D",
"w  c #664022",
"e  c #775229",
"r  c #664E34",
"t  c #675738",
"y  c #725336",
"u  c #775837",
"i  c #7C4A25",
"p  c #536D29",
"a  c #546729",
"s  c #5D752B",
"d  c #5D7B2D",
"f  c #57742E",
"g  c #586530",
"h  c #78632A",
"j  c #686A3C",
"k  c #7C673D",
"l  c #687836",
"z  c #635344",
"x  c #736845",
"c  c #844A26",
"v  c #845F3A",
"b  c #8D5F31",
"n  c #92562D",
"m  c #B35F2C",
"M  c #A3592D",
"N  c #85652B",
"B  c #84603B",
"V  c #896436",
"C  c #996F3B",
"Z  c #887633",
"A  c #977833",
"S  c #977436",
"D  c #A8662D",
"F  c #B5632D",
"G  c #BA652D",
"H  c #BC6B2E",
"J  c #B26F2E",
"K  c #A76B34",
"L  c #B46832",
"P  c #A97A3D",
"I  c #A5783B",
"U  c #B27E3E",
"Y  c #B97636",
"T  c #BF742F",
"R  c #C46C2F",
"E  c #CA712F",
"W  c #C46D31",
"Q  c #C67333",
"!  c #CB7431",
"~  c #CB7C36",
"^  c #D07632",
"/  c #D47A33",
"(  c #D97D33",
")  c #D57F39",
"_  c #837949",
"`  c #987743",
"'  c #89725B",
"]  c #8F6D4A",
"[  c #A77641",
"{  c #977E64",
"}  c #CA7A40",
"|  c #6B8B32",
" . c #688535",
".. c #6F9C34",
"X. c #6F9233",
"o. c #739D34",
"O. c #7A9C35",
"+. c #759435",
"@. c #66882F",
"#. c #76A236",
"$. c #7BA437",
"%. c #7CA638",
"&. c #7EA938",
"*. c #9C802F",
"=. c #AB823C",
"-. c #B2853D",
";. c #B38F39",
":. c #BB893E",
">. c #BC933D",
",. c #81A537",
"<. c #81A639",
"1. c #82AD3A",
"2. c #88AF3B",
"3. c #86B13B",
"4. c #8BB53C",
"5. c #8EB83D",
"6. c #92BB3E",
"7. c #94B93E",
"8. c #C98131",
"9. c #C58A38",
"0. c #DD8235",
"q. c #DE8B34",
"w. c #D58836",
"e. c #C9963E",
"r. c #DD9B36",
"t. c #DB9939",
"y. c #CD812F",
"u. c #E48735",
"i. c #E68A36",
"p. c #E98A36",
"a. c #E68D3B",
"s. c #E98B38",
"d. c #EC9C37",
"f. c #EC9E38",
"g. c #E59638",
"h. c #D1A53D",
"j. c #DDA53C",
"k. c #DBA638",
"l. c #EDA136",
"z. c #EEA43A",
"x. c #E5A738",
"c. c #F1AD3A",
"v. c #F0A53A",
"b. c #EAB239",
"n. c #F2B23A",
"m. c #F5BC3A",
"M. c #F6C33B",
"N. c #F8C43A",
"B. c #998D58",
"V. c #948E52",
"C. c #A68646",
"Z. c #B88944",
"A. c #BE9748",
"S. c #A1995B",
"D. c #BB9C54",
"F. c #BF8559",
"G. c #8AAE42",
"H. c #96BE40",
"J. c #99BF40",
"K. c #99BF40",
"L. c #AFA45F",
"P. c #B8A964",
"I. c #BBB26A",
"U. c #C58E40",
"Y. c #CB8847",
"T. c #CC9341",
"R. c #C49649",
"E. c #D59844",
"W. c #CE9B53",
"Q. c #DB985A",
"!. c #CF8B56",
"~. c #E58D41",
"^. c #E88F41",
"/. c #E69747",
"(. c #E69A56",
"). c #DDA643",
"_. c #D8B14A",
"`. c #CDA455",
"'. c #CAAB5F",
"]. c #D5A954",
"[. c #CDB45C",
"{. c #D7B45E",
"}. c #CDA749",
"|. c #E5A647",
" X c #E7BA47",
".X c #F1B645",
"XX c #E4AA57",
"oX c #E9B651",
"OX c #F0BB57",
"+X c #DB9C63",
"@X c #CBB669",
"#X c #D5B564",
"$X c #C5BE74",
"%X c #E1BB68",
"&X c #97C040",
"*X c #99C140",
"=X c #F5C644",
"-X c #F7CB49",
";X c #EBC756",
":X c #F1CD54",
">X c #F6D35A",
",X c #D7C268",
"<X c #D9CC79",
"1X c #E9C866",
"2X c #EAD16B",
"3X c #ECD264",
"4X c #F6DC6B",
"5X c #F7D967",
"6X c #E9CD74",
"7X c #E6C871",
"8X c #EAD77A",
"9X c #F2D674",
"0X c #F2DD78",
"qX c #F0C666",
"wX c #FAE16D",
"eX c #F9E577",
"rX c #FCEC85",
"tX c #F5E886",
"yX c #FEF089",
"uX c #EEE081",
/* pixels */
"5.3.&.3.1.4.1.&.&.&.4.1.1.3.&.3.1.$.1.4.4.3.&.4.5.3.&.3.1.4.1.&.&.&.4.1.1.3.&.3.1.$.1.4.4.3.&.4.",
"$.$.1.&.4.1.o.%.4.4.3.3.&.#.&.1.3.4.4.4.1.1.4.6.$.$.1.&.4.1.o.%.4.4.3.3.&.#.&.1.3.4.4.4.1.1.4.6.",
"#.1.2.1.1.1.1.4.6.6.4.3.5.4.6.6.1.&.5.1.%.&.3.1.#.1.2.1.1.1.1.4.6.6.4.3.5.4.6.6.1.&.5.1.%.&.3.1.",
"3.5.4.4.4.4.6.*X*X6.4.6.6.6.5.J.6.&.1.4.$.&.1.&.3.5.4.4.4.4.6.*X*X6.4.6.6.6.5.J.6.&.1.4.$.&.1.&.",
"4.6.4.3.5.4.4.4.4.6.5.6.5.5.4.4.6.4.#.1.1.5.5.3.4.6.4.3.5.4.4.4.4.6.5.6.5.5.4.4.6.4.#.1.1.5.5.3.",
"5.3.&.1.1.$.<.3.3.4.4.3.1.1.&.1.&.%.$.%.1.4.1.4.5.3.&.1.1.$.<.3.3.4.4.3.1.1.&.1.&.%.$.%.1.4.1.4.",
"4.#.3.1.$.$.1.1.4.3.4.#.o.$.&.4.4.o.1.5.4.1.$.4.4.#.3.1.$.$.1.1.4.3.4.#.o.$.&.4.4.o.1.5.4.1.$.4.",
"$.#.4.1.4.4.6.%.&.3.1.#.$.1.1.4.6.6.6.6.6.4.3.4.$.#.4.1.4.4.6.%.&.3.1.#.$.1.1.4.6.6.6.6.6.4.3.4.",
"4.3.3.5.J.J.&X6.4.1.1.1.4.4.4.4.4.6.6.1.4.6.6.3.4.3.3.5.J.J.&X6.4.1.1.1.4.4.4.4.4.6.6.1.4.6.6.3.",
"6.$.o.4.1.3.5.4.4.4.3.4.4.4.&.1.3.4.&.$.4.1.4.5.6.$.o.4.1.3.5.4.4.4.3.4.4.4.&.1.3.4.&.$.4.1.4.5.",
"4.1.&.1.1.1.1.4.1.3.4.3.%.$.$.$.1.$.&.1...o.4.6.4.1.&.1.1.1.1.4.1.3.4.3.%.$.$.$.1.$.&.1...o.4.6.",
"&.&.4.4.6.6.3.4.6.6.3.1.#.o.$.$.$.&.%...o.o.$.3.&.&.4.4.6.6.3.4.6.6.3.1.#.o.$.$.$.&.%...o.o.$.3.",
"$.3.6.4.4.6.4.3.4.5.1.1.4.1.&.$.4.6.1.&.4.6.5.1.$.3.6.4.4.6.4.3.4.6.1.1.4.1.&.$.4.6.1.&.4.6.5.1.",
"5.5.5.3.1.1.3.3.1.&.3.1.4.6.X.> +.6.7 7 4.4.4.s > <.5.3.1.1.3.3.1.&.3.1.4.6.5.6.H.6.5.4.4.4.4.5.",
"1.1.1.&.1.#.%.4.$.3 O $ O.| j <Xj + I.$Xo o o   N # o.&.1.#.%.4.$.$.1.+.O.5.6.J.H.4.4.1.&.&.1.4.",
"1.4.4.1.3.1.p + l # B.I.9 % % Z 3X8X:XwX,Xh.h.h.,X+ | 1.3.1.o.%.4.4.,.,.3.#.3.5.6.6.4.3.&.$.$.3.",
"$.&.4.1.1.O.s _ V.# % [.uXtXuX5X=X3X X XC C I A.P @ # | O.3.O.4.H.5.1.3.4.4.6.4.1.4.3.#.1.3.&.4.",
"3.4.5.H.$.O S.yX4XeXtXwXtX@X[._.oX:.P T.T.R.`.e.).D.=.h j l % s 6.4.3.&.5.&X1.O.O.&.3.4.&X5.&.$.",
"6.*X6.6.G._ 8X6XrXyX,X}.#XP I :.E.Z.].A.{.@X8X_.-X5X=X=X[.S.B.g  .s s 3.1.&.o.$.1.$.$.4.3.#.1.1.",
"4.5.6.4.G.B.Y.W.yX9XZ.U T.U.R.`.`.'.8X@XrXeXeX5X5X=X:X>.R.#X`.] z   t p ..&.1.o.o.1.<.1.#.$.1.5.",
"1.4.5.4.o.X E.6XI.` U.E.1X7X6X2X2XyXrXrX>X5X_.C.Z.j.].-.-.T.j.U.C q <XS.p 4.4.1.H.6.4.%.&.4.4.3.",
"4.6.4.1.O.* |.R.B y C C ;XrXrX4X4X4X:XD.-.R.e.U Z.T.E.T.A.1Xm.e.>.h.:X:XZ 2 @.6.4.6.6.4.4.6.6.4.",
"6.3.1.1.g @Xr.Q b y v 0 Y ).W.0XD.I T.T.U.T.T.E.1XC.` C.2X-X>X0X>X4XeX-X0X,XZ # X.4.3.3.6.5.4.4.",
"5.3.&.1.| - /.z.A y B 0 F H L Y U U.T.9.U.R.[ [.rX;X2X8XeXwX=X3X9X|.9XeX;X0X;Xh.8 | o.&.4.1.&.1.",
"5.3.&.3.| 8 rX>XA y B V E.Q.Y.K y P Z.k _ eXeX=X4XyX>X-X X9XXX^ G ( a.7XF R f.d.5X4 | 3.4.3.&.4.",
"$.$.1.$.# P.OXc.A y B A.6XoXg.P y v r '.qX).6XwX1X%X%X#X/ 0.( p.p.! 0.E 0.^ / ( g.= o 1.1.1.4.6.",
"#.1.2.%.1 @ c.N.A y B ' XXm.n.;.y v 0 M ^ W Y.#XY.m m Q i.p.p.p.p.p.i.w.u.p.p.0.G J + $.%.&.3.1.",
"3.5.4.1.f L.>XN.A x { x 3X>XN.;.y v u Q 0.l.q.9.0.G ^ i.p.p.p.p.p.p.p.w.0.p.f.g.F k.*.s $.&.1.&.",
"4.6.4.1.$ k .XN.C.' ] A.eX-XN.;.y v V g.g.n.f.l.l.H W u.p.p.p.p.p.p.p.i.i.p.v.m.H 8.b.N p 5.5.3.",
"5.3.&.1.| @ m..X` u B B /.N.N.;.y v V q.m.M.m.m.w.m ( i.p.p.p.p.p.p.p.p.p.p./ r.T Q & 4 1.4.1.4.",
"4.#.3.1.X.# 8.t.A y B u b.n.c.;.y u k j.N.N.N.N.w.m / R i.p.a.(.Q.g.n.p.p.p.u.! G Q * O.4.1.$.4.",
"$.#.4.1.4.O.# h h y B V b.z.m.;.y r P.=Xm.N.N.N.b.H m G u.a.Q.XXf.n.m.p.p.p.p.! ( W L 6 6.4.3.4.",
"4.3.3.5.J.J.H.X.< 5 5 b g.c.l.;.y y q t.z.N.N.N.r.F G G ~.Q.~ w.y.f.q.p.p.p.p.p.p.Q i a 4.6.6.3.",
"6.$.o.4.1.3.5.4.4.s < b D l.d.=.y B ` t.N.N.N.N.b.G ( } Q.~./ ! ! / E s.p.p.p.p.( ~ @ d 4.1.4.5.",
"4.1.&.1.1.1.1.4.1.3.4.s a e [ K y -.:Xn.N.N.N.N.x.G !.+Xa.p.p.( 0./ u.p.p.p./.a.G H i # ..o.4.6.",
"&.&.4.4.6.6.3.4.6.6.3.1.o.f l - 0 I A x.N.N.N.k.x.x.a.a.p.p.p.p.p.p.p.p.s.^.(./.t.H Q # o.o.$.3.",
"$.3.6.4.4.6.4.3.4.5.1.1.4.1.$.@.6 X 5 k.f.N.N.m.y.i.Q u.p.p.p.p.p.p.p.s.(./.^.s.n.k.* | 4.6.5.1.",
"5.5.5.3.1.1.3.3.1.&.3.1.5.6.6.6.2.O.# * w.x.M.M.8.G G ( Q ( / v.f.p.~.(.(.) ! ^ q.k.# 1.4.4.4.5.",
"1.1.1.&.1.#.%.4.$.$.1.+.O.5.6.J.H.4.O.| # e t.9.! F Q G H ! Q z.f.(.!.XXc.D c W F ~ D 6 &.&.1.4.",
"1.4.4.1.3.1.o.%.4.4.,.,.3.#.3.5.6.6.4.3.&.d O + w n . i ; . n L L F.- ~ :.; & & : # + 2 &.$.$.3.",
"$.&.4.1.3.4.5.7.H.5.2.3.4.4.6.4.1.4.3.#.1.3.&.4.p # > > > > , 6 x 8 , > > > , > > $.3.#.1.3.&.4.",
"3.4.5.6.5.6.*XJ.6.4.3.&.5.&X1.O.O.&.3.4.&X5.&.$.3.4.5.6.5.6.*XJ.6.4.3.&.5.&X1.O.O.&.3.4.&X5.&.$.",
"6.*X6.6.6.6.4.1.1.1.1.3.3.&.o.$.1.$.$.4.3.#.1.1.6.*X6.6.6.6.4.1.1.1.1.3.3.&.o.$.1.$.$.4.3.#.1.1.",
"4.5.6.4.3.1.$.1.1.$.$.#...&.1.o.o.1.<.1.#.$.1.5.4.5.6.4.3.1.$.1.1.$.$.#.o.1.1.o.o.1.<.1.#.$.1.5.",
"1.4.5.4.1.&.1.1.4.3.o.o.3.6.4.1.H.6.4.%.&.4.4.3.1.4.5.4.1.&.1.1.4.3.o.o.3.6.4.1.H.6.4.%.&.4.4.3.",
"4.6.4.1.1.4.3.4.4.1.%.4.6.&.1.6.4.6.6.4.4.6.6.4.4.6.4.1.1.4.3.4.4.1.$.4.6.&.1.6.4.6.6.4.4.6.6.4.",
"6.3.1.3.5.4.5.4.&.3.4.1.1.1.4.4.4.4.3.3.5.5.4.4.6.3.1.3.5.4.5.4.&.3.3.1.1.1.4.4.4.4.3.3.5.5.4.4.",
"5.3.&.3.&.3.&.$.o.$.1.$.1.4.&.3.5.&.o.&.3.1.&.1.5.3.&.3.&.3.&.$.o.$.1.$.1.4.&.3.5.&.o.&.3.1.&.1."
};
