/* XPM */
static char *_05ed39dd15a48d7b685e4a05f6b5d98[] = {
/* columns rows colors chars-per-pixel */
"48 48 256 2 ",
"   c #47704C",
".  c #0F2D4B",
"X  c #0F2136",
"o  c #1E3C53",
"O  c #11243E",
"+  c #1C354F",
"@  c #16374F",
"#  c #1C364D",
"$  c #283F56",
"%  c #284A5D",
"&  c #19333D",
"*  c #83929F",
"=  c #0E2A37",
"-  c #4F5266",
";  c #0C4843",
":  c #1E415B",
">  c #143953",
",  c None",
"<  c #554259",
"1  c #C0CDCF",
"2  c #493E57",
"3  c #667882",
"4  c #4B6270",
"5  c #354059",
"6  c #0F334F",
"7  c #9CA493",
"8  c #1C5065",
"9  c #5C747A",
"0  c #7C887E",
"q  c #1F475F",
"w  c #B2BDC2",
"e  c #20425C",
"r  c #1F475F",
"t  c #21445D",
"y  c #9BABB4",
"u  c #3F565D",
"i  c #58686C",
"p  c #88475F",
"a  c #A5B298",
"s  c #5A6A7C",
"d  c #C1949D",
"f  c #899AA2",
"g  c #1B4E61",
"h  c #7D465D",
"j  c #42585F",
"k  c #203F58",
"l  c #647A8B",
"z  c #445C70",
"x  c #506977",
"c  c #6B8589",
"v  c #617B82",
"b  c #375366",
"n  c #6F8A8C",
"m  c #558660",
"M  c #4E6D5D",
"N  c #889584",
"B  c #566A7E",
"V  c #96A28E",
"C  c #6F8291",
"Z  c #3B5168",
"A  c #8D9988",
"S  c #B56976",
"D  c #9AA7B1",
"F  c #AEC3C9",
"G  c #425562",
"H  c #6C7C78",
"J  c #22425A",
"K  c #6B8A99",
"L  c #90BEC5",
"P  c #775E71",
"I  c #544A61",
"U  c #A66272",
"Y  c #9E6172",
"T  c #7C5467",
"R  c #514057",
"E  c #386F5C",
"W  c #99A5AF",
"Q  c #375559",
"!  c #858F89",
"~  c #436073",
"^  c #2A8995",
"/  c #785068",
"(  c #80909E",
")  c #32556A",
"_  c #53705C",
"`  c #2F6259",
"'  c #55745B",
"]  c #22425B",
"[  c #768896",
"{  c #CBD1D0",
"}  c #FFF1BF",
"|  c #8EE7E3",
" . c #FFEFBE",
".. c #F57B82",
"X. c #8DE5E2",
"o. c #81DEDC",
"O. c #FEEFBE",
"+. c #F77B82",
"@. c #8AE5E1",
"#. c #DF747D",
"$. c #7AD9D7",
"%. c #FDEEBE",
"&. c #FFF2C1",
"*. c #8F6E7E",
"=. c #9E4A60",
"-. c #EC7880",
";. c #9CEAE6",
":. c #F7E2B8",
">. c #7CDBD9",
",. c #84E0DD",
"<. c #76D9D7",
"1. c #CD6D79",
"2. c #93E8E4",
"3. c #FBECBC",
"4. c #FDE9BB",
"5. c #E3BFA3",
"6. c #F4EBBD",
"7. c #F87A84",
"8. c #E2DAB3",
"9. c #69C9CC",
"0. c #87E2DF",
"q. c #C9CFA4",
"w. c #7EDDDB",
"e. c #85DBDA",
"r. c #F37A81",
"t. c #E9757F",
"y. c #E4757F",
"u. c #FFF6D2",
"i. c #F67E85",
"p. c #76D6D5",
"a. c #63D0D0",
"s. c #BB5B6C",
"d. c #3BB4BA",
"f. c #CC8A84",
"g. c #EDE3B6",
"h. c #D8E3BE",
"j. c #E1B79F",
"k. c #BE727A",
"l. c #D7D4A5",
"z. c #B5BF9E",
"x. c #E0D9A8",
"c. c #5FC2C5",
"v. c #B16878",
"b. c #A26B7A",
"n. c #C06C7A",
"m. c #FAF4DC",
"M. c #F6E8B8",
"N. c #98CCC9",
"B. c #858793",
"V. c #75C3C6",
"C. c #896670",
"Z. c #496376",
"A. c #AE757D",
"S. c #ADAC96",
"D. c #D7A292",
"F. c #87948A",
"G. c #7AA563",
"H. c #617276",
"J. c #D5CBAA",
"K. c #D49B8E",
"L. c #EBCAA9",
"P. c #BBC5A2",
"I. c #C3CBA2",
"U. c #AAB99C",
"Y. c #F4E5B5",
"T. c #5798A3",
"R. c #58ADB5",
"E. c #AF4B61",
"W. c #AC5769",
"Q. c #E7DDAB",
"!. c #BF5668",
"~. c #D46370",
"^. c #CC5D6C",
"/. c #887D8B",
"(. c #BFE3E2",
"). c #757182",
"_. c #EEECDD",
"`. c #A7EEEB",
"'. c #F8C6AB",
"]. c #DD6D79",
"[. c #DCB9BD",
"{. c #894E63",
"}. c #BEDBDC",
"|. c #AB9C8F",
" X c #4BA9B0",
".X c #ABEBE8",
"XX c #6B919C",
"oX c #DBDED6",
"OX c #6FA6AC",
"+X c #A58884",
"@X c #617E8E",
"#X c #747778",
"$X c #F17982",
"%X c #625D71",
"&X c #E6C3A5",
"*X c #D2B49F",
"=X c #4CCCCC",
"-X c #38AFB5",
";X c #AFC6B5",
":X c #D2E0BE",
">X c #F27F89",
",X c #C6D8BC",
"<X c #A87B7D",
"1X c #E0AB96",
"2X c #709E62",
"3X c #CF747E",
"4X c #B6B9A0",
"5X c #F2D7B0",
"6X c #E8EAD3",
"7X c #B6727A",
"8X c #D9D2AD",
"9X c #5EBABF",
"0X c #FFF2C7",
"qX c #608593",
"wX c #DFDBBF",
"eX c #5BB7BB",
"rX c #D3EAE9",
"tX c #81D8D6",
"yX c #465C68",
"uX c #BFB79D",
"iX c #FBD9B3",
"pX c #F8BEA6",
"aX c #F7B9A3",
"sX c #447283",
"dX c #CCD8AF",
"fX c #F4DEB5",
"gX c #F9D0AE",
"hX c #F5848A",
"jX c #93838E",
"kX c #A56D7D",
"lX c #9E7584",
"zX c #F59290",
"xX c #A2E3E0",
"cX c #F7A79A",
"vX c #32919E",
"bX c #4AC7C7",
"nX c #44BFC3",
"mX c #50BEC4",
"MX c #F5DEB5",
"NX c #A03A52",
"BX c #418290",
"VX c #C47A7C",
"CX c #609862",
"ZX c #649CA6",
"AX c #76A396",
"SX c #8CA2AA",
"DX c #EF9B8A",
"FX c #C07E88",
"GX c #4F7863",
"HX c #6C7F65",
"JX c #9B5468",
"KX c #7F5B6F",
"LX c #D8D3AF",
"PX c #897D7C",
"IX c #6D4057",
"UX c #ECCFAC",
/* pixels */
"                                                                                                ",
"                                                                                                ",
"                                                                                                ",
"                                                                                                ",
"                                                                                                ",
"                                                                                                ",
"                                                X X                                             ",
"                                            @ 3 f ! i . X                                       ",
"                                      + + @ f }.xXN., M ' #                                     ",
"                                = - $ O 6 * (.2.,.a.AXG.2Xj                                     ",
"                                4 D s 5 * }.;.o.p.ZXH.G.CXM _ u O ;                             ",
"                              = * rX1 F (.;.>.$.OXFX3XHXm 2XG.m Q O                             ",
"                          & $ @ y .X;.;.| @.@.e.B.>X7.3XC.GXE ` % ;                             ",
"                            + O K e.0.@.@.@.X.tXjXi.7.7.$Xs.R .                                 ",
"                        . #   & 9 V.$.<.<.$.0.e.B.>X7.7.t.JX) % &                               ",
"                        + #   % L `.;.2.| X.,.>.OXv.].s.KXBX-X^ g                               ",
"                          5 T P N.2.X.X.X.X.X.X.e.XX).XXV.a.=Xd.~ / $ + o                       ",
"                        I Y kXB.V.p.p.$.>.w.,.@.$.$.o.| | <.bX-XsXC.h 2 +                       ",
"                      $ U lXN..X`.;.2.X.0.o.w.$.p.o.X.o.p.c.d.d.nX X%Xh 5                       ",
"                      - 1./.e.| X.X.X.X.| X.@.o.w.,.@.>.$.o.o.a.=Xd.Z.=.2                       ",
"                      s d n.@XR.a.o.@.| | | | | | @.$.<.>.@.w.mXvXZ.{.=.<                       ",
"                      3 [.#.1.b.).qXT.R.9Xc.9.9.9.9.c.eX XT.@X%X{.=.=.=.<                       ",
"                      l [.i.-.y.#.1.n.v.b.*.*.*.*.*.*.b.v.n.1.s.s.!.E.=.<                       ",
"                      4 d i.....r.$X-.t.y.y.#.#.#.#.#.y.t.-.-.~.^.!.E.p %                       ",
"                      X - S y...+...........................r.~.^.W.h 2 O                       ",
"                      ; & - /.A.1.#.-.r...+.+.+.+.+.....r.-.].W.C.#XG . o                       ",
"                      + O z 1 wXuX|.+X<XA.7X7Xk.k.k.7XA.<X+X|.S.z.a j                           ",
"                      # + o w u.} O.6.g.8.8XJ.S.7 J.8X8.g.3.O.Q.q.7 $                           ",
"                          . y m.O. .3.4X7 8.6.S.F.g.8., 4X3.%.x.I.A #                           ",
"                          = * m.O. .M.*X5.8.F.H.H.#XLXJ.*X:.3.x.P.0 X                           ",
"                            C _.} } iXhXzX4., IXNXPX6.cXi.'.3.l.z.9                             ",
"                            B oX0X .4.pX'.%.M.1XDX5X} gXaX:.M.l.U.i                             ",
"                            Z 1 u. . .} }  . .} } }  .} } } Y.q., u                             ",
"                            @ w u. .3.%.}  . . . . . . . .%.g.I.V o                             ",
"                            O W m.} L.5.L.:.O.O.O.O.3.fX&X%.Q.I.N .                             ",
"                            ; ( _.} L.f.K.K.j.D.5.5.D.j.f.:.x.P.0 &                             ",
"                              l 6X&.5XUXj.D.K.VXf.f.1X:.5.Y.l.z.3                               ",
"                              z { u.O. .3.4.&Xj.:.MX4.O.O.Y.q.a 4 # X                           ",
"                            & @ [ oX6X6.%. .%. .}  . .%.6.dXU.H @ o X                           ",
"                          g r : k Z.SX;X,X:Xh.h.h.h.:X,X;XF.yXk : r %                           ",
"                          8 q t e : ] b x v c n n c v x b J : e t q 8                           ",
"                                = . # o 6 $ > > > > $ 6 o @ . X ;                               ",
"                                                                                                ",
"                                                                                                ",
"                                                                                                ",
"                                                                                                ",
"                                                                                                ",
"                                                                                                "
};
