/* XPM */
static char *_1c24bf841424cf598cacba60f52c3cfCljeRxlTckHGC11u[] = {
/* columns rows colors chars-per-pixel */
"48 48 228 2 ",
"   c #2D353A",
".  c #2F393B",
"X  c #2F3436",
"o  c #353634",
"O  c #393635",
"+  c #333A37",
"@  c #323639",
"#  c #33393B",
"$  c #3A3B3B",
"%  c #3A3736",
"&  c #33312E",
"*  c #37423D",
"=  c #333C42",
"-  c #364245",
";  c #3B4444",
":  c #35434B",
">  c #394349",
",  c #3F4848",
"<  c #394C55",
"1  c #36525F",
"2  c #3A525D",
"3  c #2F404E",
"4  c #355464",
"5  c #3C5563",
"6  c #3B5965",
"7  c #3D5B6A",
"8  c #345B6B",
"9  c #2F5465",
"0  c #3F6F7E",
"q  c #424546",
"w  c #41474A",
"e  c #4A4C4E",
"r  c #474748",
"t  c #4A4E51",
"y  c #474D50",
"u  c #435358",
"i  c #565B5D",
"p  c #585A5C",
"a  c #435B67",
"s  c #595E60",
"d  c #615F66",
"f  c #4C646D",
"g  c #45616D",
"h  c #53636A",
"j  c #4C6672",
"k  c #4C6B7A",
"l  c #536B74",
"z  c #556C77",
"x  c #5A717B",
"c  c #56737C",
"v  c #656465",
"b  c #666569",
"n  c #69656A",
"m  c #6B6A6C",
"M  c #696969",
"N  c #6F6C70",
"B  c #696770",
"V  c #737273",
"C  c #7B7C7C",
"Z  c #75797B",
"A  c #4A6E82",
"S  c #4A7487",
"D  c #517385",
"F  c #567C8C",
"G  c #5A7A8B",
"H  c #587786",
"J  c #567E92",
"K  c #5B7F91",
"L  c #597F98",
"P  c #457AA6",
"I  c #388CAF",
"U  c #398CB6",
"Y  c #3C94BB",
"T  c #3792BF",
"R  c #5B848F",
"E  c #578093",
"W  c #5C8494",
"Q  c #5D8A96",
"!  c #5B869B",
"~  c #5B899B",
"^  c #578998",
"/  c #65828C",
"(  c #618594",
")  c #618A95",
"_  c #61859B",
"`  c #618B99",
"'  c #6D8E9C",
"]  c #478BAB",
"[  c #4991AF",
"{  c #478AB3",
"}  c #4595BC",
"|  c #4B9ABC",
" . c #4696B7",
".. c #5295BA",
"X. c #5C9DBB",
"o. c #5699BB",
"O. c #5D8AAD",
"+. c #618CA0",
"@. c #6E9AA6",
"#. c #6E9AAA",
"$. c #6A98AD",
"%. c #7098AA",
"&. c #629DB5",
"*. c #619EBC",
"=. c #6892B6",
"-. c #739CB2",
";. c #5EA1B5",
":. c #5DA1BC",
">. c #4AA0BF",
",. c #64A3BB",
"<. c #6BA4BE",
"1. c #62A3B8",
"2. c #3C96C4",
"3. c #3FA2C9",
"4. c #479CC5",
"5. c #4D9DC2",
"6. c #4799C8",
"7. c #539DC3",
"8. c #5D9EC2",
"9. c #549DCA",
"0. c #659CCA",
"q. c #4CA3C6",
"w. c #4DA2CC",
"e. c #48A6C9",
"r. c #52A3C4",
"t. c #5BA3C5",
"y. c #54A3CB",
"u. c #5CA5CC",
"i. c #54ABCD",
"p. c #5BAACD",
"a. c #59AAC7",
"s. c #48A1D1",
"d. c #54A4D1",
"f. c #55ABD2",
"g. c #5DACD3",
"h. c #56ACDA",
"j. c #5CA8D4",
"k. c #55B4D4",
"l. c #5DB2D9",
"z. c #5DB5DA",
"x. c #5CB1CE",
"c. c #65A4C3",
"v. c #64A4CC",
"b. c #6AA4CD",
"n. c #64ABCB",
"m. c #68A9C6",
"M. c #6BB1CC",
"N. c #64A5D3",
"B. c #69A5D1",
"V. c #63ADD4",
"C. c #6AACD3",
"Z. c #6CA9DD",
"A. c #62AFDB",
"S. c #63B3D5",
"D. c #6BB4D4",
"F. c #6AB6DA",
"G. c #6EB9DC",
"H. c #66B7DB",
"J. c #72B4D4",
"K. c #72BCDE",
"L. c #79BBDA",
"P. c #75AFD1",
"I. c #57B3E2",
"U. c #6DABE3",
"Y. c #72ACE4",
"T. c #7AAEED",
"R. c #70AFEB",
"E. c #68B9E3",
"W. c #73B2E4",
"Q. c #74BBE2",
"!. c #72B1EB",
"~. c #78B2E5",
"^. c #7BAEF5",
"/. c #7BAEFB",
"(. c #76AFF5",
"). c #75B3F5",
"_. c #7AB3F5",
"`. c #76B3FD",
"'. c #79B3FD",
"]. c #7BC1DE",
"[. c #7FC2D3",
"{. c #66C1DE",
"}. c #6CC2E7",
"|. c #7AC3E6",
" X c #858483",
".X c #8C8C8D",
"XX c #858885",
"oX c #8D918E",
"OX c #91928D",
"+X c #8E8F90",
"@X c #908D91",
"#X c #8D9193",
"$X c #939393",
"%X c #999997",
"&X c #999699",
"*X c #9B9B9B",
"=X c #969899",
"-X c #928A89",
";X c #A4A29F",
":X c #9D9EA0",
">X c #A29FA1",
",X c #A3A3A3",
"<X c #A9A4A5",
"1X c #A6A4A9",
"2X c #AEAEAE",
"3X c #A6A8A8",
"4X c gray69",
"5X c #87ADD7",
"6X c #80AFEF",
"7X c #84B3F5",
"8X c #83B5F9",
"9X c #8CBBFA",
"0X c #89B9F7",
"qX c #93BDFA",
"wX c #97BDF6",
"eX c #86B6F3",
"rX c #81C5E2",
"tX c #88C3E1",
"yX c #86D0ED",
"uX c #94C2FC",
"iX c #9CC4FC",
"pX c #8CCDF6",
"aX c #A4C6FD",
"sX c #AAC6FD",
"dX c #A5CAFF",
"fX c #A9C9FE",
"gX c #A4C8F5",
"hX c #A2D3FF",
/* pixels */
"{. .[ r.w.s.h.S.y.g.d.U 9.K.pX<.2.w.7.L.L.n.p.4.{ S.i.p.C.P v.i.9.4.e.z.y.G.G.a.2.w.g.} 7.r.K.|.",
"x.| :.G.h.U Y a.a.g.l.w.y.u.L.m.y.y.7.D.J.t.t.5.V.f.Y y.N.{ y.l.y.4.3.f.5.V.t.[ y.d.5.} Q.F.p.S.",
"p.D.J.n.d.w.y.n.| | r.f.f.| p.t.n.C.t.y.u.p.D.m.j.f.e.w.j.W.A.w.5.f.k.f.5.y.7.5.p.E.V.u.|.p.} H.",
"t.rXL.v.y.d.V.L.M.o.[ 7.y.7.u.7.P.rXF.4.4.S.].J.7.y.i.r.y.pXF.7.t.S.k.i.y.N.u.g.t.K.Q.V.u.U Y E.",
"..,.<.` J A k / ' ( D A D D G H H G K S A S H G F A D D k F D G K S 0 A ^ ` ! J E F F F A S F ] ",
"E Z Z Z Z Z Z Z Z Z Z m V V Z Z Z Z Z m V V V V V V V N V V V V V N V V Z Z C C C C C C C C v c ",
"h $X*X:X,X,X,X,X,X,X,X,X,X3X4X2X4X2X2X;X,X,X,X,X,X,X,X,X,X,X,X,X,X,X,X,X,X*X2X2X2X2X2X2X2X2XV c ",
"p :Xn % + o O o O o O O o o o o O o o O @ @ o o O o o o O O o @ o o o o o o o o o @ @ . & ;XV x ",
"p *XB q ` _ _ ~ ~ ~ ! ~ ! ! ~ ^ ! ~ ^ Q ^ ~ ~ ! W ^ W ^ ^ Q ^ ~ ~ ~ ^ ~ ! ! ~ ~ ~ ^ ^ c o <XV j ",
"s *XM - <.*.*.t.v.v.v.v.v.v.v.v.N.t.:.;.1.$.~ +.! ^ ^ ;.:.;.:.v.N.N.v.v.v.v.N.c.1.;.1.R o ,XV z ",
"i :XM - <.*.&.*._.'.'.'.'.'.'._._.Z.X.*.&._ : - @     @.&.*.X.Y._._._._.).).).U.o.;.1.E @ 3XB j ",
"p :Xm * ,.8.v.).'.'.'.'.'.'.'.'.`.).W.8.:.( , *X%XXX# @.X.8.W.).'.'.'.'.'.'.'.).~.*.*.E   3Xm f ",
"i &Xn - ,.C.Y.`.`.'.'.'.'.'.'.'.'.`._.Z.t.( q ,X>XoX# #.u.U.).'.'.'.'.'.'.'.`.`.).Z.c.E   3Xm l ",
"i OXb : c.W.'.`.'.'.'.'.'.'.'.'.'.`./._.u.) q ,X,XoX# $.N.).'.'.'.'.'.'.'.^.).`.`._.B.E @ ,XM x ",
"i OXv : c.!.'.`.`.`.`.`.`.'.'.`.'.qXdX_.N.) q ,X,XoX# #.N.'.'.`.`.`.'.'.0XhX'.'.'.'.B.E @ ,XM l ",
"i $Xv - c.!.`.'.'.`.`.'.`.`.`.`.uXaXaX_.N.) w ,X,X+X# #.N.`.'.'.`.`.`.9XaXdX8X'.'.'.B.J @ %Xb a ",
"i $Xv - c.!.`.'.'.'.'.'.'.`.`.0XaXsXaX_.N.) q ,X,X+X# #.N.`.`.'.`.`.0XwXsXfX8X'.`.'.b.E @ %Xb g ",
"s $Xv - c.!.`.'.'.'.`.'.'._.0XdXsXaXiX'.N.) q ,X,X+X# #.N.`.`.'.'._.dXsXsXaX8X'.`.'.b.E @ %Xb j ",
"i $Xv > c.!.`.'.'.`.`.`.'.qXaXsXsXwX_.`.N.) , ,X,X+X# #.N.`.'.`.0XsXfXaXiXT.'.`.`.'.b.E @ %Xn a ",
"i $Xv - c.!.`.'.'.`.`.'.uXaXsXsX9X8X`.`.N.) , ,X,X+X# @.N.'.'.9XiXsXsXwX'.`.`.`.`.'.B.E @ %Xn f ",
"i $Xv > c.!.`.'.`.'.^.7XaXaXaXiX8X'.`.'.N.) ; ,X,X+X# @.N.`.`.uXaXfXiX9X'.'.'.`.'.).N.E @ %Xn l ",
"y $Xv > c.!.`.'.`.'.0XfXsXsXiXT./.).`.'.N.W + ;X,X#X, %.N.).'.uXdXfX^.`.`.'.'.'.'.).N.E @ %Xb f ",
"y $Xv > c.!.`.'.`.uXaXdXfXwX'.`.'.`.`.'.N.W # @X&XOXq %.N.).`.uXiX8X'.`.`.'.'.`.'.'.B.E @ =Xb l ",
"y =Xv - c.!.`.'.'.iXsXdXqX8X`.`.'.`.)._.N.( . .X=XOX, $.N.`.'.9X9X`.`.'.'.'.'.`.'.'.B.E @ *Xn f ",
"y *XM > c.!.`.`.'.iXsXiX'.`.`.`.'.'._.b.o.H + .X%XoX, ) O.b.6X'.`.`.`.'.'.'.'.`.'.'.B.E @ 3Xm j ",
"y *XM > c.!.'.'.`.uXiX^.`.`.'.'.`.'.5X= @ $ $ .X=X#Xr # @ 3 5X'.`.).'.'.`.'.'.`.'.'.B.E @ 3Xm a ",
"y *XM > c.!.'.'.`.'.8X`.`.'.'.'.).O.a oXoXC % -X=X#Xq oXOX.Xa 0.`.'.'.`.`.'.'.`.'.'.B.E @ %Xb f ",
"y *XM > c.!.'.`.'.'.`.`.`.'.`.`._.K * %X=X X+ .X%XoXq =X%X&X; =.'.`.`.'.'.'.'.`.'.'.B.E @ %Xn j ",
"y *XM - c.!.`.'.'.'.`.`.`.'.'.'.^._ :  X XV # .X&X$Xr XX X X< =.`.`.'.'.`.'.`.`.'.).B.E @ =Xb h ",
"y $Xv - c.!.`.'.'.'.`.`.'.`.'.).uX5X-.= = = $ .X<X3Xe - = : -.Y.`.`.'.'.`.'.`.`.'.).N.E @ =Xb h ",
"y $Xv - c.!.`.'.'.'.'.'.'.'.'.uXiXeXP.L F l # .X<X3X= c F ! P.).`.'.`.`.`.'.`.'.'.).b.J @ %Xm l ",
"y $Xv > c.!.`.'.'.'.`.'.'.8X0XsXdX9X(.Z.0.R # .X<X,X. #.c.Z.).`.`.'.'.`.'.9X'.`.'.'.b.J @ =XN z ",
"t $Xv > c.!.`.'.'.`.`.`._.wXsXsXaXuX`.'.v.( # .X<X,X# $.N.).`.'.'.'.'.`.7XdX'.`.'.).b.J @ =XN x ",
"y $Xv > c.!.`.'.'.`.'._.iXaXsXsX0X_./.'.v.W # .X3X,X@ $.N.'.'.`.'.'.'.9XaXdX8X`.'.).b.J @ =XN j ",
"y $Xv > c.!.`.'.`.'.8XwXaXaXaX9X'.'.'.'.j.W # .X3X,X# #.N.`.'.`.`.'.uXiXsXfX8X`.'.`.B.E @ =XN l ",
"y $Xv - c.!.`.'.`.'.0XfXsXaXuX`.`.`.`._.N.( $ .X3X,X# #.N.).`.`.'.7XaXsXgXaX'.).`.).B.E @ %XN x ",
"e $Xv - c.!.`.`.'.uXaXfXfXwX'.`.`.'.`.'.N.) q +X1X3X  #.N._.`.'.8XdXsXdXiX/.'.`.`.'.B.E @ 3XV z ",
"e $Xb - c.W.`.`./.iXsXdX7X'.`.).`.'.`.`.N.) q .X3X3X# #.N.'.`.`.7XfXaXwX/./.'.`.`.`.b.J @ 3XV z ",
"e $Xb - <.C.U.'.'.iXaXuX`.`.`.`.`.'.).U.c.) q .X3X3X. #.c.Y.).`.8XfXwX0X'.`.`.).).U.c.E @ ,XV x ",
"e OXv ; ,.:.N._.`.uXiX(.`.`.'.'.'._.~.8.X.( w +X3X3X# @.X.X.W.).'.dXT.).`.`.`.).Q.X.*.E @ 3XV z ",
"e *XM - ,.:.:.u.).'._.`.`.'.'.'._.Z.8.X.;.( w +X3X3X- @.;.;.8.R.'.'.'.`.`.`.'.U.8.;.&.E @ ,XV x ",
"e *Xm > <.;.;.,.c.m.m.N.m.m.v.m.m.0.X.1.&._ w +X3X3X, @.;.:.*.c.v.v.m.b.b.v.b.c.*.1.*.E X 3XV z ",
"r XXd > ' ) ) ` ) ) Q Q ) ) Q Q ` ` ` ` ) H , C $X$X, / ) ` ` ) ) Q Q ) ) ) Q ~ Q ` ` x # oXM z ",
"< < 2 5 6 4 4 4 5 1 2 5 5 2 5 1 6 7 6 7 7 6 2 2 u u 7 8 9 7 j g 4 7 5 1 5 a 5 5 7 7 4 1 5 < < S ",
"..t.v.V.g.6.T I.q.| a.S.| | p.I M.rXt.|.K.t.t.M.].r.z.I.6.u.J.[.i.z.q.} p.F.D.].E.g.g.g.w.w.d.Y ",
"o.b.C.v.5.} 2.3.5.5.p.S.5.7.S.| m.]...n.D.m.rXM.D.r.e.Y g.C.[ c.k.I Y k.q.| p.H.p.5.7.g.}.A.f.q.",
"p.K.|.t. .g.l.U i.g.l.E.g.y.V.u.u.g.} y.g.t.rXM.y.i.>. .D.J.|  .f.I 4.E.f.} w.h.p.o.{ 7.pXV.5.}.",
"k.i.S.D.n.K.|.N.H.l.i.l.y.} 7.g.E.s.h.I.h.U g.D.}.q.r.yXtXm.F.i.p.G.V.d.g.d.9.E.yXn.8.o.n.u.F.g."
};
