/* XPM */
static char *_f048b609d624753d60e75d3df037d0fwMC1wqpunuzUAHcw[] = {
/* columns rows colors chars-per-pixel */
"48 48 189 2 ",
"   c #3F2832",
".  c #5D282B",
"X  c #5E302B",
"o  c #472B33",
"O  c #4C2E34",
"+  c #5F2C30",
"@  c #553235",
"#  c #5B3535",
"$  c #5E3836",
"%  c #5A3638",
"&  c #652A2C",
"*  c #6C2C2D",
"=  c #732D2E",
"-  c #782E2F",
";  c #65332C",
":  c #642E31",
">  c #6B2F32",
",  c #772F30",
"<  c #7A2F30",
"1  c #613534",
"2  c #643936",
"3  c #693D37",
"4  c #663B39",
"5  c #6D3D38",
"6  c #6E3433",
"7  c #733434",
"8  c #7C3131",
"9  c #733D39",
"0  c #7C3C3A",
"q  c #7C3935",
"w  c #444D26",
"e  c #494A29",
"r  c #574028",
"t  c #5B4529",
"y  c #495127",
"u  c #4B5429",
"i  c #4E5B23",
"p  c #50582B",
"a  c #5A5D35",
"s  c #6E4137",
"d  c #6D423B",
"f  c #704137",
"g  c #744239",
"h  c #794539",
"j  c #7C4A3C",
"k  c #6C5C36",
"l  c #72583C",
"z  c #4F6A24",
"x  c #4A6522",
"c  c #516227",
"v  c #586627",
"b  c #536D24",
"n  c #586929",
"m  c #556628",
"M  c #597226",
"N  c #557828",
"B  c #5F7929",
"V  c #65622E",
"C  c #646330",
"Z  c #6E6B32",
"A  c #746B34",
"S  c #7E6D36",
"D  c #657535",
"F  c #6C7B34",
"G  c #677A31",
"H  c #737134",
"J  c #7D7436",
"K  c #737D37",
"L  c #22486C",
"P  c #754A41",
"I  c #7D5A40",
"U  c #843332",
"Y  c #883433",
"T  c #843C37",
"R  c #833E3A",
"E  c #8A3F39",
"W  c #8D423D",
"Q  c #844B3A",
"!  c #894D3A",
"~  c #93433C",
"^  c #9A463E",
"/  c #93493B",
"(  c #8D523C",
")  c #94553C",
"_  c #A1483F",
"`  c #857539",
"'  c #864443",
"]  c #8C4340",
"[  c #944641",
"{  c #9F4740",
"}  c #934946",
"|  c #9D4943",
" . c #9A4D4A",
".. c #974C4A",
"X. c #815648",
"o. c #965740",
"O. c #955843",
"+. c #995B43",
"@. c #9E514D",
"#. c #A44A42",
"$. c #AB4D43",
"%. c #A24E49",
"&. c #B14F44",
"*. c #AD5047",
"=. c #AC5048",
"-. c #A0584A",
";. c #B55145",
":. c #BD5447",
">. c #B1534B",
",. c #BC554A",
"<. c #AB5552",
"1. c #A06047",
"2. c #C35648",
"3. c #C45A4D",
"4. c #C35C51",
"5. c #C66058",
"6. c #5D802B",
"7. c #67872D",
"8. c #67882E",
"9. c #6C8B2F",
"0. c #69862F",
"q. c #6D8337",
"w. c #6E8F30",
"e. c #6F8438",
"r. c #718538",
"t. c #738C37",
"y. c #6E9532",
"u. c #6F9D35",
"i. c #739632",
"p. c #749D34",
"a. c #799C35",
"s. c #799737",
"d. c #76A236",
"f. c #7BA437",
"g. c #7CA738",
"h. c #7EA938",
"j. c #82A638",
"k. c #85AD3A",
"l. c #84AF3A",
"z. c #82AD3A",
"x. c #88AF3B",
"c. c #85B03B",
"v. c #86B13B",
"b. c #87B23B",
"n. c #87B23C",
"m. c #86B13B",
"M. c #88B23B",
"N. c #88B33C",
"B. c #8AB33C",
"V. c #89B43C",
"C. c #89B53C",
"Z. c #8AB43C",
"A. c #8BB63D",
"S. c #8CB73D",
"D. c #8EB73D",
"F. c #8DB53D",
"G. c #8BB53C",
"H. c #8EB83D",
"J. c #8FB93E",
"K. c #8FBA3E",
"L. c #8EB83D",
"P. c #90B63C",
"I. c #90B93E",
"U. c #91BA3E",
"Y. c #92BB3F",
"T. c #92B93E",
"R. c #93BC3F",
"E. c #94BD3F",
"W. c #92BB3E",
"Q. c #98BB3F",
"!. c #96BE40",
"~. c #99BF40",
"^. c #99BF40",
"/. c #97C040",
"(. c #97C040",
"). c #9AC140",
"_. c #1B6892",
"`. c #246481",
"'. c #0D7CB4",
"]. c #1D829F",
"[. c #218399",
"{. c #0D94C4",
"}. c #1096C0",
"|. c #0DA2CC",
" X c #15ABC6",
".X c #15B3CA",
"XX c #00ABE6",
"oX c #00BFF1",
"OX c #04D8FB",
/* pixels */
"H.c.h.c.z.A.l.h.h.h.M.l.z.c.h.c.z.f.z.B.A.c.h.F.H.c.h.c.z.A.l.h.h.h.M.l.z.c.h.c.z.f.z.B.A.c.h.F.",
"d.d.z.h.B.z.p.g.F.F.c.c.h.d.h.z.c.F.F.A.l.z.A.Y.d.d.z.h.B.z.p.g.F.F.c.c.h.d.h.z.c.F.F.A.l.z.A.Y.",
"d.z.x.z.z.z.l.A.Y.R.A.n.H.A.Y.E.z.h.H.l.g.K I l D z.x.z.z.z.l.A.Y.R.A.n.H.A.Y.E.z.h.H.l.g.h.c.z.",
"n.H.F.B.A.F.E.).).R.F.Y.E.Y.H.~.Y.h.z.A.d.l ) ) k F.F.B.A.F.E.).).R.F.Y.E.Y.H.~.Y.h.z.A.d.h.z.h.",
"A.E.F.c.H.F.M.A.F.E.H.Y.H.H.B.A.R.A.d.z.A 5 ) ) 1 A F.c.H.F.M.A.F.E.H.Y.H.H.B.A.R.A.d.z.z.H.H.c.",
"H.n.h.l.z.f.j.c.c.B.A.n.z.z.h.z.h.g.d.C &.9 ) ) 1 = C l.z.f.j.c.c.B.A.n.z.z.h.z.h.g.d.g.z.F.z.M.",
"A.d.c.z.f.f.l.z.B.c.A.d.p.f.h.F.B.i.S W %.5 ) ) # * & Z f.f.l.z.B.c.A.d.p.f.h.F.B.i.z.H.A.z.d.F.",
"d.d.M.z.B.F.Y.g.h.c.z.d.f.l.l.B.Y.` :.~ $.9 ) ) 1 = & = A F.Y.g.h.c.z.d.f.l.l.B.Y.Y.R.E.Y.A.c.F.",
"A.c.c.H.~.~.(.R.B.z.z.z.B.F.A.A.J  .$.;.#.5 ) ) # * = = 8 J (.R.B.z.z.z.B.F.A.A.A.R.Y.z.A.R.Y.c.",
"Y.d.p.A.z.c.H.F.A.A.c.B.F.F.g.S :.0 T $.#.9 ) ) 1 * 8 * * = A F.A.A.c.B.F.F.h.z.c.A.h.f.A.l.A.H.",
"B.z.h.z.z.z.l.A.l.c.F.c.g.f.A { #.;.E T >.5 ) ) # * & & = = * A l.c.F.c.g.f.f.f.z.f.h.z.u.p.B.Y.",
"h.h.F.F.Y.R.n.A.Y.Y.c.z.d.A ;.R E >.&.^ { 9 ) ) 1 * & = < & * = H Y.c.z.d.p.f.f.f.h.g.u.p.p.f.c.",
"f.n.E.F.F.Y.A.c.F.H.z.z.H >.=.;.R | ;.$.;.5 ) ) # = * = * * = * 8 H z.z.F.z.h.d.F.Y.z.h.B.Y.H.z.",
"H.H.H.c.z.l.c.c.l.h.c.J #.} ~ ;.&.' ] 3.^ 9 ) ) 1 * < & * = = * 8 * H l.F.E.H.E.!.Y.H.F.A.B.A.H.",
"z.l.l.h.z.d.g.B.f.d.Z ;.$.;.0 ^ ,._ W 0 ,.5 ) ) # = & * * < = & = = 8 V a.H.H.~.!.B.A.z.h.h.z.A.",
"l.F.A.z.c.l.p.g.F.` ~ %.^ ;.#.[ [ ,._ ^ [ 9 ) ) 1 & * * = & 8 * = * U & H d.c.H.Y.Y.F.c.h.d.d.c.",
"d.h.F.l.c.F.P.Q.Q.^ { $.0 $.;.^ ] [ 2.^ :.5 ) ) 1 = * = = * * = = * * , 8 B.E.B.z.F.c.d.z.c.h.A.",
"c.F.H.E.H.Y.).~.F.9 =.$.W %.~ :.^ [ ] 3.~ 9 ) ) 1 & - * 8 * = & Y & = * & E.l.a.a.h.c.F.(.H.h.f.",
"Y.).R.Y.Y.Y.B.z.z.s...$.$.^ W { 2.T [ ' ,.9 ) ) 1 = * * & = = * * * = = s.h.p.f.z.f.f.A.n.d.z.z.",
"A.H.Y.F.c.z.f.z.z.K q >.{ :.E | ~ 2.W ~ | 5 ) ) 1 * & & - * & & < * 8 . G h.l.p.p.z.j.z.d.f.k.H.",
"z.F.H.A.z.h.z.z.M./ _ ^  .#.:.T [ | 2.~ ;.9 ) ) 1 = & = = 8 & = = U * * ; F.M.l.!.Y.M.g.h.F.M.c.",
"A.Y.A.z.l.M.n.A.B.] #.,.7 =.~ 2.T ~ { 2.[ 4 -.o.2 > = * * & - * < . = = * g.z.E.B.Y.E.B.F.Y.E.F.",
"R.c.l.c.H.F.H.F.h.F <.#.&.W  .#.2.0 ] @.2 @ 9 9 @ 2 7 & & = = * * = * Y y i.A.A.A.F.c.c.H.H.F.F.",
"H.c.h.c.h.n.h.d.p.t.6 5.^ 2.7 #.#.:.0 4 2 @ # # @ 2 2 + = * * . - * 8 . i i.h.c.H.h.p.h.c.z.h.z.",
"H.c.h.c.z.A.l.h.g.( _ W | { :.R } %.2 # 5 # 9 5 @ g # 2 q , & = * * * * ; f.h.c.z.f.z.B.A.c.h.F.",
"d.d.z.h.B.z.p.g.F.[ #.:.6 *.#.:.9 4 2 2 h 2 ! h @ ! # 2 2 : = * U . = = = p.h.z.c.F.F.A.l.z.A.Y.",
"d.z.x.z.z.z.l.A.F.k $.^ $.W ~  .2 @ h 3 g 2 ( h @ Q 2 j @ 2 8 8 = * * Y r f.Y.E.z.h.H.l.g.h.c.z.",
"n.H.F.B.A.F.E.).).j.7 4.#.:.9 2 2 2 ! 3 h 2 O.h @ ! 2 Q # 2 2 : = * U & v a.H.~.Y.h.z.A.d.h.z.h.",
"A.E.F.c.H.F.M.A.F.` ^  .^ | 2 # g 2 ! 3 h 2 O.h @ ! 2 ! 3 f # 2 > * 8 * t f.B.A.R.A.d.z.z.H.H.c.",
"H.n.h.l.z.f.j.c.l.^ { ;.9 4 # 4 j 2 ! 2 h 2 O.h @ ! 2 ! 3 g 5 # 2 > = * * h.h.z.h.g.d.g.z.F.z.M.",
"A.d.c.z.f.f.l.z.n.s >.%.2 2 4 f Q 2 ! 3 h 2 O.h @ Q 2 ! 3 9 j 2 2 2 > 8 X p.h.F.B.i.z.H.A.z.d.F.",
"d.d.M.z.B.F.Y.g.h.s.' 4 # 5 3 5 Q 2 Q 3 h 2 O.h @ Q 2 ! 3 g j 2 5 # 2 7 i w.l.B.Y.Y.R.E.Y.A.c.F.",
"A.c.c.H.~.~.(.R.B.s.# 2 5 # # # 4 @ 3 @ 2 @ O.h O 4 @ 3 # # 2 @ # 5 2 # c i.A.A.A.R.Y.z.A.R.Y.c.",
"Y.d.p.A.z.c.H.F.A.k.a Q g 5 h h h h h h h 3 O.h 3 h h h h h h h 5 g Q e 0.F.h.z.c.A.h.f.A.l.A.H.",
"B.z.h.z.z.z.l.A.l.c.t.( g 3 h h h h h h h 4 O.h 4 h h h h h h h 3 g ( u b p.f.f.z.f.h.z.u.p.B.Y.",
"h.h.F.F.Y.R.n.A.Y.Y.r.+.g f h j j h s s f f O.h f Q Q Q Q Q Q Q f g +.u x 6.f.f.f.h.g.u.p.p.f.c.",
"f.n.E.F.F.Y.A.c.F.H.q.+.g # g   O o O   4 # O.h 2 s 4 d g d # 3 2 g +.u M y.h.d.F.Y.z.h.B.Y.H.z.",
"H.H.H.c.z.l.c.c.l.h.e.+.g 5 g O 3 5 3 @ 3 5 O.h f ! d [. X].@ Q g g +.u 9.E.H.E.!.Y.H.F.A.B.A.H.",
"z.l.l.h.z.d.g.B.f.d.e.+.g # d 2 9 9 5 # 4 # O.h $ 3 g .XOX|.@ 4 2 g +.w B H.Y.~.!.B.A.z.h.h.z.A.",
"l.F.A.z.c.l.p.g.F.A.F +.g f d # 5 9 9 # 3 f O.h g ! d  XoX{.@ ! h g +.y 7.d.c.H.Y.Y.F.c.h.d.d.c.",
"d.h.F.l.c.F.P.Q.!.H.r.+.g # d 2 9 9 P % 4 # O.h # 2 d }.XX'.@ 2 # g +.u 9.F.E.B.z.F.c.d.z.c.h.A.",
"c.F.H.E.H.Y.).~.Y.M.e.+.g f 3 @ 9 9 X.@ 3 f O.h h ( 4 `._.L @ ! h g +.y 9.(.l.a.a.h.c.F.(.H.h.f.",
"Y.).R.Y.Y.Y.B.z.z.z.q.+.g @ 2 @ 9 2 9 @ 4 @ O.h @ 2 $ 2 2 2 # 2 # g +.u 7.h.p.f.z.f.f.A.n.d.z.z.",
"A.H.Y.F.c.z.f.z.z.f.F +.g f 3 o 2 @ 2 o 3 f O.h h ( ) ) ) ) ) ) h g +.w N h.l.p.p.z.j.z.d.f.k.H.",
"z.F.H.A.z.h.z.z.M.c.D 1.g @ @ u n m c y @ @ +.h @ 2 2 2 2 2 2 2 # g 1.w 8.Y.M.l.!.Y.M.g.h.F.M.c.",
"A.Y.A.z.l.M.n.A.F.z.y.u p z z M b M M b b M p u b M b z b b b b b y w b i.h.z.E.B.Y.E.B.F.Y.E.F.",
"R.c.l.c.H.F.H.F.h.c.M.a.p.p.f.f.f.f.a.a.f.f.f.f.j.p.p.p.f.f.f.f.y.p.a.a.z.z.A.A.A.F.c.c.H.H.F.F.",
"H.c.h.c.h.n.h.d.p.d.k.f.z.A.h.c.H.h.p.h.c.z.h.z.H.c.h.c.h.n.h.d.p.d.k.f.z.A.h.c.H.h.p.h.c.z.h.z."
};
