/* XPM */
static char *_0a8818f2e23434dbf72adde49d203c4[] = {
/* columns rows colors chars-per-pixel */
"48 47 223 2 ",
"   c #013F4C",
".  c #01414D",
"X  c #024B5C",
"o  c #024656",
"O  c #014E62",
"+  c #015265",
"@  c #02556A",
"#  c #045A6D",
"$  c #095A6F",
"%  c #035A67",
"&  c #055E72",
"*  c #0A5D72",
"=  c #015F78",
"-  c #036275",
";  c #096175",
":  c #03657B",
">  c #03697E",
",  c #09667E",
"<  c #1E657B",
"1  c #20687E",
"2  c #2B824F",
"3  c #449E5E",
"4  c #4D9B67",
"5  c #659379",
"6  c #5EB973",
"7  c #6CA97F",
"8  c #026C82",
"9  c #016E89",
"0  c #066883",
"q  c #1F6B82",
"w  c #027185",
"e  c #02758A",
"r  c #02798E",
"t  c #1B768A",
"y  c #1A788B",
"u  c #017D93",
"i  c #017E9A",
"p  c #007790",
"a  c #1D7D93",
"s  c #028196",
"d  c #01839B",
"f  c #0B849A",
"g  c #01899E",
"h  c #0B8597",
"j  c #1E8197",
"k  c #208396",
"l  c #0286A2",
"z  c #028DA3",
"x  c #078DA7",
"c  c #138BA3",
"v  c #178FA7",
"b  c #0391A6",
"n  c #0394AA",
"m  c #059AAD",
"M  c #0A9BAE",
"N  c #1996A9",
"B  c #059BB0",
"V  c #0B9EB3",
"C  c #0797B1",
"Z  c #119EB2",
"A  c #1D9EB3",
"S  c #259BAD",
"D  c #2A9DB2",
"F  c #269BB1",
"G  c #369EB4",
"H  c #288CA3",
"J  c #0CA1B3",
"K  c #13A2B5",
"L  c #1CA3B5",
"P  c #18A4B9",
"I  c #15A2AC",
"U  c #23A2B4",
"Y  c #2CA2B4",
"T  c #2BA5B9",
"R  c #25A7B8",
"E  c #34A3B6",
"W  c #3AA9B5",
"Q  c #34A5BA",
"!  c #3BA6B9",
"~  c #35A9BC",
"^  c #3BAABB",
"/  c #3FA6B7",
"(  c #6B879F",
")  c #6C8CA4",
"_  c #648FA0",
"`  c #6692A5",
"'  c #6F94A4",
"]  c #6296A8",
"[  c #639AAD",
"{  c #6E9AAC",
"}  c #6E97A9",
"|  c #6C9DB3",
" . c #649DB0",
".. c #42A6B9",
"X. c #43ACBC",
"o. c #4AAEBD",
"O. c #48ABB6",
"+. c #51ACBC",
"@. c #4BB0BD",
"#. c #55B1BC",
"$. c #6DA4B6",
"%. c #6AA4BA",
"&. c #6AACBA",
"*. c #6BA9B6",
"=. c #72A8BB",
"-. c #6DB2BE",
";. c #2FB0C5",
":. c #35ADC6",
">. c #46B1C4",
",. c #4CB2C2",
"<. c #4FB9C8",
"1. c #53B4C5",
"2. c #5CB5C6",
"3. c #55BAC7",
"4. c #5AB6CB",
"5. c #56BACA",
"6. c #5BBACA",
"7. c #55B6C9",
"8. c #6DABC2",
"9. c #70AEC3",
"0. c #61BAC6",
"q. c #63BBCB",
"w. c #6BBDCC",
"e. c #67B5C5",
"r. c #7FBDCE",
"t. c #78B8C6",
"y. c #64BED0",
"u. c #6BBED0",
"i. c #5EC1CA",
"p. c #5FC0D1",
"a. c #64C1CD",
"s. c #6AC2CE",
"d. c #74C3CF",
"f. c #6DC4D3",
"g. c #6DCAD3",
"h. c #64C3D1",
"j. c #73C5D4",
"k. c #7CC3D3",
"l. c #72CAD5",
"z. c #73C7D9",
"x. c #74C8D9",
"c. c #7BC7D6",
"v. c #84B99F",
"b. c #91BCA6",
"n. c #A1CD9C",
"m. c #A8D4AE",
"M. c #80BDCF",
"N. c #8BBCCD",
"B. c #83BED2",
"V. c #89BCD1",
"C. c #98BCCA",
"Z. c #AEBBCE",
"A. c #AFBDD2",
"S. c #B1BDD4",
"D. c #BDBDD5",
"F. c #85C3D4",
"G. c #89C3D3",
"H. c #82C8D8",
"J. c #95C5D6",
"K. c #88C0CD",
"L. c #B7C1CB",
"P. c #ABC2D4",
"I. c #ABC7D7",
"U. c #B6C4D5",
"Y. c #BBC6D4",
"T. c #B5CAD3",
"R. c #BCC9D4",
"E. c #BBC6D8",
"W. c #B3CCDC",
"Q. c #BDCCDA",
"!. c #BFD0DB",
"~. c #B6D4C8",
"^. c #C0CAD5",
"/. c #C2CDDC",
"(. c #C1C4DA",
"). c #C1D1DC",
"_. c #C1D6CD",
"`. c #D4EBD1",
"'. c #C4CAE0",
"]. c #CFDCE4",
"[. c #CEDBE9",
"{. c #C7D2E2",
"}. c #D2DCE4",
"|. c #D4D6E8",
" X c #D5DEEA",
".X c #DADEEE",
"XX c #D6D8E5",
"oX c #DCDFF0",
"OX c #EDDFF9",
"+X c #CFE1E1",
"@X c #D2E1E3",
"#X c #D6E2EC",
"$X c #DBE3ED",
"%X c #DAEAEE",
"&X c #D4EEEF",
"*X c #D6E4F1",
"=X c #DCE4F3",
"-X c #DCEAF2",
";X c #DEE5F8",
":X c #DEF0F2",
">X c #E3E2ED",
",X c #E5EAED",
"<X c #E3E5F2",
"1X c #EAE6F3",
"2X c #E3EAF5",
"3X c #EAEBF5",
"4X c #E5EBFA",
"5X c #EAEDF9",
"6X c #ECE4FC",
"7X c #F2EEF9",
"8X c #EDF1FC",
"9X c #EEF6F9",
"0X c #F7F9F6",
"qX c #F4F4FC",
"wX c #F3F3FA",
"eX c #F4FCFC",
"rX c #FBFBFD",
"tX c #FAFAFC",
"yX c #FAF9FE",
"uX c #FAFEFF",
"iX c #FDFDFF",
"pX c #FBFBFA",
"aX c #F7F4F7",
/* pixels */
"rXrXiXtXiXtXiXiXrXrXrXtXtXtXtXtXrXtXpXeXeXtXiXpXpXrXeXrXiXeXrXeXrXrXrXtXtXtXtXtXtXtXtXtXtXiXiXtX",
"qXwX8XwXwXwXqXwXqXqXqXqXqXqXqXqX3XaX0XeXwXaX`.m.n.`.pXaX3XaX0XaXqXqXqXqXqXqXqXqXqXqXqXwXwXwXwXwX",
"8X5X5X8X3X3X5X5X5X5X5X5X5X5X5X5X3X8X2X5X6XqXm.3 6 7 aX6X8X2X:X7X5X5X5X5X5X5X5X5X2X5X5X5X8X8X5X8X",
"4X=X2X4X2X2X2X2X2X2X2X2X2X2X2X2X5X4X;X4X6X7Xb.2 4 5 yXOX6X4X2X1X2X2X2X2X2X2X2X2X4X4X2X=X2X=X2X2X",
"2X#X=X$X$X=X#X#X$X$X$X$X$X$X$X$X#X$X$X%X$X,X_.b.v.~.%X$X$X&X-X#X$X$X$X$X$X$X$X$X$X=X$X=X<X<X$X#X",
"#X X2X X#X#X$X-X$X$X#X#X#X#X#X#X*X#X$X#X@X$X2X2X4X5X#X$X$X#X.X*X#X#X#X#X#X#X#X#X#X#X#X=X#X2X$X X",
"#X#X=X^.^.L.L.Y.R.R.R.R.R.R.R.R.R.Y.(.E.T.Y.D.(.'.S.!.R.E.E.E.U.Y.Y.Y.Y.Y.Y.Y.Y.Y.Y.L.^.L.}.$X=X",
"=X X#XR. X#X#X#X X X X X X X X X@X.X|. X#X#X}.#X#X@XXX}.#X.X}.XX X X X X X X X X X#X X#X^.#X*X X",
"%XoX=XY.>XC.4.B.r.r.M.M.M.B.F.F.F.H.H.G.H.k.J.$X<XQ.t.k.k.G.M.F.G.G.G.G.F.F.G.G.H.H.F.XX/.@X;X X",
"#X.X=XR.$Xt.T o.3.5.5.6.a.a.a.a.w.f.f.d.l.f.J.#X-XW.0.a.a.d.s.g.g.g.g.g.g.g.l.l.c.c.k.}./.@X=X#X",
"#X.X=XE.#Xe.K Y ^ >.5.p.q.q.q.u.q.h.h.s.f.f.J.$X2XW.2.q.q.a.i.h.s.f.f.j.z.z.x.x.x.l.k.[./.+X;X#X",
"=XoX$XY.=Xt.P T T T ^ >.7.q.q.q.q.y.y.w.s.y.J.<X3XQ.e.q.q.w.q.w.w.s.f.f.j.j.j.j.z.l.k.[.{.+X;X#X",
"#X X$X^.<Xt.V A P L L Y ~ >.3.6.2.6.6.0.i.5.G.$X2XW.#.5.6.q.6.6.q.q.q.a.a.s.s.f.z.f.k.[.{.}.=X X",
"$X X#XR.<X9.B J Z L R R U Y ^ ,.1.5.6.0.6.3.K.>X-XW.@.<.3.2.6.4.0.q.q.q.q.w.w.s.f.s.d.}.{.}.=X X",
"$XoX#XT.$X-.m J M V J K K L L U ^ >.1.2.6.1.N.>X2XW.+.1.,.1.2.2.5.6.6.6.6.q.w.a.h.s.w.[./.@X=X#X",
"#XoX$XR.<X=.n M B V V V V Z K L I L ^ ,.<.,.B.=X<XW.O.,.>.o.,.,.7.4.4.4.4.6.q.q.y.q.w.[.).+X*X*X",
"$X#X#XR.<X-.z n m m m M V V J V J P L U :.;.V.>X<XT.^ o.o.@.@.,.1.1.1.1.5.6.6.6.6.q.q.}.Q.}.;X X",
"$X#X#XT.<X&.z b b n n m m V V V V K Z Z U L t.>X2XT.! / ..X.O.,.@.@.,.,.1.1.1.6.6.6.e.}.Q.}.;X X",
"$X#X#XT.<X&.l z z b b n n m m m m V V M V m 9.>X2XI.E ! X.X.O./ X.o.,.,.,.1.1.1.1.2.e.}.Q.}.;X X",
"$X*X#XR.<X*.l g z z z b b n n n n B B m V m 8.<X$XI.D Q ! Q W ^ ! X.X.o.o.,.,.,.,.1.2.}.Q.}.;X X",
"$X*X$XR.<X*.i d l l z z z b b b b n n m V n 8.<X5XP.h c F ~ W ~ E ^ ! ..X.o.o.o.,.,.2.}.!.}.;X#X",
"=X*X$XR.<X*.i s g g g g l z z b x b b b C n 8.<X<XI.h i f c S ~ ~ ^ ^ ! / X.X.X.X.o.1.].!.}.=X X",
"=X*X=XR.<X*.i h d d d g g l l l z x b z n b 8.<X3XI.s i i d h v S Y Q Q ! ! ^ ^ ! X.+.].!.}.=X#X",
"$X*X$XR.<X*.i u i d d d g g g g d z b b n z %.$X1XI.u d d d u i f v D E E E E E W / +.[.Q.}.=X#X",
"=X#X<XT.<X$.e u u u s d d d d d d l l l x g %.<X2XP.e u s u r d d u s v F Q Q G E E o.|.).}.oX#X",
"=X#X<XT.<X$.e u p u u u s s s d s g g g l d %.<X2XP.e p u u r i u u u s f v D Q E Y ..|.Q.}.=X#X",
"#X#X;XT.<X$.9 r p p u u u u u u u d d d d s %.<X2XP.e r p p r u u u u u r h c N D Y ..|.Q.}.;X#X",
"=X#X<XT.<X$.8 r e e r r u u u u u u i s s s %.<X2XP.w e r p e p p u u u u u u s c N G |.Q.}.=X#X",
"=X#X;XR.<X| 8 e e e e e r r r r r u u u s u | <X2XP.8 w e e w p e r r u u u u u u h H |.).}.=X#X",
"=X#X;XT.<X| 8 w w w w e e e r r r p u u u r | <X2XP.8 8 w w w e e e r r r p u u u r j |.).}.=X#X",
"$X#X<XT.<X| : w 8 w w w w e e e e r r r p r | 1X2XP.8 8 8 9 w e w w e r e e r r u u j |.).}.;X X",
"#X#X;XT.>X{ : 8 8 8 8 w w w w e w e e r p r | 1X2XZ.0 8 8 8 > w w w w w e e e e e r k XXQ.}.;X#X",
"=X#X=XU.2X} : 0 8 8 8 8 8 w w w 8 w e e e 8  .<X2XU.- 8 8 8 0 8 8 8 w w w w w e r e a |./. X*X X",
"=X#X=XE.2X} - 0 8 8 8 8 8 8 8 8 8 w e w e 8  .<X2XS.- 8 8 8 : 8 8 8 8 8 w w w w e w a |./. X*X X",
"=X#X=XU.2X} & , > > > > 8 8 8 8 8 8 w w w 8 [ <X2XS.- : : > : 8 8 8 8 8 8 8 8 8 w 9 y }.Q.}.*X X",
"=X#X=XE.2X' # , : : : : : 0 0 0 0 8 8 8 w 0 [ 2X2XA.- : : : : : : : 8 8 8 8 8 8 8 8 y }.Q.}.*X X",
"=X#X=XE.2X' @ ; - - - : : : , , > 8 8 > 8 : ] <X2XS.# & - - - : : : , : : 8 8 8 8 8 y XX/.}.*X X",
"=X#X=XE.2X' @ * & & - - : : , , : > > , 0 : ] 1X2XS.% & & - & - : : : : : : : > > 0 t XX/.}.*XoX",
"=X#X=XE.2X' @ $ # & & & - - : : : : : : : : ] 1X2XA.% # & $ & & & - - - : : : : > : t XX/. X*XoX",
"=X#X#XE.<X) @ $ $ & & & & & - - - : : : : = ] 1X2XS.% # # $ $ & & & - - - - - - : : t XX/. X*X=X",
"#XoX$XE.2X) X @ # # # # # & * * # & - - : # ] 2X2XA.+ @ # # # & # & & & & & & - : - q [./.}.;X#X",
"#XoX$XE.2X) X @ @ @ # # # # # & $ & & & - @ ` 2X2XA.+ @ @ @ @ @ # # # & & & & - - & q ]./.}.;X X",
"#XoX$XE.2X) o @ + + @ @ @ # # # $ & & $ - @ ` <X2XA.+ O + + @ @ @ @ @ # # $ & & - # q ]./.}.;X#X",
"$XoX$XE.2X) o + + + + @ @ @ @ # # # # # ; @ ` 2X2XZ.X O + + + @ @ @ @ @ # # $ & & # 1 }./.].;X#X",
"$XoX$XE.2X) . O O O + + + + @ @ @ @ # @ & + ` 2X2XZ.X O O O + + + + + @ @ @ @ # # @ < }./.].;X#X",
"$X.X$XE.2X) . X X X O O O + + + + @ @ @ # + ` 2X2XZ.X X X X X O O O O + + + @ @ # + < }./.].;X#X",
"$XoX$XE.2X(   X X X X X X X O O + + @ + # O _ 2X2XZ.X o X X X O O X X O O + + + @ + < }./.].;X#X"
};
