/* XPM */
static char *f1e00a2f72174403ecdd41dfa6a63d341rQh4f9h80eRfeH7[] = {
/* columns rows colors chars-per-pixel */
"48 48 211 2 ",
"   c #167EB1",
".  c #247FAB",
"X  c #457AA6",
"o  c #1D86B3",
"O  c #2F83A7",
"+  c #2B85AD",
"@  c #2A88AB",
"#  c #3D86A7",
"$  c #3988A6",
"%  c #3383A9",
"&  c #338AAD",
"*  c #3F8AAC",
"=  c #2681B0",
"-  c #2C8EB4",
";  c #2B8AB8",
":  c #3A86B7",
">  c #338BB3",
",  c #3C8CB4",
"<  c #358DBB",
"1  c #3A8DBB",
"2  c #3387B5",
"3  c #2B91B7",
"4  c #2990BD",
"5  c #3D93B6",
"6  c #3D99B5",
"7  c #3591BB",
"8  c #3C94BC",
"9  c #3E9BBC",
"0  c #3698B3",
"q  c #4284A4",
"w  c #4086A8",
"e  c #428EAF",
"r  c #5085A7",
"t  c #4593AD",
"y  c #4B90AF",
"u  c #5698AE",
"i  c #428DB3",
"p  c #428DB9",
"a  c #4A8AB7",
"s  c #4391B4",
"d  c #4B95B5",
"f  c #4399B5",
"g  c #4B99B5",
"h  c #4494BB",
"j  c #4B94BB",
"k  c #449ABC",
"l  c #4B9ABC",
"z  c #5393B4",
"x  c #519DB4",
"c  c #5A9BB5",
"v  c #5395BA",
"b  c #539CBC",
"n  c #5B9DBC",
"m  c #5A95BD",
"M  c #6096BA",
"N  c #42A2BD",
"B  c #4BA1BE",
"V  c #53A1BC",
"C  c #5AA4BD",
"Z  c #55AABE",
"A  c #62A4BD",
"S  c #6CA4BB",
"D  c #64ABBC",
"F  c #3B8CC1",
"G  c #3393C2",
"H  c #3D95C2",
"J  c #3C9CC5",
"K  c #3697CA",
"L  c #3D9CCB",
"P  c #3FA0C3",
"I  c #3FA4CE",
"U  c #3DA3D3",
"Y  c #3FABD1",
"T  c #4295C2",
"R  c #4D96C3",
"E  c #459AC3",
"W  c #4C9CC3",
"Q  c #449DCA",
"!  c #4B9DCB",
"~  c #5396C2",
"^  c #539DC3",
"/  c #5A9DC2",
"(  c #539ECB",
")  c #599FCB",
"_  c #4D9ED6",
"`  c #609FCA",
"'  c #639FC3",
"]  c #44A3C5",
"[  c #4DA3C5",
"{  c #46ABC5",
"}  c #4BA8C6",
"|  c #44A1CB",
" . c #4DA3CB",
".. c #45AACB",
"X. c #4DA9CB",
"o. c #54A2C4",
"O. c #5BA4C5",
"+. c #53A9C5",
"@. c #5BA9C6",
"#. c #54A4CB",
"$. c #5BA5CB",
"%. c #55AACD",
"&. c #5CAACC",
"*. c #55B1CD",
"=. c #5BB1CE",
"-. c #45A2D3",
";. c #4CA3D2",
":. c #4CABD3",
">. c #4BA7D8",
",. c #4BAAD9",
"<. c #54A5D2",
"1. c #5CA5D2",
"2. c #55ABD3",
"3. c #5CACD3",
"4. c #5EA7DC",
"5. c #55ACDA",
"6. c #5DAED9",
"7. c #4EB4DC",
"8. c #55B4D4",
"9. c #5CB2D5",
"0. c #55B3DB",
"q. c #5CB3DB",
"w. c #56B8DD",
"e. c #5DBADA",
"r. c #62A5C4",
"t. c #6AA5C5",
"y. c #63AAC5",
"u. c #6AABC5",
"i. c #62A6CB",
"p. c #69A6CB",
"a. c #63ACCC",
"s. c #6AAECB",
"d. c #73AEC9",
"f. c #65B0C7",
"g. c #6FB0C6",
"h. c #67B2CE",
"j. c #6DB2CD",
"k. c #69BACF",
"l. c #76B5C7",
"z. c #72B3CE",
"x. c #77B8CE",
"c. c #63A6D2",
"v. c #63ACD3",
"b. c #6BADD3",
"n. c #61A7DA",
"m. c #62ADDB",
"M. c #6CADD9",
"N. c #70AFDA",
"B. c #64B2D4",
"V. c #6BB4D4",
"C. c #63B9D5",
"Z. c #6BBAD5",
"A. c #64B4DB",
"S. c #6BB4DA",
"D. c #64BADC",
"F. c #6CB9DC",
"G. c #71B6D6",
"H. c #72B4D3",
"J. c #74BAD5",
"K. c #7BBBD6",
"L. c #71B6DB",
"P. c #7BB6DE",
"I. c #73BDDF",
"U. c #73BBDC",
"Y. c #7BBDDB",
"T. c #5CB4E2",
"R. c #56B8E5",
"E. c #61B5E3",
"W. c #6CB6E2",
"Q. c #64BAE4",
"!. c #6DBBE2",
"~. c #65BDEB",
"^. c #74B6E1",
"/. c #77BDE2",
"(. c #73BDE3",
"). c #7ABDE2",
"_. c #73BFE9",
"`. c #66C1DE",
"'. c #6AC1D4",
"]. c #7DC2D4",
"[. c #74C1DE",
"{. c #7BC1DD",
"}. c #76C8DD",
"|. c #6DC1E5",
" X c #69C1E9",
".X c #74C2E4",
"XX c #7DC3E3",
"oX c #7DC4EB",
"OX c #7CC9ED",
"+X c #7BC8E4",
"@X c #7ECDF4",
"#X c #81B9D4",
"$X c #81BDDF",
"%X c #82BDE6",
"&X c #80BFE8",
"*X c #81C2DE",
"=X c #82C4E3",
"-X c #89C4E3",
";X c #82C9E4",
":X c #82C5EB",
">X c #86CAEB",
",X c #8DCCEA",
"<X c #8ECAE2",
"1X c #92CFEC",
"2X c #83D0EE",
"3X c #89D0EC",
"4X c #94D3E5",
"5X c #84D3F9",
"6X c #8CD5F9",
"7X c #8BD2F2",
"8X c #9DDFF5",
/* pixels */
"`.f t o. .-.5.B.$.3.<.: ( L.1XS H  .o.J.K.a.&.Q a B.+.&.b.X i.%.! T ] e.#.F.F.@.H  .3.h ~ o.I.+X",
"=.g C F.5.< 5 @.@.6.q. .#.@.{.u.#.#.^ V.H.O.O.W v.2.8 #.c.a #.q.#.Q P 2.W v.O.s #.<.W j (.S.&.B.",
"&.V.H.a.<. .#.a.l l #.2.2.l &.O.i.b.O.#.$.&.V.s.1.2.]  .1.W.m. .W 2.8.8.E $.^ W &.!.v.$.oX&.k D.",
"O.=XY.i.#.<.v.K.h.b i ^ $.^ &./ d.XXS.W E B.{.x.^ #.%.o.#.5XF.^ O.C.8.X.#.c.&.3.O.I.^.v.&., 5 Q.",
"b p.H.I.6.1 i H.,XH.v / ` c.L.v.d.K.(.2.! &.h.z.Z.b O.a.v V.O.b.I.&.9 6 B.(.S.#.&.&.&.$.j k !  .",
"^ / O.3.q.:.W O.z.H.p.P.b.M.S.v.n v v.A.3.W l B.C.O.J.H.b @.n t.S.l 6 k B.I.(.V.@.l $.v.j 3.q.! ",
"<.3.o.8 J R.!.o.b r.a.=XV.&.+.+.W i $.&.$.W H 0.} W /.!.+.} @.v $.h %.%.&.b H.[.%.%.&.^.$.$.3.B.",
"E #.q.| o 4 :.&..XZ.o.F.o.k N { 5.<.v.d s #.L U Y . R T.,.-  .n.m.k 9.B.o.q n C q.9.o.v.&.o.j B.",
"@.k [ %.~ p.Y.s.{ X.! H ,.>.8 ) | h a.O.x a.[ 8 s 5.q.X.B./ n._ F m.~ v.3.= J E.D ].J.O.$.3.! 1 ",
".X[ 8 [ v.).XXb 6 %.3.Q | | E ^.5.5 b V.V.B.#.| &.#.T [ Z.O.$.! 1 v.n v ! Q <.#.x Z.J.O.^ $.5.5.",
"I.3.%.E p ) A.%.+.9.B.#.2.q.3.:X!.&.a.+XU.o. .Q r.v.E o.O.O.^ ! 3.F.s.z h <.6.@.f @.@.l l W #.9.",
"i.&.2.#.R <. .- +.&.a.^ [ %.o.V.@.a.O.B.B.&.D.2.z.oX#.$.a.;XF.! #.O.K.K.&.W h d [ B k ^ $.W l 2.",
"v.3.%.o.^ 1.2.J B a.Y.a.l k h &.O.@.e l $.#.q.#.A XXv.&.b V.B.3.C.O.z.J.v.! W a.D.+.W 3.C.o.#..X",
"3.3.%.o.O.v.6.0.%.B.XXV.@.%.[ ^ 3.v.o.$.o.i l B.r.a.E W j d o.E.9.&.n b #.q.!.[.B.&.@.&.$.W 2.5X",
" .k k a.>X%X/ O X.^ i.@.&.e. .1 E #.3.&.a.O.O.XX+X+.2 T ^.M.v. .@ o.d / 6.5.3.b o.v.a.~ j R 2.Q.",
"5.%.[ O.t.M z o.9 l b.a.@.e.2.! 2.<.#.h S.7Xy.z g 2.0.;.3.j $.<.} .Xo.#.<.1 #.B.O./.L.~ ~ m.<.8 ",
"#Xt.n Y.y.d t Z.:.8 7 E.#./ n K.v.&.k @.b.).a.#.[ &.O./ r./ / M.&.h.k.o.3.H E +./ I.U.l l 8.5.L ",
"-XY.s.Y.V.V.h.[.q.8 > E E o.V.XX:X&.%.B.@./ &.#.X.3.d v O.V.~ j i.r.y.@.F.5.W i B.&.o.O.&.#. .T.",
"v.i./ V.V.L.i.O.9.#.2.3.3.$.v.a.j % 2.9.#.j 3.5 E 9.l &.a.6X!.3.O.J.;XXXc.c.i.i.W 2.3.$.v.C.#.5 ",
"A.W l V./.S.i.i.C.F.OX3.^ j v.6./ #.q.T p ^ A.W [ A.B.B.O.F.3.#.A.B.f.s.d 1.&.o.e.[ s l &.o.b &.",
"q.E , j / O.c.v.l &..X&.~ R 3.<./ !.X.T ! W.3.+.%.%.F.a.a.l #.2. .+.Z @.s #.%.[  .E , j &.B.B.V.",
",.5.3.j O.V.^.v.& h v.v.v.&.<.h z B.W 5._.oXb a.W % l b a.e o.#.7 } '.}.&.%.%.8.& 3.3.W v.oXI.o.",
"; Q 3.d r.a.&., 2.#.o.a./ i.3.3.-XXX2.%.A.M.y.J.@X&.V./.:X&.v.#.! l V f.XXD.} 0 9.$.~ ^ $.&.a.I.",
"L | B.@.J.h.&.k 2.%.v./.r.i.$.m.d.s.B.k ^ r.K.z.A.j / L.V.@.o.E 4.$.A A Y.#.k N g &.) j R &.3.v.",
"3.V.u.p..X!.a.r.@.O.a.XXV.S.#.<.! A.v.s d J.XXs. .+ 5.;.! A.j m <.S.r.O.#.8 X.@.i $.v.B.h [ 2.Q.",
"%.U.J.s.&.@.O.j.j v O.V.a.v.#.1 #.2.6.3.O.O.i.s.$.$.6.<.E <.2.l 1 ^ b a.9.X.q.B.&.v.o.W [ 9. .8 ",
"l a.j.O.l E &.XX&.+.O.l l E 2.#.E W 2.A.$.j o.I.P.N.R 6. .+ ....! S.U..X%.- h +.v.oX.X@.B.C.3.[ ",
"h O.A b l [ B.{.&.@..XC.3.k %.3.E [ <.[ E W 3.!.L.v.s 2. .@ :.w.( &.U.[. .7 k a.h F..Xb @.W #.A.",
"#.a.s.O.E Q #.O.&.9.|.&.3.#.C.&.2.9.2.E E #.3.#.} *.[ l o.v.!.A.#.i d &.q.0.#.b h o.o.e O.l ^ v.",
"v.V.Y.Z.E H W o.Z.B.#.& h F.OXa.C.&.@.#.&.#.#.! { ] +.V a.L.O.c.6.s b %.:.5.E q 3.3.+.o.B.&.@.S.",
"&.s.J.V.E Q 2.&.&.$.W W #.(.F.b a.O.O.v.v.3.<.#.8.l o.V.Y.O.w / #.j B.%.H ;.@.n <.6.&.B.a.V.s.M.",
"&.C r.O.E ;.q.&.V.^ p 3.R #./ s.C a.a.&.@.v.v.1.#.&.i.H.XXa.d l F.o.B.[ 7 5.S.s.#.%.+.B.a.XXJ.r.",
"*.+.o.@.S.M.$.) >XK.u.$ G -.3.r u D 8XV.%.@XO.S r.#.8 | ;.m.^ I.4Xg./ v.v.O.z.4Xq.5 j v.i.$.3.e.",
"a.O.O.v.$.j [ D.a.u.u.O.Q >.3.r.V y.a., H ~.A.c n &.2.J T 6.&.B.D K.I.R h v.V.A 8 [ v.v.$.$.#.H ",
"P.p.b./.v.[ ] J [ O.t.=Xm.q.#.C.q.%., H K G 6.S.H.a.8.Q ! m.3.h C Z.S.#.T ^ O.V 2 #.3.W ^ 5.5. .",
"XXs.V.(.B.9.<.> +.&.i.%X^.3.] *.T.%.h 6.,.; 2.XX$Xl %.#.5.( #.k Z.+.[ 3.2.E W B.Q ! T j &.3.2.E.",
"C.B +.3.l j 1.c.X.#.v.i.b.v k ..%.&.a.$.2.q.&.C r.* &.3.$.i W A.C.#.E [ 2.2.%.#.<.2.#.$.3.W E 6.",
"C.f f %.W i ~ c.E ;.5.R p.z o.0.v.p.*Xs.$.3.d c O.l 2.%.$.O.$.&.%.W d o.v.6.[ 5 &.!.F.O.l j ^ v.",
"Z.@.+.=.%.W R ^ W -.K E H.d.@.E.5.O.Y.J.3.[ e y.A.3.[ W b.>Xi.b &.l l s.U.a.W W i.V.U.O.g O.U.S.",
"' =XXX[ 5 ] 0.0.5.L   | XX<X/ 1.H k O.O.9. X9.O.<.#.8 l b.,Xy.y.$.O.p.H.J.V.v.1.p.O.s.H.V.{.XXp.",
"O.S.v.#.%.&.@.C s @.&.B.B.a.O.# j j $.&.a./ ;X#X-.G 0.*.@.XXV.^ [ 2.! E 8.9.%.D.i.v.l %.9.2.E _.",
"&.#.k [ 6.$.i.>X@.+.o.$.O.&.S.a.#.#.5.h R B.Z.O.;.| - 9 F.b.O.a.A.h k ^ j o.B.a.o.o.#.2., #.A.1.",
"*.D.X.E <.) ` ).B.+.@.I.B.v..XB.3.2.5.8 Q E.W W ^ e.3 - #.a.H.u.1.R ^ O.~ p.H.n #.#.E [ Q T E Q.",
"+.|.C.W #.( R n.&.o.B.OXB.&.S.j &.B.&.A.3.%.s $.p.A.7.U < &.,Xl.E W.v.~ V.XXH.u.A.D.E ! 5.8 2 Q.",
"v O.i.v.6.T 7 T.[ l &.B.l l &.* s.=XO..XU.O.O.s.{.+.w.R.Q &.H.].%.q.[ h &.Z.V.{.!.2.6.3.[ #.<.8 ",
"m p.b.i.W k J I E W &.B.W ^ B.l y.{.d a.V.s.;Xj.B.+.} 8 3.M.y y.8.& 8 8.[ k &.D.&.W ^ 3..XA.2.X.",
"&.I..XO.d 3.q.1 %.2.9.!.6.#.v.$.$.3.k #.&.O.=Xj.#.%.B l H.H.l f 2.> W Q.2.h [ 5.a.b i ~ 6Xv.W |.",
"8.%.C.V.a.I.oXc.D.q.%.9.@.s ^ 3.E.;.5.T.5., 3.M. XX.o.3X-Xt.Z.X.&.F.v.<.6.<.! E.2Xa./ v i.@.S.3."
};
