/* XPM */
static char *_84526170d4146abb100383e890edcb1[] = {
/* columns rows colors chars-per-pixel */
"48 48 140 2 ",
"   c #3F598E",
".  c #455B8A",
"X  c #5F78A4",
"o  c #5D76AB",
"O  c #637AA7",
"+  c #6176A8",
"@  c #647EAE",
"#  c #697FAE",
"$  c #667FB3",
"%  c #697EB0",
"&  c #657FB9",
"*  c #6780AE",
"=  c #6A81AF",
"-  c #6681B4",
";  c #6C83B3",
":  c #6681BA",
">  c #6A83BA",
",  c #6F8BBB",
"<  c #7086B5",
"1  c #748CBC",
"2  c #788EBF",
"3  c #7B92BE",
"4  c #7E9BBE",
"5  c #6781C1",
"6  c #6983C2",
"7  c #748EC4",
"8  c #758FCA",
"9  c #7691C5",
"0  c #7D95C5",
"q  c #7C99C6",
"w  c #7691CA",
"e  c #7C96CA",
"r  c #7F9ACD",
"t  c #7C96D0",
"y  c #7F99D1",
"u  c #8197C4",
"i  c #819AC6",
"p  c #8197CA",
"a  c #839BCC",
"s  c #889ECD",
"d  c #839BD1",
"f  c #899ED2",
"g  c #86A3C3",
"h  c #88A4C5",
"j  c #87A0CD",
"k  c #8AA1CD",
"l  c #86A2D2",
"z  c #8BA4D4",
"x  c #8EA9D5",
"c  c #8CA3D9",
"v  c #91A7D5",
"b  c #93AAD6",
"n  c #92A7D9",
"m  c #93ABDA",
"M  c #98AEDC",
"N  c #96B1DE",
"B  c #9BB1DE",
"V  c #A3BEDD",
"C  c #99AEE0",
"Z  c #9EB5E5",
"A  c #9FB8E2",
"S  c #9BB5E8",
"D  c #A1B7E6",
"F  c #A4BBE4",
"G  c #A7BDE8",
"H  c #A3BAEE",
"J  c #A7BDEC",
"K  c #A4BCEA",
"L  c #A8BFE9",
"P  c #A8BEEB",
"I  c #ABBFEC",
"U  c #A9BFED",
"Y  c #A1BBF0",
"T  c #A3BAF0",
"R  c #A5BFF1",
"E  c #A2C0DB",
"W  c #A2C2DE",
"Q  c #A4C1DC",
"!  c #A2C1E0",
"~  c #AAC2E5",
"^  c #A5C3EB",
"/  c #A7C5ED",
"(  c #A5C1ED",
")  c #AEC5EB",
"_  c #ADC1EF",
"`  c #ABC1EF",
"'  c #AAC9EC",
"]  c #A6C1F1",
"[  c #AEC4F1",
"{  c #AFC5F2",
"}  c #ACC4F4",
"|  c #ACC9F7",
" . c #ACC6F8",
".. c #AFC9FC",
"X. c #B1C7F4",
"o. c #B0C6F5",
"O. c #B2CBF7",
"+. c #B0C5F9",
"@. c #B7CDFA",
"#. c #B7CDFC",
"$. c #B3CBFA",
"%. c #B8CEFB",
"&. c #B8CEFD",
"*. c #B9CFFF",
"=. c #B6D1FE",
"-. c #B9D0FA",
";. c #BFD7FA",
":. c #BBD0FF",
">. c #BBD3FF",
",. c #BCD0FE",
"<. c #BCD2FF",
"1. c #BDD3FF",
"2. c #BED2FF",
"3. c #BED4FF",
"4. c #BFD5FF",
"5. c #BFD6FF",
"6. c #BAD4FF",
"7. c #BED8FF",
"8. c #BCDAFF",
"9. c #C0D7FF",
"0. c #C3D9FF",
"q. c #C3DBFE",
"w. c #C4DAFF",
"e. c #C5DBFF",
"r. c #C5DCFF",
"t. c #C6DDFF",
"y. c #C7DEFF",
"u. c #C7DFFF",
"i. c #C4DDFF",
"p. c #C8DFFF",
"a. c #C3E1F9",
"s. c #C1E2FB",
"d. c #C1E1FD",
"f. c #C1E0FF",
"g. c #C6E0FF",
"h. c #C4E2FC",
"j. c #C8E0FF",
"k. c #C8E3FF",
"l. c #CAE2FF",
"z. c #CAE3FF",
/* pixels */
"7.7.7.7.9.5.5.>.@.&.5.9.2.2.2.2.0.X.2.2.[ k K p.e.e.5.-.r.r.r.r.r.l.l.l.9.e.g.l.h.a.a.d.d.7.^ x ",
"Y Y Y Y Y Y H K D J [ [ _ I I I P M D D M 3 M 2.[ P D D P J F F F F F F ) ~ V V E Q W W ' / N r ",
"c c c c c c c l k z b M b v v v z 0 s k s ; k %.B k a v k k k k k h h i v k h g g h g h x x a , ",
"d d d d d d a 0 3 0 i i u u u u a 1 u i a = v 2.M u 3 k u i i i i i i i 3 3 i i 4 4 4 q 0 r 9 - ",
"d d d d d d a a a a i i u u u u u u u u 0 ; b %.B a u i i a a a a a a a a a i i i i g j r d w > ",
"d d d d d d a a a a i i u u u u u u u u 0 ; b @.B a u i a a a a a a a a a a a a a a a a r d w 6 ",
"d d d d d d a a a a i i i i i i u u u u 0 ; b @.B a i a i i a a a a a a a a a a a a a a y d t 6 ",
"d d d d d d a a a a i i i i i i u u u u 0 ; b @.M a i a i i a a a a a a a a a a a a a d t y w 5 ",
"d d d d d d a a a a i i i i i i u u u u 0 ; b @.M a i a i i i i a a a a a a d d y d d y e y 8 : ",
"d d d d d d a a a a i i i i i i i u u u 0 ; b @.M a i s i i i i a a a a a a d d d y y y e y 8 & ",
"d d d d d d a a a a i i i i i i i 0 0 0 u ; b %.M s a k a a a a a a a a a r r r d d y y e y w : ",
"d d d d d d a a a a a i i i i i i i 0 0 u ; v %.M s a k a a a a a a a a r r r r d d y y e y w : ",
"d d d d d d a a a a a a a a a a a i 0 0 u ; v &.M s a k a a a a a a a a r r r r d d d y y y w : ",
"d d d d d d a a a a a a a a a a a i 0 0 a = z >.M s a k a a a a a a a a r r r r d d y y y y w : ",
"d d d d d d a a a a a a a a a a a 0 0 0 a ; v 2.M s a k a a a a a a a a r r d r y y y y y y w > ",
"d d d d d d a a a a a a a a a a a 0 0 0 a ; v 2.m a s z a a a a a a a a a r y y y y y y y d w > ",
"d d d d d d a a a a a a a a a a p u 0 0 a ; n 5.v a s z a a a a a a a a d d d d d d d d y d w > ",
"d d d d d d d a a a a a a a a a p u 0 0 s ; n 5.m a s z a a a a a a a a d d d d d d d d y d w > ",
"d d d d d d d a a a a a a a a a p 0 0 0 d ; n 5.B k a s a a a a a a a a d d d a d d d d y d 8 > ",
"d d d d d d d a a a a a a a a a p 0 0 0 d > n 5.D l a a a a a a a a a a d d a r y y y y r y 8 & ",
"d d d d d d d a a a a a a a a p p e 0 0 a < n +.Z z a a a a a a a r r a d d r r r y y y r y 8 & ",
"d d d d 0 c c 0 2 0 s z a a a p p e 0 0 p ; c } C z v M a a a a 0 0 0 a d d r e r r r r e y 7 & ",
"a a a a 0 c c 0 2 0 s z a a a a p 0 0 0 0 % f I m s l v e p a a 0 0 0 r f d r e e r r r e r 7 $ ",
"a a a a a a a a a p a a a a a a p 0 0 0 2 @ a K m 0 3 3 e p p a 0 0 0 r f d r e e r r r e r 7 $ ",
"; % @ + ; ; ; # ; % # # = = = ; < < < < @ . X a 2 * @ ; - - - - - - @ @ $ $ $ $ $ $ $ $ o > o   ",
"s a u u f f s s f s a a s s s k z z k k a O 0 D M s a j l l s s s s a a a a a a f f f f r l e o ",
"+.X.[ I X.X.X.X.X.{ [ [ X.X.X.X.X.[ [ ) _ k J l.6.[ } | | | | | { { | | | | | |  . . . .] ..H f ",
"[ I K D [ [ ` ` ` I I I ` ` ` I P J K F J i A r.=.( ( ] ] ] ] ] ] ] J J R R R R ] ] ] ] H } S r ",
"v z z z z z z z c z l z z z z z l k j j v 1 v >.K x l l l l l l l l l l c c c c c c c c a f e > ",
"a a a i a u u u p p i i a a i i 0 0 0 0 i @ k O.N a q q q q q q 0 0 0 0 e e e e e e e e 9 0 1 @ ",
"a a a a 0 0 0 0 0 u i i a a i i 0 0 3 0 3 O k >.N a q q q q q q 0 0 0 0 e e 0 0 e e e e 9 0 1 @ ",
"v v z z a a a a a s s s f f s s a a i i 0 * b i.Z l a a a a a a a a a a a a a a a a a a e r 9 - ",
"s a a i a a a a a a a a a a a a a a a a z ; l | x a l x a a a a a a a a a a a d d d r r e r 7 - ",
"s a a i a a a a a a a a a a a a a a a a l ; l $.x a l z a a a a a a a a a a d d d d r r e r 7 - ",
"f s a a a a a a a a a a a a a a s a a a a = z >.x a l z a a a a a a a a a a a a d d y r e r 7 - ",
"f a a a a a a a a a a a a a a a s a a a 0 = x 6.m a s z a a a a a a a a a a a a d d r r e r 7 - ",
"a a a a a a s f f f d a a a a a a a a a s - x 6.m a s l a a a a a a a a d d d d d d y r e r 9 - ",
"a a a a a a s a f f d a a a a a a a a a s ; z =.m a a l a a a a a a a a d d d d d d d r e r 9 - ",
"a a a a a a a a f f a a a a a a a a a a a ; z =.m s a l a a a a a a a a d d d d d d y r e r 9 - ",
"a a a a a a a a s s d a a a a a a a r r a - z =.m a a l a a a a a a a a d d d d d d y r e r 9 - ",
"a a a a d d f d f f d d a a a a a a r r r * z >.m a a l a a a a a a a a d d d d d d d d e r 9 - ",
"a a a a d d f d f f d d a a a a a r r r r @ z >.m a a a a a a a a a a a d d d d d d y y e r 9 - ",
"d d a a d d d d f f d d d d a a a r r r 0 @ z 6.m a a a a a a a a a a a d d d d d d y y r r 9 - ",
"d a a a d d f f f f d d d a a a a r r r 0 @ z 6.m a a a a a a a a a a a d d d d d d y y r r 9 - ",
"d a p p d a a f f p f r r r r r a r r r 0 * x 6.m a a a a a a r a a a a a d d d d d r e r y 9 : ",
"d a p p a d d a d e l d r r r r a r r r 0 * x 6.m a a a a a a a a p p a f f d d d d r e r y 9 - ",
"a a p p p f f e e e c l r r r r a r r r 0 @ x 6.m a a a a a a a f e e f c f r e d a r e e r 9 - ",
"a a p p 0 c c e e e c c r r r r a r r r 0 @ x 6.m a a a a a a a l 9 9 c c f r 9 d a r e e r 9 - "
};
