/* XPM */
static char *_7af11dc24b645b0e0bcdbded8a65965ggqniPTYsfkY1Tpg[] = {
/* columns rows colors chars-per-pixel */
"48 48 239 2 ",
"   c #020203",
".  c #0C0C0C",
"X  c #06060A",
"o  c #120E0C",
"O  c #17110E",
"+  c #0B0D12",
"@  c #050B13",
"#  c #0C1219",
"$  c #141213",
"%  c #1A1819",
"&  c #251B18",
"*  c #331D15",
"=  c #27231E",
"-  c #38231B",
";  c #141B23",
":  c #241F22",
">  c #1C242E",
",  c #192730",
"<  c #252322",
"1  c #292627",
"2  c #362B26",
"3  c #27323A",
"4  c #393737",
"5  c #312E2F",
"6  c #1F211D",
"7  c #47271D",
"8  c #472D23",
"9  c #483329",
"0  c #593729",
"q  c #453A37",
"w  c #583D34",
"e  c #643C2B",
"r  c #713B30",
"t  c #4C423B",
"y  c #574438",
"u  c #664738",
"i  c #764938",
"p  c #6B412D",
"a  c #323845",
"s  c #3B4753",
"d  c #334550",
"f  c #335768",
"g  c #326579",
"h  c #1D4559",
"j  c #494446",
"k  c #554A49",
"l  c #484C57",
"z  c #4B525B",
"x  c #575356",
"c  c #5B4D53",
"v  c #654A43",
"b  c #67524A",
"n  c #795445",
"m  c #685959",
"M  c #77574E",
"N  c #7B655A",
"B  c #65615C",
"V  c #4A5765",
"C  c #575964",
"Z  c #4A4F61",
"A  c #615E65",
"S  c #586369",
"D  c #596876",
"F  c #4E6772",
"G  c #696868",
"H  c #766868",
"J  c #6F6E75",
"K  c #853C32",
"L  c #C83F36",
"P  c #82533E",
"I  c #904D3B",
"U  c #BB4B38",
"Y  c #8A5844",
"T  c #975945",
"R  c #98674C",
"E  c #986754",
"W  c #8E6954",
"Q  c #A3694D",
"!  c #A46953",
"~  c #A7765A",
"^  c #B57556",
"/  c #B56956",
"(  c #87746A",
")  c #967666",
"_  c #897A79",
"`  c #8F7471",
"'  c #AA7C65",
"]  c #B87C65",
"[  c #CF5948",
"{  c #C5785D",
"}  c #C27C64",
"|  c #D07B6A",
" . c #938175",
".. c #AB846A",
"X. c #B98668",
"o. c #B68973",
"O. c #B8947B",
"+. c #AA8775",
"@. c #C88A6B",
"#. c #D5896B",
"$. c #C58976",
"%. c #C89778",
"&. c #DA9C75",
"*. c #D79877",
"=. c #D19171",
"-. c #E39C79",
";. c #E0886A",
":. c #D9A07A",
">. c #E8A67C",
",. c #F4AE7E",
"<. c #5A7488",
"1. c #467891",
"2. c #687786",
"3. c #767B85",
"4. c #6A7D93",
"5. c #897E85",
"6. c #388CB7",
"7. c #3D93BB",
"8. c #3B95B8",
"9. c #318AB3",
"0. c #1D86B3",
"q. c #53829A",
"w. c #74848F",
"e. c #458AAA",
"r. c #4594BB",
"t. c #4A94BB",
"y. c #4C9ABC",
"u. c #4598B9",
"i. c #559ABA",
"p. c #4A8EAF",
"a. c #649CB7",
"s. c #6E93AA",
"d. c #5AA3BD",
"f. c #4CA1BF",
"g. c #68A5BC",
"h. c #75A1BC",
"j. c #3D9AC7",
"k. c #3FA2C9",
"l. c #4D9CC3",
"z. c #479AC6",
"x. c #539CC3",
"c. c #569CC5",
"v. c #4DA2C5",
"b. c #4DA2CC",
"n. c #44A2C8",
"m. c #54A2C4",
"M. c #5CA4C5",
"N. c #53A4CB",
"B. c #5BA5CB",
"V. c #55ABCD",
"C. c #5CAACC",
"Z. c #58A9C5",
"A. c #54A5D1",
"S. c #55ABD3",
"D. c #5CACD2",
"F. c #59ABD7",
"G. c #5CB2DA",
"H. c #5BB3D7",
"J. c #51ACD1",
"K. c #61A6CB",
"L. c #63ABCC",
"P. c #69AAC9",
"I. c #63ADD3",
"U. c #67AAD4",
"Y. c #64B3D4",
"T. c #6CB4D4",
"R. c #67B6DA",
"E. c #72BCDD",
"W. c #76B9D7",
"Q. c #72ADC9",
"!. c #5AB7E5",
"~. c #66B9E3",
"^. c #76BDE3",
"/. c #639FC3",
"(. c #79C1DC",
"). c #66C1DE",
"_. c #79C3E6",
"`. c #6FC2E5",
"'. c #898384",
"]. c #958788",
"[. c #8D9097",
"{. c #AD9290",
"}. c #BCA295",
"|. c #8C98A5",
" X c #A99DA8",
".X c #9AA7A9",
"XX c #97A5B2",
"oX c #85A3BA",
"OX c #B5A7A8",
"+X c #ADADB5",
"@X c #C79B84",
"#X c #CC9889",
"$X c #E49981",
"%X c #DAA689",
"&X c #D7AA98",
"*X c #CAA696",
"=X c #E4A483",
"-X c #EAA987",
";X c #ECB28C",
":X c #F7B689",
">X c #E5AB96",
",X c #EAB698",
"<X c #F4BB94",
"1X c #FBBE95",
"2X c #F4B897",
"3X c #F3AC91",
"4X c #D7B2AA",
"5X c #CFB0AA",
"6X c #E9BAA8",
"7X c #EDBEAC",
"8X c #FCC195",
"9X c #FCC49B",
"0X c #FCC99E",
"qX c #F4C2A4",
"wX c #FBC6A5",
"eX c #FCCCA3",
"rX c #FBCCAB",
"tX c #F6C6A7",
"yX c #FCD3AD",
"uX c #FED0A5",
"iX c #E8C5BC",
"pX c #F4C9B8",
"aX c #FCD5B2",
"sX c #FCD8B3",
"dX c #D7C1BE",
"fX c #91B5CA",
"gX c #B2BDC7",
"hX c #D5BDC1",
"jX c #B9C6D4",
"kX c #86CBEB",
"lX c #98C7DC",
"zX c #D4C8CD",
"xX c #E7C8C8",
"cX c #F9D2C6",
"vX c #ECD3D8",
"bX c #F6D6D6",
"nX c #F0CBC6",
"mX c #F5DBE3",
"MX c #D3D3E2",
/* pixels */
").u.p.m.b.n.F.Y.B.D.A.6.c.W.fX[.].]._ ]. . . .( ( ( H b b G s.Z.l.z.n.G.N.E.E.Z.j.b.D.r.x.m.E._.",
"D.y.d.E.F.6.7.Z.Z.D.G.c.h.[._ ]._ J J H j q t 2 1 5 t b t 2 t G q.z.k.S.l.I.M.p.N.A.l.t.^.R.C.R.",
"C.T.W.L.A.b.N.L.f.y.a.|.'.].H _ G j 4 5 % $ % . o % % 2 k < % q 4 F d.J.y.B.c.l.B.~.I.B._.B.r.R.",
"M.kXW.K.N.A.I.W.Y.s.'._ '.H c G c t 5 1 = < < % $ & 1 2 2 t . . $ % 4 e.Z.I.C.D.M.E.^.I.C.6.7.~.",
"y.P.W.E.F.6.p.W.fX].'.J H q & q j j j q q t k q 1 < = 2 2 4 = $     . 4 s.^.T.m.C.C.C.B.t.r.l.v.",
"c.c.M.D.G.J.l.s.'.G J k 5 = 2 b M n u b u 8 2 t y q 2 = $ % < 6 $ X $ 2 x h.^.Y.Z.y.B.I.y.D.G.z.",
"A.D.m.8.j.!.T.3.x j j < 2 u ) @X%X%.o.%.%.%...' ) W n u w 9 - $ o X . & 9 B g.(.V.V.C.^.B.B.D.Y.",
"z.N.G.n.0.9.s.J q 4 & 2 W %.,XrXyXyXyXyXyXyXyXqX,X%X%.X.X.X.~ i 0 * X . = 2 S d.G.H.m.I.C.m.t.Y.",
"Z.u.v.V.x.h.3.G c q v ) %XwXyXaXaXaXaXaXsXsXsXyXeXeX<X-X;X:X:X-X:.^ p O o % 4 p.g.(.W.M.B.D.z.6.",
"_.v.8.v.U.s.A m m N ) @XqXrXrXrXyXyXyXyXyXsXsXyXeX0X0X9X9X9X8X8X1X:X&.P O o = V i.T.W.M.x.B.F.F.",
"E.D.V.z.r.4.G x k M ) &XrXrXrXwXeXeXeXeXeXeXeXeXeX0X0X0X9X9X9X9X8X1X:X&.p X % s e.Z.Z.y.y.l.N.H.",
"K.B.S.N.x.4.C 4 k b  .,XrXrXrXwXwXwX0X9X8X9X9X9X9X0X0X0X9X9X9X8X8X1X:X,.@.& $ < p.f.u.x.B.l.y.D.",
"I.D.V.m.c.4.Z j k b  .&XwXwXwXwXwXwX9X1X1X8X1X1X1X1X9X9X9X9X9X8X1X:X:X,.>.u . ; d.N.y.C.R.m.N.`.",
"D.D.V.m.M.2.l l x B N O.qXwXwXwXwXwX0X9X9X0XeX0X0X9X1X1X1X1X8X1X1X:X,.,.>.~ % 3 C.C.Z.C.B.l.D.kX",
"b.u.u.L.kX4.Z z z A b ..,XwXwXwXwXwX0X0X0X0X0XeXyXrXeX0X0X9X9X9X8X1X:X,.>.=.8 f m.I.L.y.t.l.S.~.",
"F.V.v.M.P.<.Z s z C m ' >XtXtXtXwXwX0X9X9X1X1X8XeXeXeXeXeXeXeXeX0X8X:X;X>.&.y 1.M.^.E.x.x.I.A.7.",
"fXP.i.E.K.<.l a Z A _ {.6XpXpXtXtXqXtXtX<X<X;X-X:X1X9XeXeXeXeX0X9X8X:X;X>.:.u g c.(.E.y.y.H.F.j.",
"kXW.Q.E.T.s.V l D 5.OXxXnXdX` N m k k b ( ` +.+.o.:.;X1X9X9X<X<X<X<X8X:X>.&.y g R.C.m.M.C.N.b.!.",
"I.K.c.T.T.s.S C 3. XMXMXMX+X4 1 $ X ; z [.3.+Xw.x c N ) o.O.o.o.+.O.@X%.%.%.y q.l.D.D.B.Y.R.N.7.",
"Y.l.y.T.^.h.J D [.gXjXgX5X4X( 1 + > z S S C XX|.2.D s % < j l J J S l z x B G <.i.y.r.y.C.m.y.C.",
"G.z.r.t.c.a.2.[..XOX5X6X,X6X}.a + # # @ @ ; l w.w.|.V w 0 < 3.XXw.4.z 2.F s .X.XG D e.t.C.Y.Y.T.",
"J.F.D.t.K.Q.3.G m 5XcXcXcX6X}.d X + # X X @ ; 3 > d 4 R I & J 3.3.D a D 2.J w..XS D C.l.I._.E.m.",
"9.z.D.h.*X5X` k [.zXbXcXpX,X}.j           X @ # > X 9 %X%X9 3 > # # ; s <.D D w.S p.x.x.B.B.L.E.",
"j.n.T.| [ >X>X{.OXvXbXpXrXwX,Xb $ X           ; ; o Y 0XyX..% > X   > <.<.<.s.w.V i.c.t.l.C.I.I.",
"D.T.XX[ [ $X$X>XhXmXbXcXrXeXuXO.2 $ X     + % < % 8 *.rXaX%X2 #     @ 3 1 3 3 3 f B.I.R.u.v.S.~.",
"V.E. XL | #.-.6XxXmXbXcXaXyXrXtXO.N y 2 < 5 4 j w ] 9XaXaXeXb # X     + % 4 5 > 1.I.m.l.v.H.b.7.",
"y.L.{.[ $X;.| >XvXmXmXbXcXrXwX9X9XqX,X%X%.' ' $.$.;XrXaXsXyX%.* % $ + % : k 4 f L._._.Z.Y.R.F.v.",
"r.m.{.#.;.[ U 6XvXmXmXmXcXqX,X-X;X2X1X9X2X-X-.*.,XrXrXrXaXrX2XT i e w w u N _ g.r.R.`.y.Z.l.B.R.",
"B.L.OX3X| U #.iXxXmXmXmXnX6X>X,X2X2X3X-X-X-.#.=X7X>X>X-X3X;X-X=.} { } } @.%X&Xa.r.m.m.e.M.y.x.I.",
"I.T.gX2X-X{ *.iXxXvXmXbXpX7XqXqX2X-X>.>.-.;.#.@.} i u ] #.~ ! $X*.*.=.=.=.%X*Xq.D.D.m.m.Y.C.B.T.",
"B.L.fX6XqXrX7XiX5XdXbXbXnXpXtX7X3X=X-.-.-.-.*.} I i n ! / Y p =.=X=X=X&.&.%X}.a.S.D.C.Y.L.T.L.T.",
"B.d.Q.zXaXaXyX4X{.*XxXbXnXpX7X,X=X-.-.>.-X-X;X*.Y 7 8 r Y p Y =X-X-X=X=X&.:.{.P.N.V.Z.Y.L._.W.K.",
"V.Z.m.fXiXtX3X#X].{.5XnXpX7X6X,X=X&.&.&.-X,X,X%.W 8 * e e - n *.,X-X=X=X&.*.[.kXH.7.t.I.K.N.F.G.",
"L.m.M.I.Q. X[. X{.].}.iX7X6X6X>X%X*.@.X.X...~ X.~ R E E i i n ' X.X.@.*.&.%.[.g.7.v.I.I.B.B.N.j.",
"W.P.T.^.I.v.n.g.{.].{.5X4X&X&X&X#X$.Y e e e ! @.} / / #.=.} ] X.Y 0 p ] &.@.].d.9.N.D.l.c.D.F.b.",
"_.L.T.^.Y.H.S.i.]._ {.5X}.@X*X&X%X$.e 7 e P Y I I K r K I T T T Y 0 - R &.X.'.T.z.v.r.y.B.D.S.~.",
"R.f.Z.D.y.t.D.U.|._ {.{.{.+.o.#X&Xo.e p e e i ! $.#X#X] } $.$.E Y Y 0 ~ %.) q.N.A.S.N.B.D.l.z.G.",
"R.u.u.C.v.p.x.U.XX'.5.` ` ) ) ' %.~ Y R Q ^ =.=X-X-X3X3X3X3X-X-X=XX.R %.~ b e.7.C.~.E.M.t.t.c.I.",
"T.Z.m.C.V.l.z.c.oX5.J H W W n W ' Q ~ @.&.>.>.=.} ^ Q Y T ~ @.=X<X%.~ ..u k t.z.K.W.E.M.y.M.E.T.",
"/.kX_.v.8.n.J.H.fX].H H m b u n W Y Q @.>.>.-X*.^ I 0 * - i =.;X<X:.R i 2 F I.B.P.K.L.T.T.(._.P.",
"B.R.I.N.V.C.Z.d.a.OXH c c c v v n n Y R @.&.&.&.#.^ 0 - 7 R -X:X-X%.Y 8 5 i.V.R.K.I.y.V.H.D.z.^.",
"B.N.r.v.D.B.K.kXP.hX{.k k c k v v q 8 w R *.-X;X-X&.Q P P %.2X<X:.W 0 & d m.Y.L.m.m.N.S.6.B.Y.A.",
"V.R.b.z.A.c.K.^.T.zX4X( 4 4 q w 9 : & 9 i ..&.;X2X-X=.! R %.;X%X~ 9 O % 1.P.T.i.N.B.z.v.z.z.z.~.",
"m.`.R.l.N.c.z.U.C.jX7X{.M < < 4 4 ; $ < 2 u W ' $.@.X.! Y ~ X.~ w % . h T._.T.P.R.R.z.z.F.7.9.~.",
"i.M.K.I.D.z.7.!.v.gXiX*Xo.u < 1 3 % $ % & 2 2 8 w i P i 0 u u 9 & X , 9.C.T.T._.~.D.D.F.v.b.A.j.",
"i.P.U.K.l.u.j.n.z.fXxX&X$.~ v 1 ; # X + $ % $ O o & - - & & O $ . + g H.v.y.C.R.C.l.c.D.`.Y.S.b.",
"B.E._.m.u.D.F.6.C.jXxX4X#X] Q i & + + @ @ + X         X           h r.~.S.r.v.F.L.x.e.c.kXI.l.`.",
"H.V.Y.T.P.E._.K.lXzXxX4X#XX.! T p - $ + X                       & a.I.A.F.A.z.~.kXL.c.i.L.B.R.D."
};
