/* XPM */
static char *_37686ac51f8414df601ba21705c8813guLYaa3hbLtoDRdx[] = {
/* columns rows colors chars-per-pixel */
"48 48 234 2 ",
"   c #0C0C1A",
".  c #02081A",
"X  c #130E1A",
"o  c #1B131D",
"O  c #2A191E",
"+  c #191926",
"@  c #10182A",
"#  c #2B1B24",
"$  c #182436",
"%  c #3B2428",
"&  c #282A39",
"*  c #312D36",
"=  c #4A2927",
"-  c #542C29",
";  c #59332D",
":  c #593637",
">  c #472E33",
",  c #67382C",
"<  c #723D2E",
"1  c #683835",
"2  c #793835",
"3  c #421A24",
"4  c #7D4331",
"5  c #75433A",
"6  c #7F432F",
"7  c #1B334A",
"8  c #152E46",
"9  c #27374A",
"0  c #343A49",
"q  c #273D53",
"w  c #272E40",
"e  c #463F42",
"r  c #2B4459",
"t  c #35485B",
"y  c #374D62",
"u  c #285773",
"i  c #2E5068",
"p  c #3E657F",
"a  c #564948",
"s  c #474B56",
"d  c #5D565F",
"f  c #6C535D",
"g  c #744D48",
"h  c #505D6E",
"j  c #695662",
"k  c #4D6578",
"l  c #686F7A",
"z  c #89302F",
"x  c #A83D34",
"c  c #E73F29",
"v  c #854937",
"b  c #A1463E",
"n  c #B34538",
"m  c #DB402F",
"M  c #D74939",
"N  c #E8432E",
"B  c #E6412C",
"V  c #E64D39",
"C  c #E0503C",
"Z  c #905645",
"A  c #AB5945",
"S  c #AA6A55",
"D  c #876965",
"F  c #91717B",
"G  c #D25E4C",
"H  c #E55A48",
"J  c #E97969",
"K  c #EA7F71",
"L  c #E16353",
"P  c #978678",
"I  c #B58D79",
"U  c #D78C58",
"Y  c #D7997B",
"T  c #DD8276",
"R  c #E4957A",
"E  c #DFA07E",
"W  c #356F8C",
"Q  c #216D99",
"!  c #5A7287",
"~  c #477591",
"^  c #69798A",
"/  c #457BA5",
"(  c #837F8B",
")  c #3788AB",
"_  c #2A8BB6",
"`  c #388CB6",
"'  c #3C94BB",
"]  c #3A96B8",
"[  c #2E85A6",
"{  c #1D86B3",
"}  c #48819B",
"|  c #788A9B",
" . c #708A97",
".. c #4489A9",
"X. c #4892AE",
"o. c #438DB3",
"O. c #478CB7",
"+. c #4392B3",
"@. c #4B94B5",
"#. c #4594BB",
"$. c #4A95BB",
"%. c #449ABC",
"&. c #4B9ABC",
"*. c #4899B5",
"=. c #5395BA",
"-. c #539CBC",
";. c #5B9DBC",
":. c #5496B6",
">. c #548DA8",
",. c #48A1BD",
"<. c #59A3BD",
"1. c #55A4BA",
"2. c #63A6BC",
"3. c #6096BA",
"4. c #3D95C2",
"5. c #3B9BC8",
"6. c #3B8CC1",
"7. c #3FA2C9",
"8. c #459AC4",
"9. c #4C9CC3",
"0. c #4B9DCA",
"q. c #4797C4",
"w. c #539CC3",
"e. c #5B9EC2",
"r. c #559DC9",
"t. c #619EC8",
"y. c #44A3C4",
"u. c #4DA3C5",
"i. c #4DA2CC",
"p. c #4AA7CA",
"a. c #54A2C4",
"s. c #5BA4C5",
"d. c #54A9C5",
"f. c #5BA9C5",
"g. c #54A4CB",
"h. c #5BA5CB",
"j. c #54ABCD",
"k. c #5CAACC",
"l. c #5AB2CE",
"z. c #4AA7D4",
"x. c #54A5D1",
"c. c #5BA5D2",
"v. c #55ABD3",
"b. c #5CACD3",
"n. c #55ADDA",
"m. c #5DAED9",
"M. c #55B4D4",
"N. c #5CB2D5",
"B. c #5CB3DB",
"V. c #5AB7DB",
"C. c #62A5C4",
"Z. c #6AABC5",
"A. c #62A5CB",
"S. c #63ABCC",
"D. c #6AADCC",
"F. c #67A7C7",
"G. c #72AEC8",
"H. c #69B2CC",
"J. c #74B4CD",
"K. c #63A6D2",
"L. c #63ACD3",
"P. c #6BADD2",
"I. c #63ADDB",
"U. c #64B3D4",
"Y. c #6CB4D4",
"T. c #64B4DB",
"R. c #6BB4DA",
"E. c #64BADC",
"W. c #6CBADC",
"Q. c #69BAD5",
"!. c #72B5D3",
"~. c #74BAD5",
"^. c #73BBDC",
"/. c #7BBDDB",
"(. c #75B7DA",
"). c #70AFD2",
"_. c #5CB6E4",
"`. c #61B5E4",
"'. c #6DBCE2",
"]. c #66B9E4",
"[. c #74BDE2",
"{. c #78BBE3",
"}. c #7BC1DD",
"|. c #77C2DB",
" X c #68C1D9",
".X c #6EC1E4",
"XX c #74C2E4",
"oX c #7DC3E3",
"OX c #7CC6EB",
"+X c #909193",
"@X c #B3968B",
"#X c #B8A79B",
"$X c #9C9DA4",
"%X c #9AA4AF",
"&X c #A6A6A9",
"*X c #B8BABE",
"=X c #AEB1B6",
"-X c #9DA19A",
";X c #C89991",
":X c #E89C89",
">X c #D4B096",
",X c #E7A886",
"<X c #F0BB99",
"1X c #ECB296",
"2X c #C9BAB6",
"3X c #D6BBB6",
"4X c #CCB3A5",
"5X c #F1B6AE",
"6X c #FFC195",
"7X c #D9C3B3",
"8X c #F6CBA8",
"9X c #F2C8BB",
"0X c #FBD8B5",
"qX c #ECC6AA",
"wX c #84B9D3",
"eX c #B0BBC4",
"rX c #81BDE6",
"tX c #B9C2C9",
"yX c #BECAD3",
"uX c #85C7E6",
"iX c #8BD2F0",
"pX c #AFD9EB",
"aX c #D0CFD0",
"sX c #EADBDA",
"dX c #F8D8D3",
"fX c #F1D2C9",
"gX c #FBE5D8",
"hX c #ECE0D2",
"jX c #C9E1ED",
"kX c #DDE8EF",
"lX c #E8F3F8",
"zX c #FEFDFD",
"xX c #F3F6F7",
"cX c #FCE9E5",
/* pixels */
" X*.X.a.i.i.n.U.h.b.x.` r.(.iX2.4.i.w.~./.S.k.8.O.U.j.k.P./ A.j.0.8.y.V.g.W.W.f.' u.b.#.w.a.^.oX",
"l.*.<.W.n.` ' f.f.m.B.i.g.f./.Z.g.g.w.Y.Y.s.s.9.I.v.] g.K.O.g.B.g.y.7.v.9.I.s.+.g.x.9.$.[.R.k.U.",
"k.Y.!.S.x.i.g.S.&.&.g.v.v.&.k.s.S.P.s.d.h.k.Y.S.c.v.y.i.c.'.I.i.9.M.M.M.8.h.r.9.k.'.L.h.OXk.#.E.",
"s.uX/.A.g.x.L.~.H.-.o.w.h.w.h.w.G.uXR.9.q.U.}.J.r.g.j.a.g.iXR.r.s.U.M.p.g.K.h.b.h.^.[.L.h.` ' ].",
"-.F.!.^.m.` o.!.iX!.=.e.t.K.(.L.G.~.[.v.0.k.H.J.Q.-.C.S.-.Y.s.P.^.k.] ] U.{.R.g.k.k.k.h.$.#.0.i.",
"r.w.s.b.B.z.9.s.).!.F./.P.P.R.L.;.-.L.T.b.9.&.U.Q.s.(.!.-.f.;.F.R.&.] %.U.(.[.Y.k.&.h.I.$.b.B.0.",
"x.b.a.' 5._.'.a.-.C.S.uXU.k.d.d.9.o.h.k.h.9.q.B.j.a.{.'.j.p.d.=.h.#.j.j.k.-.!.|.j.j.k.[.h.h.b.U.",
"8.g.B.p.{ _ z.k.XXQ.a.W.d.%.,.p.n.x.L.@.+.k.pXaXaXwXr._.z._ i.I.I.%.N.U.a...;.<.B.N.a.I.h.a.$.U.",
"d.%.u.j.w.F./.D.y.p.0.4.z.z.' r.8.W >.J.G.jXxXK T xXpX!.wX>./ 0.6.I.w.L.b._ 5.`.2.|.~.s.h.b.0.` ",
"XXu.' u.L.rXoX-.] j.b.8.p.y.q.[.W $ +XxXxXfX5XH L 5XfXxXxX&X& W ` L.;.=.0.8.x.g.-.~.~.s.w.h.b.n.",
"^.b.j.8.O.r.T.j.d.N.I.g.v.B.b.oXr $XxXzXxXJ B N N B K zXzXzX&Xq g.R.D.:.#.x.m.d.+.d.f.&.&.9.g.N.",
"A.k.v.g.9.x.i._ d.k.S.w.u.j.a.P.r aXzXzXzX9X1XH H 1X9XzXzXzXaXr a.s./.~.k.9.#.@.u.,.%.w.h.9.&.v.",
"L.b.j.a.r.c.v.5.,.S./.S.&.%.#.s.r tXlXaX2X3X3X:X:X3X3X7XkXlXyXt U.s.).(.L.0.9.S.E.j.9.b.T.a.g.XX",
"b.b.j.a.s.L.m.M.j.U.oXY.k.j.u.9.q h ^ D 6 < - ( @Xv 6 Z ^ ! k q k.k.;.-.h.B.'.|.U.k.d.k.h.9.v.iX",
"i.%.%.S.uXrXw.[ p.w.S.f.k.V.i.` 8 . = 4 4 < O X # ; 4 4 , %   8 [ a.@.w.m.n.b.-.a.L.S.-.$.9.v.].",
"n.j.u.s.F.3.:.a.' &.P.S.f.V.v.0.7 % 4 4 < = - 1 1 - , 4 4 4 = 7 y.XXa.g.x.' g.U.s.{.R.=.w.I.x.' ",
"wXZ.;.}.C.@.X.Q.v.] ' `.g.w.;.!.9 , v 4 = = , Y ,XA = , 4 4 , 9 s.H.Q.d.v.4.8.j.w.^.^.&.&.N.n.5.",
"uX/.D./.Y.Y.H.|.B.] ) q.q.a.P./.r ; 4 < v S ;X8X0XE A = - < , w s.C.C.f.R.b.9.o.U.k.a.s.k.g.i._.",
"L.A.e.U.Y.R.A.s.N.g.v.b.c.h.L.f.7 - ; o Z <X0X0X0X0X<XS O o = 9 e.~.uXoXK.K.A.A.9.v.b.s.U.T.g.' ",
"T.9.&.Y.{.R.A.A.Q.W.OXb.r.$.L.b.t + o # # e qX0X0XqXa % g     7 L.U.H.S.@.c.c.a.B.u.+.&.k.a.-.k.",
"B.8.` $.e.s.K.I.&.k.XXh.w.$.b.g.-X* g 2Xw + aX0X0XfX* $ =X+ o 7 0.d.1.f.+.g.j.u.i.8.` $.h.L.U.Y.",
"z.n.b.$.s.Y.[.L.) #.L.L.L.h.x.' +X* Z fX0 $ aX0X0XhX0 & *X& 1 0 _ u. X|.k.j.j.M.) b.b.9.L.OX^.a.",
"_ 0.b.@.C.S.k.` v.g.a.S.e.A.b.c.s   : >XI I 0X0X0X0X@XI >X+ X s 0.&.1.H.OXE.p.] N.h.w.w.h.h.S.^.",
"5.y.U.f.~.H.k.%.v.j.L.{.F.A.h.A.a X o U 6X0X8X,X:X8X0X6XU +   a t.h.2.2./.h.%.,.*.k.r.$.9.h.L.L.",
"b.Y.Z.F.XX'.S.C.f.s.A.oXY.R.g. ., X X v Y <X0X,X,X0X<XE v     ; ^ R.C.s.g.' p.d.o.h.L.U.#.u.v.].",
"j.^.~.S.k.d.s.J.$.-.s.P.S.L.o.r o . . . - g Y 8X8XY 5 ;   . . X q ..-.S.N.i.B.U.h.L.a.9.u.N.i.' ",
"&.S.J.s.&.8.k.oXk.d.s.&.&.8.X.u u u i t k t = a a = w k t 7 u u u =.^.XXj._ #.d.L.OXXXf.U.T.b.u.",
"#.s.2.-.&.u.U.}.k.f.XXT.b.#.j.b.q.#.~ eXjX| v Z Z 5 h jXtXk #.V.r.k.R.|.i.' %.k.#.W.XX-.f.9.g.T.",
"g.S.D.s.8.8.g.s.k.N..Xk.b.g.T.k.d.! 2X$XtX&XS <X8XP l aX+XaX! h.g.o.@.k.B.n.g.-.#.a.a.o.s.&.w.L.",
"L.Y./.Q.9.4.9.a.Q.U.g.) #.W.OXk.} 2 L 1 *XsXg @X#Xj | =X: G z ~ m.+.-.j.z.n.8...b.b.d.a.U.k.f.R.",
"k.S.~.U.q.8.v.k.k.h.9.9.g.[.R.-.} : z 3 *XcX;X$X=XF $XaX% z 1 ~ g.$.L.j.4.z.d.;.x.m.k.U.S.U.D.P.",
"k.<.C.s.q.i.B.k.U.w.o.b.9.g.e.D.<.| A = %XaXL 3X3XT aXeX> b ^ &.W.a.U.u.` n.R.D.g.j.d.U.S.oX(.F.",
"l.d.a.f.R.P.h.r.uX/.Z.) 4.z.b.>.>.| ,X; q | z 2 2 z ^ t % Y | W.iXG.e.K.I.s.).iXB.' $.L.A.h.b.B.",
"S.s.s.L.h.$.9.T.S.Z.Z.s.0.z.b.C.W P 1X-   j f f f f & . % ,XP ~ 2.|.^.9.#.L.Y.2.] u.L.L.h.h.g.4.",
"/.F.P.{.I.u.y.5.u.s.F.uXI.B.g.U.t >X<X: ^ sXsXsXsXsX%X! > ,X>Xr 1.Q.R.g.q.r.s.1._ g.b.w.r.b.n.i.",
"oXD.Y.[.U.N.v.` j.k.A.rX{.b.8.p.y 4X<X: *XcXK J J K sXyX> ,X4Xr H.d.u.b.v.q.9.U.8.0.#.$.k.b.v.`.",
"Q.,.d.b.&.$.c.K.p.x.L.A.P.$.%.y.y aX&Xd aXdXV B c V dXaXs eXaXy l.g.9.u.v.v.j.g.x.v.g.h.b.9.8.m.",
"E.+.%.j.9.o.w.K.8.z.n.q.F.:.a.v.i 4XD ^ xXdXV N N V dXxX&X4X#Xy d.9.*.a.L.m.u.' h.'.W.s.&.$.r.L.",
"Q.f.d.k.j.9.q.r.u.i.5.8.!.G.f.`.e.D 5 $XzXdXV N N V dXzX*Xg h ..k.&.&.D.^.S.9.9.A.Y.^.s.*.s.^.R.",
"t.uXOXu.] y.v.M.b.5.Q y.oXuXe.c.4.W 0 3XdX5XV N N V 5XdX4Xt :.S.h.s.F.!.~.Y.L.c.F.s.D.!.Y.}.oXF.",
"s.R.L.g.j.k.f.<.+.f.k.U.U.S.s.) $.o.0 x M C m m m m C H x y Y.w.u.v.0.8.N.N.j.E.A.L.&.j.N.v.8.[.",
"k.g.%.u.m.h.A.uXf.d.a.h.h.k.R.S.g.0.u # - A n z z n G A % p s.S.T.#.#.r.$.a.U.S.a.a.g.v.` g.T.c.",
"l.E.p.q.x.r.t.{.U.d.f.[.U.L.XXU.b.v.g.9 A ,XR 2 < R ,XS 0 s.!.Z.c.9.r.s.w.D.!.;.g.g.8.u.8.8.8.].",
"d..XT.9.g.r.q.I.k.a.U.OXU.k.R.$.k.U.d.9 S gX9X5 1 qXgXS 7 s.iXJ.8.].L.w.Y.oX!.Z.T.T.q.0.n.' ` ].",
"=.s.A.L.m.q.' _.u.&.f.U.&.&.k.o.D.uX;.r @XgXdXD f fXgX;Xq s.!.}.j.B.u.#.k.Q.Y.}.'.v.m.b.u.i.x.4.",
"=.F.P.f.9.%.5.7.8.9.k.U.9.r.U.&.F.}.X.9 2 b b ; - b b z 9 P.X.C.M.) ] M.u.%.k.E.k.9.r.b.XXT.v.p.",
"k.^.XXs.@.b.B.` j.v.N.'.m.g.L.h.h.b.#.r $ $ $ $ $ $ $ $ i ).&.%.v.` 9.].v.#.u.n.S.-.o.w.iXI.9..X",
"M.j.U.Y.S.{.oXK.T.B.j.N.d.+.r.b.`.i.n.n.0.) e.C.U.&.*.}.wXF.Q.j.k.W.L.x.m.x.0.`.iXS.e.=.S.f.R.b."
};
