/* XPM */
static char *ddff2fa833f44de1b639746099384f05[] = {
/* columns rows colors chars-per-pixel */
"48 48 256 2 ",
"   c #47704C",
".  c #2E4262",
"X  c None",
"o  c #6C4564",
"O  c #6C5772",
"+  c #D5AB9C",
"@  c #796588",
"#  c #3F2F51",
"$  c #D1B7E4",
"%  c #3A446C",
"&  c #956566",
"*  c #874861",
"=  c #424059",
"-  c #D49789",
";  c #5B3654",
":  c #604B6A",
">  c #B07672",
",  c #9B7F98",
"<  c #AE6468",
"1  c #765A7B",
"2  c #B58E88",
"3  c #765365",
"4  c #877875",
"5  c #C89D91",
"6  c #F1CDBC",
"7  c #745167",
"8  c #D2AA9B",
"9  c #D18D7D",
"0  c #C7A3CD",
"q  c #90668B",
"w  c #AD789B",
"e  c #994858",
"r  c #BE839A",
"t  c #C281A2",
"y  c #D0BFD1",
"u  c #AF96BE",
"i  c #986369",
"p  c #C38F8B",
"a  c #957BA8",
"s  c #D18676",
"d  c #8A4A76",
"f  c #954373",
"g  c #15747F",
"h  c #BF789F",
"j  c #ECC5B4",
"k  c #D8CED7",
"l  c #A9878F",
"z  c #A594B3",
"x  c #C18478",
"c  c #A393A9",
"v  c #BFB4C3",
"b  c #89546D",
"n  c #B67C71",
"m  c #A0726D",
"M  c #946164",
"N  c #C17579",
"B  c #DBB5A6",
"V  c #ECE6EB",
"C  c #B79A93",
"Z  c #B26B96",
"A  c #C1B8C6",
"S  c #A37E7A",
"D  c #7E6179",
"F  c #AC7577",
"G  c #D08F81",
"H  c #9D8280",
"J  c #CEB370",
"K  c #805065",
"L  c #D8A393",
"P  c #E7B5B0",
"I  c #AB6A61",
"U  c #B7756D",
"Y  c #9D7C98",
"T  c #B6656C",
"R  c #7D394A",
"E  c #866C92",
"W  c #CF9C95",
"Q  c #A7575D",
"!  c #AD5C6F",
"~  c #AE90AA",
"^  c #A14A57",
"/  c #9F4749",
"(  c #BE7990",
")  c #D1B76F",
"_  c #CB8296",
"`  c #A46D65",
"'  c #C17E73",
"]  c #96749C",
"[  c #BA8EAA",
"{  c #DED0DB",
"}  c #8A4775",
"|  c #8B7A97",
" . c #CBB4C7",
".. c #A997B1",
"X. c #BF85A9",
"o. c #863D6A",
"O. c #7A3C68",
"+. c #873D68",
"@. c #CB8B7F",
"#. c #EEC6B5",
"$. c #B8A4CC",
"%. c #9F4472",
"&. c #918281",
"*. c #D8A69A",
"=. c #C9BCC9",
"-. c #D29293",
";. c #E3AEB4",
":. c #D28C8F",
">. c #B68A7F",
",. c #A75E69",
"<. c #BF847A",
"1. c #C5767D",
"2. c #D9ADA0",
"3. c #DDB5A8",
"4. c #B15A6C",
"5. c #E4BDAD",
"6. c #CE85A1",
"7. c #DDB0A3",
"8. c #E3BEB5",
"9. c #B880A4",
"0. c #BA565F",
"q. c #CEA9B7",
"w. c #AFA4AA",
"e. c #EEC3D7",
"r. c #B66A7E",
"t. c #B95E68",
"y. c #A55C5F",
"u. c #917B4D",
"i. c #D97F84",
"p. c #C04E58",
"a. c #CDAA9D",
"s. c #D07179",
"d. c #B586AC",
"f. c #AA5E5A",
"g. c #99595B",
"h. c #A35D77",
"j. c #A56969",
"k. c #BE95A7",
"l. c #917577",
"z. c #493A53",
"x. c #8F7E9E",
"c. c #AD658A",
"v. c #AF7370",
"b. c #523E32",
"n. c #A06088",
"m. c #8C737C",
"M. c #B39394",
"N. c #CABACD",
"B. c #C1B1C6",
"V. c #8B524A",
"C. c #AE716F",
"Z. c #9B6A7D",
"A. c #C7ACBA",
"S. c #AA7D94",
"D. c #B397C1",
"F. c white",
"G. c #EDAD9E",
"H. c #F7F3F4",
"J. c #DABCCF",
"K. c #E69EC1",
"L. c #FDDBC8",
"P. c #FCD8C6",
"I. c #D179A7",
"U. c #E396B8",
"Y. c #E7A596",
"T. c #F9D4C1",
"R. c #F5C8B6",
"E. c #EEBAA9",
"W. c #DE9A8A",
"Q. c #EFE9EF",
"!. c #C98EB8",
"~. c #D6ABAF",
"^. c #D28A7C",
"/. c #CF8374",
"(. c #FBF9FA",
"). c #EDAA9A",
"_. c #D58AA7",
"`. c #C57C6B",
"'. c #C085B9",
"]. c #C8B2D7",
"[. c #BE7298",
"{. c #CB7D78",
"}. c #DE9387",
"|. c #C4ADB6",
" X c #C194AD",
".X c #F3EEF4",
"XX c #F49B9C",
"oX c #BFABD0",
"OX c #E8D6C9",
"+X c #D16267",
"@X c #E4DAF1",
"#X c #DFAC60",
"$X c #DA91AF",
"%X c #D5B3D5",
"&X c #FEDFCB",
"*X c #E49FBA",
"=X c #B35385",
"-X c #CA6FA0",
";X c #DD84B0",
":X c #B2618B",
">X c #DBCFE2",
",X c #D19AB9",
"<X c #D4A2BF",
"1X c #E3A39E",
"2X c #EAA2C4",
"3X c #C778A9",
"4X c #E7B3A0",
"5X c #BF6A71",
"6X c #DB9BA1",
"7X c #ED9091",
"8X c #C3A7C6",
"9X c #AC7A75",
"0X c #C09C6A",
"qX c #B78D5C",
"wX c #C7B2B0",
"eX c #DD6970",
"rX c #ECA5C5",
"tX c #C3786D",
"yX c #C2726F",
"uX c #F4D679",
"iX c #D09750",
"pX c #DCBDB1",
"aX c #E3CD78",
"sX c #C6C0C7",
"dX c #FCBCD8",
"fX c #E8D6E1",
"gX c #F4B1D0",
"hX c #F2BDD5",
"jX c #A84C7D",
"kX c #D68E88",
"lX c #FFDFCC",
"zX c #D28393",
"xX c #E9E0D5",
"cX c #C6B0CE",
"vX c #F7A4A4",
"bX c #E2AAA7",
"nX c #B08A98",
"mX c #D1BCD5",
"MX c #C9A382",
"NX c #F7D1BE",
"BX c #CFA669",
"VX c #EE9293",
"CX c #9C556E",
"ZX c #CA9181",
"AX c #C7555B",
"SX c #9B7D80",
"DX c #AC6742",
"FX c #F09798",
"GX c #E07076",
"HX c #FCBFDA",
"JX c #695A56",
"KX c #D3BED3",
"LX c #E1C8CE",
"PX c #DCC7EE",
"IX c #D69794",
"UX c #C9A0B2",
/* pixels */
"                                                                                                ",
"                                                                                                ",
"                                          1 l c @ #                                             ",
"                                      % c y ;.P k z @                                           ",
"                                      ; =.H.vXXXH.>X$.@                                         ",
"                                    % F -.bX6X}.1X6X$ z #                                       ",
"                                    O :.7XXXVXFXXX7X Xu ;                                       ",
"                                    = < +XeX+X+XGXeX4.q                                         ",
"                                      ; Q yX{.{.5XAXp.R                                         ",
"                                        i l.pXpXSXtX/ o                                         ",
"                              3 & m M < y.w.OXOXsX9 / Q < K                                     ",
"                            &.>.U I N 1.* 8 6 T.P T R b ! T &                                   ",
"                            S L tXf.i.i d.~ p ZXj.^ e   ; t.,.                                  ",
"                            , 3.- g.s.6.<X[ ( _ r w r ~ K ^ e                                   ",
"                            . a.W 7 ! rX,Xw :X[. X!.dXe.r.0.*                                   ",
"                              C 7.F 9.rXt |.J.J. X_.dXHX_ e #                                   ",
"                              H 5.p h.[.J.F.F.F.V t U.2Xt Y 4                                   ",
"                              : B 4XyXCX8XQ.@XsX@X0 n.c.( 8.+ 4                                 ",
"                                5 R.G.U ] $ oXJXoXu o z.v.E.6 C                                 ",
"                                H 2.X > E $ |.qXM.m.u.b.' }.*.2                                 ",
"                                  S > 7 v .XwXaX) J iX`.- <.&                                   ",
"                                    O A H..X0XaX) #XDXr Y .                                     ",
"                                  : A H.(.OXBXuXuX#X9Xw a                                       ",
"                                  ..V F.Q.J 0XMX#XiXnX'.Z D                                     ",
"                                | k F.F.F.xX|.@XwXqX9X0 3XZ O                                   ",
"                              # v (.F.F.F.F.>XQ..XmX8X].'.I.q g                                 ",
"                              b  .H.(.F.F.F.Q.].cXoX].$ '.I.h o                                 ",
"                            D X.$X,X<XJ.J.%X%X0 !.!.!.3X-X;XI.d                                 ",
"                            @ h U.gXhX2XK.K.K.K.U.;XI.-X=X=XjX} .                               ",
"                            g * f :X[._.*X*XU.$X_.zX5X%.f o.d 7                                 ",
"                                o O.+.N X kX{.1XG.E.- * 3 .                                     ",
"                                    . x ).X ^.R.P.L.B 4                                         ",
"                                      n Y.Y./.R.&XP.8                                           ",
"                                      m X )./.E.lXNX5                                           ",
"                                      & - G.^.Y.&X#.l                                           ",
"                                      O @.G.W.^.P.j 2                                           ",
"                                        > W.X `.4X6 + =                                         ",
"                                        M 9 )./.W.L.j 2                                         ",
"                                        3 G G.}.`.T.T.5                                         ",
"                                        . x ).9 I R.L.+                                         ",
"                                          n Y.s < E.L.+                                         ",
"                                          ` X s i L P.+                                         ",
"                                          ` W.s V.G NX8 .                                       ",
"                                        , A.IX' o C.~.W D                                       ",
"                                    x.> p fXUX[ a Z.~.k.D                                       ",
"                                  # N.LX~.fXPX$ ] S.~.q.,                                       ",
"                                  = B.{ { y D.a @ u KXy ,                                       ",
"                                    # 1 1 1 :     @ q E %                                       "
};
