/* XPM */
static char *a2ebdd4f400346f3b15635cbf43cfbfaU3NcImp3I11DLuXk[] = {
/* columns rows colors chars-per-pixel */
"48 47 237 2 ",
"   c #013F4C",
".  c #014B5D",
"X  c #024656",
"o  c #01414D",
"O  c #014E62",
"+  c #0E4F67",
"@  c #015265",
"#  c #02556A",
"$  c #045A6E",
"%  c #0A596D",
"&  c #055E72",
"*  c #0A5D72",
"=  c #10596E",
"-  c #315B6E",
";  c #036275",
":  c #03657B",
">  c #036A7E",
",  c #0A657C",
"<  c #1E667C",
"1  c #276979",
"2  c #525478",
"3  c #627276",
"4  c #5E6568",
"5  c #BF525C",
"6  c #905171",
"7  c #AA5869",
"8  c #8F7076",
"9  c #BF6A71",
"0  c #A67876",
"q  c #B37879",
"w  c #AC6742",
"e  c #C3776D",
"r  c #D26C71",
"t  c #D46369",
"y  c #2B824F",
"u  c #449E5E",
"i  c #5BA271",
"p  c #B98078",
"a  c #B78D5C",
"s  c #C7887B",
"d  c #D28A7C",
"f  c #DFAC60",
"g  c #CEB572",
"h  c #D09750",
"j  c #ECD279",
"k  c #026C82",
"l  c #036A85",
"z  c #196B82",
"x  c #027185",
"c  c #02758B",
"v  c #027A8E",
"b  c #0B768B",
"n  c #1A768A",
"m  c #017D94",
"M  c #017D9A",
"N  c #007790",
"B  c #1C7D93",
"V  c #207C92",
"C  c #415F80",
"Z  c #70748A",
"A  c #5F7FA2",
"S  c #5C7984",
"D  c #9C7386",
"F  c #A7789B",
"G  c #BE7298",
"H  c #B86E87",
"J  c #B35385",
"K  c #CE77A6",
"L  c #028196",
"P  c #02839B",
"I  c #02899E",
"U  c #0B869B",
"Y  c #1A8398",
"T  c #248698",
"R  c #028CA2",
"E  c #0187A3",
"W  c #158DA5",
"Q  c #0391A6",
"!  c #0495AA",
"~  c #0799AE",
"^  c #1B95A9",
"/  c #0B9DB3",
"(  c #049BB0",
")  c #159EB2",
"_  c #2799AB",
"`  c #289CB2",
"'  c #3198AE",
"]  c #0BA1B2",
"[  c #18A3B5",
"{  c #29A4B6",
"}  c #35A3B6",
"|  c #34A5BA",
" . c #3CA6B9",
".. c #3BAABB",
"X. c #38A8B8",
"o. c #538999",
"O. c #708990",
"+. c #4D94A6",
"@. c #6C8CA4",
"#. c #668EA5",
"$. c #6F93A5",
"%. c #6E99AB",
"&. c #6E9DB1",
"*. c #7494A9",
"=. c #43ACBC",
"-. c #49AEBD",
";. c #44A9B8",
":. c #52A8BA",
">. c #4BB1BE",
",. c #5BA1AE",
"<. c #6AA8B8",
"1. c #75A7B9",
"2. c #6DB1BE",
"3. c #6DAA80",
"4. c #4CB2C2",
"5. c #48B3C5",
"6. c #53B4C5",
"7. c #5BB4C6",
"8. c #5AB6CB",
"9. c #56BACA",
"0. c #5BBACA",
"q. c #54B8C8",
"w. c #63BBCB",
"e. c #6BBDCC",
"r. c #67B7C6",
"t. c #7BBAC9",
"y. c #66BED0",
"u. c #5FC0CD",
"i. c #64C1CD",
"p. c #6AC2CE",
"a. c #73C2CE",
"s. c #6DC4D2",
"d. c #6DCAD3",
"f. c #64C3D1",
"g. c #73C5D4",
"h. c #72CAD5",
"j. c #78C6D6",
"k. c #8C868C",
"l. c #A88A86",
"z. c #B6869A",
"x. c #B29696",
"c. c #84B99F",
"v. c #8C99AD",
"b. c #B38FA9",
"n. c #8CAFAC",
"m. c #B6AABB",
"M. c #AEA5AC",
"N. c #DB9687",
"B. c #CB9092",
"V. c #D1A58D",
"C. c #E5A394",
"Z. c #EAAA9D",
"A. c #C281A2",
"S. c #DA94AA",
"D. c #C78CB8",
"F. c #D18EAE",
"G. c #E39AB9",
"H. c #D6ACAC",
"J. c #C5B2B2",
"K. c #D1ACB4",
"L. c #ECB8A6",
"P. c #E4B8B2",
"I. c #E2AAA7",
"U. c #F49B9C",
"Y. c #A8D4AE",
"T. c #A1CD9C",
"R. c #ECC8B9",
"E. c #F5CCBA",
"W. c #82BACB",
"Q. c #8FBBCD",
"!. c #B8ABC9",
"~. c #BAB8C8",
"^. c #BFABD0",
"/. c #AEB7CB",
"(. c #E69EC1",
"). c #C6A4CB",
"_. c #DABCCF",
"`. c #CCB5D1",
"'. c #EBA4C5",
"]. c #F8BBD6",
"[. c #D1B7E4",
"{. c #85C3D4",
"}. c #89C3D4",
"|. c #82C8D8",
" X c #B7C1CB",
".X c #BBC6D4",
"XX c #B6CAD2",
"oX c #BCC9D4",
"OX c #BDCCDA",
"+X c #B9C5D6",
"@X c #BFD0DB",
"#X c #B6D4C8",
"$X c #C2CCDC",
"%X c #C3C6D5",
"&X c #C1D1DC",
"*X c #CCCAD0",
"=X c #FEDDCA",
"-X c #FBD7C5",
";X c #E7CECE",
":X c #C4CCE0",
">X c #CFDCE4",
",X c #CEDAE9",
"<X c #CAD4E3",
"1X c #D2DBE4",
"2X c #D5DEEA",
"3X c #DADEEE",
"4X c #D4D6E6",
"5X c #DCDFF0",
"6X c #DBCFE2",
"7X c #E7DCF4",
"8X c #E8D6E1",
"9X c #CFE1E1",
"0X c #D2E1E3",
"qX c #D5E2EC",
"wX c #DAE3ED",
"eX c #D9EBEE",
"rX c #D6E4F1",
"tX c #DCE4F3",
"yX c #DDE7F5",
"uX c #DEF0F2",
"iX c #E7E5EE",
"pX c #E3E4F2",
"aX c #E2E9F6",
"sX c #EBECF6",
"dX c #E5EBFA",
"fX c #EAEDF9",
"gX c #EDE4FA",
"hX c #F3EEF6",
"jX c #EDF1FC",
"kX c #EEF6F9",
"lX c #F6F4F4",
"zX c #F4F3FB",
"xX c #FBFBFD",
"cX c #FAF9FE",
"vX c #FDFDFD",
"bX c #F6FAFB",
"nX c #DBE7D2",
/* pixels */
"xXxXvXcXvXbXvXvXxXxXxXcXcXcXcXcXxXbXvXbXbXcXvXvXvXxXkXxXvXbXvXbXxXxXxXcXcXcXcXcXcXcXbXcXbXvXvXcX",
"zXzXjXzXzXzXzXzXzXzXzXzXzXzXzXzXsXlXbXbXzXbXnXY.T.nXvXzXsXlXbXhXzXzXzXzXzXzXzXzXzXzXzXzXzXzXzXzX",
"jXfXfXjXsXsXfXfXfXfXfXfXfXfXfXfXsXjXaXfXgXzXY.u i 3.bXgXjXaXuXhXfXfXfXfXfXfXfXfXaXfXfXfXjXjXfXjX",
"dXyXaXdXaXaXaXaXaXaXaXaXaXaXaXaXfXdXyXdXgXjXn.y u i cXgXfXdXaXgXaXaXaXaXaXaXaXaXdXdXaXyXaXyXaXaX",
"aXqXyXwXwXyXqXqXwXwXwXwXyXwXwXwXqXwXwXeXwXiX&Xc.c.#XeXqXwXeXeXqXwXwXwXwXwXwXwXwXwXyXwXyXpXpXwXqX",
"qX2XaX2XqXqXwXyXqXwXqXqXqXqXqXqXrXqXwXqX0XwXaXaXdXgXqXwXwXqX3XrXqXqXqXqXqXqXqXqXqXqXqXyXqXaXwX2X",
"qXqXyX%X%X X X.XoXoXoXoXoXoXoXoXoXoX%X+XXX.X~.%X:X~.@XoX+X+X+X+X.X.X.X.X.X.X.X.X.X.X XoX X4XwXyX",
"yX2XqXoX2XqXqXqX2X2X2X2X2X2X2X2X0X3X4X2XqX2X1XqXqX0X1X0XqX3X1X1X2X2X2X2X2X2X2X2X2X2X2XqX%X2XtX2X",
"eX5XtXoXiXQ.8.W.t.t.W.W.W.W.{.{.{.|.|.{.|.t./.*XpXOXt.j.j.}.W.{.}.}.}.}.{.{.}.}.|.|.{.4X$X0XyX2X",
"qX3XyXoXwXt.{ -.9.9.9.0.i.i.i.i.e.s.s.a.W.%XP.6X~./.w.f.i.p.p.d.d.d.d.d.d.d.h.h.j.j.j.4X$X0XyXqX",
"qX3XyX+XqXr.[ { ..5.9.u.w.w.w.e.w.f.f.r.~.lXU.lX6X!.<.w.w.i.u.f.p.s.s.g.h.h.j.j.j.h.j.,X$X9XyXqX",
"yX5XwXoXtXt.[ { { | ..5.q.w.w.w.w.y.e.v.B.I.N.C.S.[.v.w.w.e.w.e.e.p.s.s.g.g.g.g.h.h.j.,X:X9XyXqX",
"qX3XqXoXpXt./ ) [ [ [ { ..5.q.0.7.0.0.k.t r t r r 7 $.9.0.w.0.0.w.w.w.i.i.p.p.s.h.s.j.,X:X1XtX2X",
"wX3XqXoXpXr.( / ) [ { { { { ..5.q.9.0.<.8 e e 9 5 5 o.q.q.7.0.8.w.w.w.w.w.e.e.p.s.p.a.1X:X1XtX3X",
"wX5XqXXXwX2.( ] / / ] ] [ [ [ { ..5.6.7.*.8 P.D e 7 ,.6.4.6.7.7.9.0.0.0.0.w.e.i.f.p.e.,X$X0XtXqX",
"qX5XwXoXpX1.! ~ ( / / / / ) [ [ _ +.+.k.8 M.;X*XN.7 8 ,.5.-.4.4.q.8.8.8.8.0.w.w.y.w.e.,X$X9XrXrX",
"wXqXqXoXpX2.R ! ! ! ~ ~ / / / ^ 0 8 q k.+.n.-XP.H M.+.0 ,.>.>.4.6.6.6.6.9.0.0.0.0.w.w.4XOX1XyX2X",
"wXqXqXXXpX2.E Q Q ! ! ! ~ / / _ B.S e z.K.b.B.A.F z.&.6 Z ;.-.4.>.>.4.4.6.6.q.0.0.0.r.4XOX1XyX2X",
"wXqXqXXXpX<.E R R Q Q ! ! ! ~ ~ x.^ Z '.F.F G D.D.].;X7 o.=.;. .=.-.5.4.4.6.6.q.q.7.r.4XOX1XyX2X",
"wXrXqXoXpX<.E I R R R Q Q ! ! ! H.o.#.'.A.J._.D.F.].].Z } |  ... .=.=.-.-.4.4.4.4.6.7.4XOX1XyX2X",
"wXrXwXoXpX<.P P R R R R R Q Q Q H.l.8 G _.vXvXiXA.G.'.o._ | X.| X... .;.=.-.-.-.5.4.7.4X@X1XyX2X",
"tXrXwXoXpX<.M P I I I I R R R Q M.L.e 6 ).iX`.7X).F D P.*.W _ | | .... . .=.=.=.=.-.6.,X@X1XtX2X",
"tXrXtXoXpX<.M L L L L I I R R R #.E.Z.0 A [.4 ^.!./.z L.E.o.U W _ { | |  . .......=.:.<X@X1XtXqX",
"wXrXwXoXpX<.M m M L L L I I I I I T o.U n.hXj g g h e O.B P m M U W ` } } } X.X.X. .:.<X@X1XtXqX",
"tXqXpXXXpX1.c m m m L L L L L P I E U 1.lXhXj g f w z.N L m m P L m P W ` | | ' } } -.4X&X1X5XqX",
"tXqXpXXXpX1.c m N m m L L L L L L P 1.lXbX;Xj j f 0 F N m m v M m m m P U ^ ` | } { ;.4XOX1XtXqX",
"tXqXpXXXpX<.x v N N N m m m m m m +.iXvXiXg V.f h z.b.b N N v m N m m m v m W ^ ` { ;.4XOX1XtXqX",
"tXqXpXoXpX<.k v c c v v m m m m V %XvXvXvXnX7XJ.a 0 ).Z b N c m N m m m m m m L W ^ } 2XOX1XtXqX",
"tXqXtXoXpX&.l c c c c c v v v v ~.lXxXvXvXvX`.`.^.`.[.K F z x N c v v m m m m m m L T 4X&X1XtXqX",
"yXqXtXXXpX&.k x x x x c c c c b S.F.K._._.`.).D.D.D.K F.K C x c c c v v v N m m M v Y 4X&X1XtXqX",
"wXqXtXXXpX&.: x k x x x x x c n G.].].'.(.(.(.G.F.K K J 7 2 > c x c c c c c v N m N Y 4X&X1XtX2X",
"wXqXtXXXpX%.: k k k k x x x c c 6 J G F.G.G.S.F.B.9 6 2 2 z > x x x x x c c c c c v T 4XOX1XyXqX",
"tXqXyX+XaX%.: l k k k k k x x x z 1 2 q C.N.Z.Z.L.V.- l l k l k k k x x x x x c v c B 4X$X2XrX3X",
"tXqXyX+XaX%.; l k k k k k k k k k x c 3 C.C.E.=X-XJ.; l k k : k k k k k x x x x c x B 4X$X2XrX3X",
"tXqXtX+XaX%.& , > > > > k k k l k k x 1 C.Z.L.=XE.m.; : > > : k k k k k k k k k x x n 4XOX1XrX3X",
"tXqXyX+XaX$.$ , : : : : : l l l > k k < B.Z.C.=XR.!.; : : : : : : : k k k k k k k l n 4XOX1XrX3X",
"tXqXyX+XaX$.# ; ; ; ; : : : , , > k k , p Z.d -XR./.$ & ; ; ; : , : , : : k k k k l n 4X$X1XrX3X",
"tXqXyX+XaX$.# * & & ; ; : : , , : > > , 3 N.e Z.E.J.$ & & ; & ; : : : : : : : > > l n 4X$X1XrX3X",
"tXqXyX+XaX$.@ % $ & & & ; ; ; : : : : : 1 s d N.-XR.1 $ $ $ * & & ; ; ; : : : : > : n 4X$X2XrX3X",
"tXwXqX+XpX@.@ % % & & & & & ; ; ; : : ; : 3 d q E.-XO.$ $ $ % & & & ; ; ; ; ; ; : : n 4X$X2XrXtX",
"qX5XwX+XaX@.. # $ $ $ $ $ & * * $ & ; ; : 3 s H.L.=XO.# $ $ $ & $ & & & & & & ; : ; z ,X$X1XyXqX",
"qX5XwX+XaX@.. # # # $ $ $ $ $ & $ & & & ; - s `.C.-XO.@ # # # # $ $ $ & & & & ; ; & z ,X$X1XtX2X",
"qX5XwX+XaX@.X # @ @ # # # $ $ $ % & & $ ; - s *XV.E.k.O @ @ @ # # # # $ $ $ & & ; $ z ,X$X1XyXqX",
"rX5XwX+XaX@.X @ @ @ @ @ # # # $ % $ $ $ < v.p 6Xx.H.l.O @ @ @ @ @ @ # # $ $ $ & & $ < 4X$X1XtXqX",
"rX5XwX+XaX@.o O O O @ @ @ @ @ # @ # v.;XH.8X[.m.b.H.M.. O O @ @ @ @ @ @ # # # $ $ # < 4X$X>XtXqX",
"wX5XwX+XaX@.o . . . O O O @ @ @ @ # o.~.~.!.@.4X!._.m.. . . . O O O O @ @ @ @ # $ @ < 1X$X>XtXqX",
"wX5XwX+XaX@.  . . . . . . . O O @ @ @ + = + #.aX4Xb.- X . . . O O O . O O @ @ @ # @ < 1X$X>XtXqX"
};
