/* XPM */
static char *_187abbdd5ec4861b3ef5f315b557c26zRYkhHmUkUyoHaYa[] = {
/* columns rows colors chars-per-pixel */
"48 48 245 2 ",
"   c #0C0B1A",
".  c #030719",
"X  c #1B131D",
"o  c #130E1A",
"O  c #2A191E",
"+  c #191926",
"@  c #10182A",
"#  c #2B1C23",
"$  c #192436",
"%  c #1D222F",
"&  c #3B2328",
"*  c #282A39",
"=  c #2E343A",
"-  c #353534",
";  c #393635",
":  c #323638",
">  c #37393B",
",  c #2C292C",
"<  c #4A2927",
"1  c #542C29",
"2  c #58322D",
"3  c #5A3734",
"4  c #472E33",
"5  c #67382C",
"6  c #723D2E",
"7  c #693934",
"8  c #793835",
"9  c #421A24",
"0  c #35443F",
"q  c #7D4331",
"w  c #75433A",
"e  c #7F432F",
"r  c #283647",
"t  c #343847",
"y  c #293A56",
"u  c #313951",
"i  c #1F3252",
"p  c #673845",
"a  c #463F42",
"s  c #374246",
"d  c #394344",
"f  c #384248",
"g  c #37434C",
"h  c #384958",
"j  c #38525F",
"k  c #28435C",
"l  c #2D4461",
"z  c #384B67",
"x  c #3C5663",
"c  c #3A5866",
"v  c #365874",
"b  c #3D687E",
"n  c #484B4D",
"m  c #4A4E51",
"M  c #474A53",
"N  c #565B5D",
"B  c #5B565B",
"V  c #534948",
"C  c #6C535D",
"Z  c #744D48",
"A  c #445A69",
"S  c #585C63",
"D  c #4B5A73",
"F  c #665963",
"G  c #4A636D",
"H  c #4A6777",
"J  c #546B74",
"K  c #556C77",
"L  c #5A717B",
"P  c #56717B",
"I  c #53636A",
"U  c #656465",
"Y  c #666569",
"T  c #6B6A6C",
"R  c #69666A",
"E  c #6D6C72",
"W  c #737273",
"Q  c #7B7B7C",
"!  c #75797B",
"~  c #6C7079",
"^  c #89302E",
"/  c #A83D34",
"(  c #E73F29",
")  c #854937",
"_  c #A1463E",
"`  c #B34538",
"'  c #DB402F",
"]  c #D64938",
"[  c #E7422D",
"{  c #E64D39",
"}  c #E0503C",
"|  c #905645",
" . c #AB5945",
".. c #AA6A55",
"X. c #8A6B6C",
"o. c #D25E4C",
"O. c #E55A48",
"+. c #E97B6B",
"@. c #E16353",
"#. c #98877B",
"$. c #B58D79",
"%. c #D7997B",
"&. c #DD8276",
"*. c #E4957A",
"=. c #DA9265",
"-. c #3B5D8A",
";. c #3C6687",
":. c #4A7487",
">. c #567789",
",. c #567E92",
"<. c #5A7F91",
"1. c #4A6E82",
"2. c #6C7786",
"3. c #527AA6",
"4. c #837F8B",
"5. c #3788AD",
"6. c #398CB6",
"7. c #3A93BB",
"8. c #578093",
"9. c #5B899B",
"0. c #5B8798",
"q. c #59808F",
"w. c #618B96",
"e. c #618A9A",
"r. c #65899B",
"t. c #748698",
"y. c #4A91AE",
"u. c #4B9ABC",
"i. c #4696B8",
"p. c #5599BC",
"a. c #4B89B2",
"s. c #619EBC",
"d. c #6399B4",
"f. c #7091AE",
"g. c #5DA1B9",
"h. c #64A4BC",
"j. c #67A4BB",
"k. c #76A0AC",
"l. c #3C96C4",
"z. c #3FA2C9",
"x. c #4D9DC2",
"c. c #479AC6",
"v. c #539DC3",
"b. c #589EC3",
"n. c #6699D9",
"m. c #639DC4",
"M. c #4DA1CC",
"N. c #4AA4C7",
"B. c #5AA3C5",
"V. c #54A3CB",
"C. c #5BA5CC",
"Z. c #54AACD",
"A. c #5BAACD",
"S. c #55A3C5",
"D. c #55ABD2",
"F. c #5DACD3",
"G. c #56A7D4",
"H. c #5BB3D7",
"J. c #4EA6D0",
"K. c #65A4C3",
"L. c #64A4CC",
"P. c #6AA5CD",
"I. c #66A9C9",
"U. c #64A6D1",
"Y. c #69A5D1",
"T. c #63ADD4",
"R. c #69ACD4",
"E. c #62B3D5",
"W. c #6AB7D9",
"Q. c #75BAD9",
"!. c #70B2CE",
"~. c #6EABE4",
"^. c #75ACEA",
"/. c #68B9E3",
"(. c #72B1EB",
"). c #75B6E4",
"_. c #74AEF5",
"`. c #7AAEF7",
"'. c #74B3F5",
"]. c #7AB3F4",
"[. c #76B3FD",
"{. c #79B3FD",
"}. c #58B4E3",
"|. c #7CC1DC",
" X c #66C1DE",
".X c #7AC3E6",
"XX c #6FC3E7",
"oX c #90938E",
"OX c #939394",
"+X c #9B9B9B",
"@X c #989898",
"#X c #8B8C8F",
"$X c #B3968B",
"%X c #B1A59C",
"&X c #9C9DA2",
"*X c #8997BA",
"=X c #98A4B1",
"-X c #A2A3A2",
";X c #ADADAE",
":X c #A7A5A7",
">X c #B7B7B9",
",X c #AEB1B6",
"<X c #E99C89",
"1X c #D4B096",
"2X c #E7A886",
"3X c #F0BB99",
"4X c #ECB296",
"5X c #CCBCB7",
"6X c #D6BBB6",
"7X c #CCB3A5",
"8X c #F1B6AE",
"9X c #C89991",
"0X c #FFC195",
"qX c #D9C3B3",
"wX c #F6CBA8",
"eX c #FBD8B5",
"rX c #EFC7B2",
"tX c #B0BAC4",
"yX c #83B4F9",
"uX c #87B7F6",
"iX c #96BDF7",
"pX c #82AFEF",
"aX c #80B8D5",
"sX c #BAC7CE",
"dX c #93C2FC",
"fX c #9BC3FB",
"gX c #9EC3F7",
"hX c #87CDED",
"jX c #A4C5FC",
"kX c #AAC6FC",
"lX c #A5CAFF",
"zX c #A9C9FE",
"xX c #A5C6F6",
"cX c #A2D3FF",
"vX c #D0CECF",
"bX c #EADBDA",
"nX c #F8D8D3",
"mX c #F1D2C9",
"MX c #FBE5D8",
"NX c #ECE0D2",
"BX c #D2E4EE",
"VX c #E7F3F8",
"CX c #FEFDFD",
"ZX c #F3F5F6",
"AX c #FCE9E5",
/* pixels */
" Xi.y.S.M.M.H.E.C.F.V.6.v.Q.hXj.l.V.b.Q.Q.I.A.c.a.E.Z.A.R.3.L.Z.c.c.N.H.V.Q.W.A.l.M.F.i.v.S.Q..X",
"A.u.g.Q.D.6.7.C.C.F.H.M.V.C.).I.V.V.v.W.W.B.B.x.R.D.7.V.U.a.V.H.V.c.z.D.x.T.B.i.V.G.x.i.).W.A.E.",
"A.!.!.I.G.M.V.I.u.u.V.D.D.u.A.B.I.R.B.V.C.A.!.I.G.D.N.N.G.).T.M.x.D.D.D.x.C.v.x.A./.T.C..XA.i.W.",
"B.hXQ.L.V.J.T.Q.!.p.y.v.V.v.C.v.!.hXW.x.c.E.|.!.v.V.Z.S.V.hXW.v.B.E.H.Z.V.U.C.F.B.Q.Q.T.C.6.7./.",
"p.h.j.e.,.1.H q.r.w.1.1.:.>.>.>.>.<.<.:.1.:.>.>.>.1.:.>.H ,.:.>.<.:.b 1.0.r.9.,.8.,.,.>.1.:.,.y.",
"8.! ! ! ! ! ! ! ! ! ! T W W ! ! ! ! ! T W W W W W W W W E E W W W W W W ! ! Q Q Q Q Q Q Q Q U P ",
"S OX+X-X-X-X-X-X-X-X-X-X-X:X;X;X;X;X;X-X-X-X-X:X:X-X-X-X-X-X-X-X-X-X-X-X-X+X;X;X;X;X;X;X;X:XW P ",
"B &XR ; : - ; - ; - ; ; - - - - ; - - ; > d -X5X5X@X> - ; ; ; > ; ; ; ; ; ; - - > > > = - -XW L ",
"N +XT n e.e.e.9.9.9.9.9.9.9.9.0.0.H H k.k.vXZX+.&.ZXsXk.k.>.H 0.9.9.0.9.9.9.9.9.9.0.0.P - :XW H ",
"S +XT d j.s.s.B.L.L.L.L.L.L.L.L.;.$ #XZXZXmX8XO.@.8XmXZXZX:X* b L.U.L.L.L.U.U.K.g.g.h.q.; -XW K ",
"N +XT s j.s.d.s.].{.{.{.{.{.{._.l &XCXCXCX+.[ [ [ [ +.CXCXCX;Xl ^.].].].'.'.[.~.p.g.g.8.: :XR J ",
"N &XT 0 h.b.L.(.{.{.{.{.{.{.{._.z vXCXCXCXrX4XO.O.4XrXCXCXCXvXz _.{.{.{.{.{.{.'.).s.s.8.= :XT G ",
"N @XR d j.R.~.[.[.{.{.{.{.{.{._.z sXVXvX5X5X6X<X<X5X5XqXBXVXsXz _.{.{.{.{.{.[.[.'.R.K.8.= :XT J ",
"N oXY g K.(.{.[.{.{.{.{.{.{.{._.l D 2.X.e 6 1 4.$X) e | 2.>.D y _.{.{.{.{.`.'.[.[.].Y.8.: -XT L ",
"N oXU f K.(.{.[.[.[.[.[.[.{.{.'.y . < q q 6 O o # 2 q q 5 <   y _.[.{.{.uXcX{.{.{.{.Y.8.: -XT J ",
"N OXU f K.(.[.{.{.[.[.{.[.[.[.'.y & q q 6 < 1 7 7 1 5 q q q < y '.[.[.uXjXlXyX{.{.{.Y.,.: @XY A ",
"N OXU f K.(.[.{.{.{.{.{.{.[.[.uXu 5 ) q < < 5 %.2X .< 5 q q 5 y _.[.uXiXkXzXyX{.[.{.P.8.: @XY G ",
"S OXU f K.(.[.{.[.{.[.{.{.].uXxXh 2 q 6 ) ..9XwXeX*. .< 1 6 5 y `.].lXzXzXxXyX{.[.{.P.8.: @XY H ",
"N OXU f K.(.[.{.[.[.[.[.{.iXzXxXu 1 2 X | 3XeXeXeXeX3X..O X < y pXzXzXzXfX^.{.[.[.{.P.8.: @XR A ",
"N OXU f K.(.[.{.{.[.[.{.iXjXkXxXA + X % # a qXeXeXrXV & Z     y iXzXzXiX{.[.[.[.[.{.Y.8.: @XR G ",
"N OXU f K.(.[.{.[.{.`.pXjXzXzXfX:X> Z 5Xr + vXeXeXmX= * ;X+ X y xXzXfXuX{.{.{.[.{.[.U.8.: @XR J ",
"m OXU f K.(.[.{.[.{.uXzXkXkXfX^.&X- | mXt % vXeXeXbXt * >X, 7 M gXzX].[.[.{.{.{.{.[.U.8.: @XY G ",
"n OXU f K.(.[.{.[.dXjXlXzXiX{.[.z   3 4X$.$.eXeXeXeX$X$.1X+ o S gXyX{.[.[.{.{.[.{.{.Y.8.: @XY J ",
"M @XU f K.(.[.{.{.fXkXlXiXyX[.^.B o X =.0XeXwX2X<XwXeX0X=.+   B pX[.[.{.{.{.{.[.{.{.Y.8.: +XR G ",
"m +XT f K.(.[.[.{.fXkXfX{.[.[.f.3 o   ) %.3XeX2X2XeX3X*.)     2 f.[.[.{.{.{.{.[.{.{.Y.8.: :XT H ",
"m +XT f K.(.{.{.[.dXfX`.[.[.n.A X . . . 1 Z %.wXwX%.w 2   . . o z n.{.{.[.{.{.[.{.{.Y.8.: :XT A ",
"m +XT f K.(.{.{.[.{.yX[.[.{.n.-.-.z $ h H h < V V < * H h t r v -.n.{.[.[.{.{.[.{.{.Y.8.: @XY G ",
"m +XT f K.(.{.[.{.{.[.[.[.{.[.[.].>.M tXBXt.) | | w I BXsX~ > f.{.[.[.{.{.{.{.[.{.{.Y.8.: @XR I ",
"m +XT f K.(.[.{.{.{.[.[.[.{.{.{.^.D 5X@XvX:X..3XwX#.~ vX#XvXm d.[.[.{.{.[.{.[.[.{.[.Y.8.: @XY I ",
"m OXU f K.(.[.{.{.{.[.[.{.[.{.'.f.8 @.7 >XbXZ $X%XC t.,X3 o.^ 3.[.[.{.{.[.{.[.[.{.[.U.8.: @XY I ",
"m OXU f K.(.[.{.{.{.{.{.{.{.{.dXf.p ^ 9 >XAX9X-X,XX.&XvX& ^ p a.[.{.[.[.[.{.[.{.{.[.P.,.: @XT J ",
"m OXU f K.(.[.{.{.{.[.{.{.yXuXkXjX*X .< =XvX@.6X6X&.vXtX4 _ *X[.[.{.{.[.{.uX{.[.{.{.P.,.: @XE K ",
"m OXU f K.(.[.{.{.[.[.[.].iXzXkXxX=X2X2 y t.^ 8 8 ^ 2.h & %.*X_.{.{.{.[.yXlX{.[.{.[.P.,.: @XE P ",
"m OXU f K.(.[.{.{.[.{.].fXjXkXkX3.#.4X2 @ F C C C C = . & 2XoX3.{.{.{.uXjXlXyX[.{.[.P.,.: @XE J ",
"m OXU f K.(.[.{.[.{.yXiXzXzXjXuXz 1X3X3 2.bXbXbXbXbX=X>.4 2X1Xz _.{.dXfXzXzXyX[.{.[.Y.8.: @XE J ",
"m OXU f K.(.[.{.[.{.uXzXkXzXdX_.z 7X3X3 >XAX+.+.+.+.bXsX4 2X7Xz _.pXzXkXxXjX{.[.[.[.Y.8.: @XE L ",
"m OXU d K.(.[.[.{.dXjXzXzXiX{._.z vX:XS vXnX{ [ ( { nXvXM tXvXz ].lXzXlXfX`.{.[.[.{.Y.8.: :XW K ",
"m OXY f K.(.[.[.{.fXkXlXyX{.[.'.D 7XX.2.VXnX{ [ [ { nXZX-X7X%XD pXzXjXiX{.{.{.[.[.[.P.,.: :XW K ",
"m OXU d j.R.~.{.{.fXjXdX[.[.[.[.^.X.w -XCXnX{ [ [ { nXCX>XZ Y n.yXzXiXuX{.[.[.'.'.~.K.8.: -XW L ",
"m oXU d j.g.U.].[.dXfX_.[.[.{.{.{.a.t 6XnX8X{ [ [ { 8XnX7Xr m.'.{.lX^.'.[.[.[.'.).p.s.8.: :XW K ",
"m +XT f j.g.g.C.[.{.].[.[.{.{.{.].Y.t / ] } ' ' ' ' } O./ h b.(.{.{.{.[.[.[.[.~.b.g.s.8.: -XW L ",
"m +XT f j.g.g.h.K.I.I.U.I.K.L.I.L.m.z # 2  .` ^ ^ ` o. .& v s.K.L.L.I.P.L.L.L.K.s.h.s.8.: -XW K ",
"n #XU f r.w.w.e.w.w.9.9.w.w.9.9.e.e.0.>  .2X*.8 7 %.2X..> 0.e.w.w.9.9.w.w.9.w.e.9.e.w.L > #XT K ",
"h h h x c c z c x j j x x j x j c c c % ..MXrXw 7 rXMX..% c H G c c x j x A A x c c x j x h h :.",
"p.B.L.T.F.l.7.}.N.u.C.E.u.u.A.5.!..Xp.k $XMXnXX.C mXMX9Xy B.!.|.Z.H.N.i.A.W.!..X/.F.F.F.M.M.J.7.",
"p.P.R.L.x.i.l.z.x.x.A.E.x.v.E.u.K.|.y.r 8 _ _ 2 1 _ _ ^ r I.y.K.H.5.7.H.N.u.F.W.A.x.v.T.XXE.D.M.",
"A.Q..XB.i.F.H.7.Z.F.H./.F.V.T.C.C.F.i.k $ $ $ $ $ $ $ $ l R.u.i.D.5.x./.D.i.M.G.A.v.y.v.hXT.x.XX",
"H.Z.E.!.I.Q..XU.W.E.Z.H.V.i.v.F./.M.G.G.v.5.b.K.E.u.i.|.Q.K.W.Z.A.W.T.G.F.J.c./.hXI.b.p.I.C.W.F."
};
