/* XPM */
static char *_1a773ec6a4c4daf95ff9bac3320d3bbEIxwFKmRjyfaLztG[] = {
/* columns rows colors chars-per-pixel */
"48 48 216 2 ",
"   c #191A15",
".  c #1D120E",
"X  c #261A12",
"o  c #2E0F07",
"O  c #2C2519",
"+  c #292518",
"@  c #36271A",
"#  c #2C3119",
"$  c #393616",
"%  c #21310F",
"&  c #222223",
"*  c #2C2C2C",
"=  c #282A27",
"-  c #332A29",
";  c #35332C",
":  c #333333",
">  c #3A3C35",
",  c #3C3C3C",
"<  c #383836",
"1  c #52120E",
"2  c #660806",
"3  c #6A1A1B",
"4  c #45281C",
"5  c #4D3914",
"6  c #73301A",
"7  c #472A25",
"8  c #5B2A2B",
"9  c #582B23",
"0  c #4B342C",
"q  c #483A29",
"w  c #59382A",
"e  c #423C39",
"r  c #5A3434",
"t  c #553633",
"y  c #4C2D33",
"u  c #652B2D",
"i  c #6C2C2D",
"p  c #722D2E",
"a  c #65332C",
"s  c #7A352C",
"d  c #792F30",
"f  c #623835",
"g  c #6D3C34",
"h  c #683734",
"j  c #7B3230",
"k  c #743935",
"l  c #632A30",
"z  c #3C433A",
"x  c #37403A",
"c  c #50541C",
"v  c #764C1F",
"b  c #464A28",
"n  c #4B5429",
"m  c #4D5824",
"M  c #525626",
"N  c #44423C",
"B  c #584831",
"V  c #744238",
"C  c #7A4439",
"Z  c #744737",
"A  c #675A39",
"S  c #72583C",
"D  c #624E2C",
"F  c #4C6623",
"G  c #536C24",
"H  c #596829",
"J  c #5B7628",
"K  c #5E6238",
"L  c #646727",
"P  c #686731",
"I  c #786A35",
"U  c #687934",
"Y  c #737735",
"T  c #667A29",
"R  c #434343",
"E  c #4D4D4C",
"W  c #464946",
"Q  c #4E524C",
"!  c #53564A",
"~  c #535454",
"^  c #565C53",
"/  c #5C5C5C",
"(  c #504F4F",
")  c #645E58",
"_  c #7D5A40",
"`  c #5C615A",
"'  c #5E7249",
"]  c #66645D",
"[  c #74734E",
"{  c #5E6060",
"}  c #646464",
"|  c #696A69",
" . c #656A66",
".. c #6D746B",
"X. c #72746F",
"o. c #747574",
"O. c #7C7B7B",
"+. c #7A7976",
"@. c #811610",
"#. c #97311A",
"$. c #A2281E",
"%. c #863533",
"&. c #8A2822",
"*. c #BD3438",
"=. c #81401D",
"-. c #8B483C",
";. c #96473D",
":. c #8A543D",
">. c #93543C",
",. c #A1483F",
"<. c #827938",
"1. c #9B4A44",
"2. c #875942",
"3. c #995B43",
"4. c #975747",
"5. c #894240",
"6. c #A74D44",
"7. c #AC5348",
"8. c #B75348",
"9. c #AA5757",
"0. c #B54F44",
"q. c #9B6145",
"w. c #806E4B",
"e. c #A06047",
"r. c #B86455",
"t. c #84787A",
"y. c #897678",
"u. c #C66058",
"i. c #5D802B",
"p. c #69882E",
"a. c #6D8337",
"s. c #6D8735",
"d. c #728937",
"f. c #6E9632",
"g. c #6F9D35",
"h. c #749432",
"j. c #749D34",
"k. c #7A9D35",
"l. c #799636",
"z. c #788E2F",
"x. c #76A236",
"c. c #7BA437",
"v. c #7CA738",
"b. c #7EA938",
"n. c #7A8074",
"m. c #82A539",
"M. c #82AD3A",
"N. c #88AE3B",
"B. c #86B13B",
"V. c #8BB53C",
"C. c #8EB83D",
"Z. c #92BB3E",
"A. c #94B83D",
"S. c #96BE40",
"D. c #99BF40",
"F. c #83857E",
"G. c #818172",
"H. c #97C040",
"J. c #9AC140",
"K. c #7E7D80",
"L. c #827E80",
"P. c #7E8682",
"I. c #838484",
"U. c #8C8C8B",
"Y. c #878787",
"T. c #8F978A",
"R. c #91948B",
"E. c #939393",
"W. c #9C9C9B",
"Q. c #989797",
"!. c #968E94",
"~. c #A69C93",
"^. c #9EA49B",
"/. c #9FA497",
"(. c #A2A39B",
"). c #ADB39E",
"_. c #B0A492",
"`. c #A4A4A4",
"'. c #ABABAC",
"]. c #A8A8A7",
"[. c #B4B4B5",
"{. c #BCBCBC",
"}. c #B9B9B6",
"|. c #B7B5AD",
" X c #C1BDBD",
".X c #CFBDB4",
"XX c #CABCAE",
"oX c #BDC1BE",
"OX c #C1C4BE",
"+X c #C1C6B1",
"@X c #C1BEC3",
"#X c #BEC1C0",
"$X c #C3C3C3",
"%X c #CACBC7",
"&X c #CCCBCB",
"*X c #C5CAC6",
"=X c #D3D6CE",
"-X c #D4D4D3",
";X c #D9DBD5",
":X c #DBDBDA",
">X c #D9D6D8",
",X c #CED0CE",
"<X c #DCE0D8",
"1X c #E3E5DE",
"2X c #E5E5E4",
"3X c #ECEBEB",
"4X c #E7EAE7",
"5X c #F4E9ED",
"6X c #F2F2EC",
"7X c #F4F4F4",
"8X c #F9FBF5",
"9X c #F7FAF9",
"0X c #FFFFFE",
"qX c #FDFDFD",
"wX c #F7F7F4",
"eX c #F6EEEF",
/* pixels */
"C.B.b.B.M.V.M.b.b.b.V.M.M.B.b.B.M.c.M.V.V.B.b.V.C.B.b.B.M.V.M.b.b.b.V.M.M.B.b.B.M.c.M.V.V.B.b.V.",
"c.c.M.b.V.M.j.v.V.V.B.B.b.x.b.M.B.V.V.V.M.M.V.Z.c.c.M.b.V.M.j.v.V.V.B.B.b.x.b.M.B.V.V.V.M.M.V.Z.",
"x.M.N.M.M.M.M.V.Z.Z.V.B.C.V.Z.Z.M.b.C.M.v.Y _ S U M.N.M.M.M.M.V.Z.Z.V.B.C.V.Z.Z.M.b.C.M.v.b.B.M.",
"B.C.V.V.V.V.Z.J.J.Z.V.Z.Z.Z.C.D.Z.b.M.V.c.S >.>.A V.V.V.V.V.Z.J.J.Z.V.Z.Z.Z.C.D.Z.b.M.V.c.b.M.b.",
"V.Z.V.B.C.V.V.V.V.Z.C.Z.C.C.V.V.Z.V.x.M.I g >.>.f I V.B.C.V.V.V.V.Z.C.Z.C.C.V.V.Z.V.x.M.M.C.C.B.",
"C.B.b.M.M.c.m.B.B.V.V.B.M.M.b.M.b.v.c.P 0.k >.>.f p P M.M.c.m.B.B.V.V.B.M.M.b.M.b.v.c.v.M.V.M.V.",
"V.x.B.M.c.c.M.M.V.B.V.x.j.c.b.V.V.h.I -.6.g >.>.r i u P c.c.M.M.V.B.V.x.j.c.b.V.V.j.M.C.V.M.c.V.",
"c.x.V.M.V.V.Z.v.b.B.M.x.c.M.M.k.h.I r.j %.r Z w.[ A A w L V.Z.v.b.B.M.x.c.M.M.V.Z.Z.Z.Z.Z.V.B.V.",
"V.B.B.C.D.D.H.Z.V.M.M.M.V.V.j.' ` n.+X= z ` ! T.).^ ^ ` ! M M.Z.B.M.M.M.V.V.V.V.V.Z.Z.M.V.Z.Z.B.",
"Z.c.j.V.M.B.C.V.V.V.B.V.V.k.' =X(.7XqXoXn.2XqXqX{.,XqX4XQ z K m.V.V.B.V.V.V.b.M.B.V.b.c.V.M.V.C.",
"V.M.b.M.M.M.M.V.M.B.V.B.f.% F.0X'.O.7XqX{.>XI.qXO.< -Xo.W.-XOXb c.B.V.B.v.c.c.c.M.c.b.M.g.j.V.Z.",
"b.b.V.V.Z.Z.B.V.Z.Z.B.c.% Q o., >X>X9XU., &X= +.:X{.3X:X@X< [.W % V.B.M.x.j.c.c.c.b.v.g.j.j.c.B.",
"c.B.Z.V.V.Z.V.B.V.C.M.p.> }.< ].qXqX$X: '.>XeX'.`.| &XqXqXY.[.2X> $ M.M.V.M.b.c.V.Z.M.b.V.Z.C.M.",
"C.C.C.B.M.M.B.B.M.b.M.# ` W.%XqXqXqXqXqX{.= `.9XqXE.:XqXqXqX@X3X%XX Y M.V.Z.C.Z.S.Z.C.V.V.V.V.C.",
"M.M.M.b.M.x.v.V.c.c.P 0 -X+. X'.Y.7XqXqX'.K.E.qX{.,XqX2XO. X'.>X+.9 j P k.C.Z.D.S.V.V.M.b.b.M.V.",
"M.V.V.M.B.M.j.v.V.<.;.C X.qXqX{.& o.OX~ / | 7X$X& `.9X~ : -XqXX.. i %.u Y x.B.C.Z.Z.V.B.b.c.c.B.",
"c.b.V.M.B.V.C.A.A.;.1.,.X ..3X7X$XOXQ.&   , , & = W $X}.-X7X1X).@ u p d j V.Z.V.M.V.B.x.M.B.b.V.",
"B.V.C.Z.C.Z.J.D.C.k 7.6.s O   '.W   ,  ./ } / / { / *   | U.  @ d u p p u Z.M.k.k.M.B.V.H.C.b.c.",
"Z.J.Z.Z.Z.Z.V.M.M.l.1.6.6.1.7 ^.> =  .} Y.o. .o.I. ./   / I.7 k i i p p l.b.j.c.M.c.c.V.B.x.M.M.",
"V.C.Z.V.B.M.c.M.M.Y k 7.1.8.4 /., /  .} %X] / (.W.E | E / P.4 u j i j 8 U b.M.j.j.M.m.M.x.c.M.C.",
"M.V.C.V.M.b.M.M.V.;.,.;.1.6.9 ^.N ^  .} $X, ^ W.t., | E / P.@ j p %.i i a V.V.M.S.Z.V.v.b.V.V.B.",
"V.Z.V.M.M.V.B.V.V.5.6.8.k 7.4 ^., / } } +./ } o.| ^  .E / I.4 u d 8 p p i v.M.Z.V.Z.Z.V.V.Z.Z.V.",
"Z.B.M.B.C.V.C.V.b.Y 9.6.0.2.# `.e / W < } | |  ./ * / E / (.7 h u p i %.n h.V.V.V.V.B.B.C.C.V.V.",
"C.B.b.B.b.V.b.c.j.h.h u.;.[ =  .= /  .R : R R R : ~ | ( , ] N b k i j 8 m h.b.B.C.b.j.b.B.M.b.M.",
"C.B.b.B.M.V.M.b.c.:.,.-.4..XoXo.  : |  .W * : * E  .} = = +.,XT.q g i i a c.b.B.M.c.M.V.V.B.b.V.",
"c.c.M.b.V.M.j.v.V.1.6.7.XX0XqXqX}.U.,  . .|  .| | } , W.$XqXE.-XT.@ p p p j.b.M.B.V.V.V.M.M.V.Z.",
"x.M.N.M.M.M.M.V.C.S 6.0 =XqX!.'.qX9XE.R / ~ & / / , '.qXqXW.Q.4XW X g %.B m.A.Z.M.b.C.M.v.b.B.M.",
"B.C.V.V.V.V.Z.J.J.m.k O  .}.Q.Y.-XqX2Xo.< , : , < U.7XqXqX7X9XqX}.O :.u H k.C.Z.Z.b.M.V.c.b.M.b.",
"V.Z.V.B.C.k.T T J B w + 1X0XqX{.3X3XY.'.9X[.7X9XqXE.-X{.qX&X:XqX%X  q 4 $ L p.c.Z.V.x.M.M.C.C.B.",
"C.B.b.M.M.c 1 l y.t.O.Y.7XqXqX].2X2X'.qXqXW.7X9X9XqXE.E.qX}.%XqX2XL.O.O.t.3 1 G b.v.c.v.M.V.M.V.",
"V.x.B.M.c.5 &.9.eXqXqXqX9X9XwX0XqXqX$X~ $X7XY.9X9XU.E.9XqXqX8XF.3XqXqXqX5X*.@.M V.j.M.C.V.M.c.V.",
"c.x.V.M.V.L =.s t z > R 7X{.: ].qXqX7X| ].+.W.U.`.E.9XqX9X2X7X;X-X< > > 0 #.#.h.Z.Z.Z.Z.Z.V.B.V.",
"V.B.B.C.D.A.A.V.c.s.B + oX9XU.  ,XqX3X-X7X3X9X7X7X7X-XqX'.& oX<X$XO A t m z.N.V.V.Z.Z.M.V.Z.Z.B.",
"Z.c.j.V.M.B.C.V.V.M.K   ..9X0XU.-X$X$X].qX7X].$XqX#X| [.@X`.qXY.{.O :.b p.V.b.M.B.V.b.c.V.M.V.C.",
"V.M.b.M.M.M.M.V.M.B.d.@ 4X0X0XqX7XW.qXqX].+./ ~ qX].&XW 9XqXqXqX*XO 3.n G j.c.c.M.c.b.M.g.j.V.Z.",
"b.b.V.V.Z.Z.B.V.Z.Z.a.; OXE.qX9XqXqX#X].$X].$X} '.$X9X XwXqXE.;X%XO q.n F i.c.c.c.b.v.g.j.j.c.B.",
"c.B.Z.V.V.Z.V.B.V.C.a.q <X-X3XO.-XqX].F.qXqX6X1X2X4X6XqX Xe W.wX*XO q.n J f.b.c.V.Z.M.b.V.Z.C.M.",
"C.C.C.B.M.M.B.B.M.b.a.q 6X'.& [.qX7X:X>X3X>X9X2X2XqXQ 3X7X2X7X0X*XO 3.n p.Z.C.Z.S.Z.C.V.V.V.V.C.",
"M.M.M.b.M.x.v.V.c.c.a.D 6XoX`.qX9XI./ '.I.+.7X$X+.`.X.:X*XqX$X3X%X@ 3.b J C.Z.D.S.V.V.M.b.b.M.V.",
"M.V.V.M.B.M.j.v.V.V.U 2._.8XqX9XE.+.+.oX'.-XW.qX{.+.:X .~ qX'.>XG.w 3.n p.x.B.C.Z.Z.V.B.b.c.c.B.",
"c.b.V.M.B.V.C.A.D.C.d.3.Z ] ].qX}.7X:X&XqX7X[.7X8X0X6X`.#XqXR.) 0 V 3.n p.V.Z.V.M.V.B.x.M.B.b.V.",
"B.V.C.Z.C.Z.J.D.Z.V.a.3.V f 0 N N ; O.W.; > z > : |.) x x x - V C V 3.n p.H.M.k.k.b.B.V.H.C.b.c.",
"Z.J.Z.Z.Z.Z.V.M.M.M.a.3.V r f y g 7 ] F.7 t :.Z O (.e B r r t f r V 3.n p.b.j.c.M.c.c.V.B.x.M.M.",
"V.C.Z.V.B.M.c.M.M.c.U 3.V V g y f 7 ) y.7 V 4.C @ ~.t -.>.>.>.>.C V 3.b J M.M.j.j.M.m.M.x.c.M.C.",
"M.V.C.V.M.b.M.M.V.B.U e.V r t n H M -.4.4 t 3.g 1 9.d 8 f f f f r V e.b p.Z.V.M.S.Z.V.v.b.V.V.B.",
"V.Z.V.M.M.V.B.V.V.M.f.n M F G J G v #.#.6 $ b @ 6 $.#.D G G G G G n b G h.b.M.Z.V.Z.Z.V.V.Z.Z.V.",
"Z.B.M.B.C.V.C.V.b.B.V.k.j.j.c.k.$ 1 2 2 1 o U . 2 2 2 o c c.c.c.f.j.k.k.M.M.V.V.V.V.B.B.C.C.V.V.",
"C.B.b.B.b.B.b.c.j.c.M.c.M.V.b.B.C.v.j.b.B.M.b.M.C.B.b.B.b.B.b.c.j.c.M.c.M.V.b.B.C.b.j.b.B.M.b.M."
};
