/* XPM */
static char *_fc5a1617c554b8b85846cdd90e3c17fxaKh3wV55C3SNtdr[] = {
/* columns rows colors chars-per-pixel */
"48 48 43 1 ",
"  c #CECECE",
". c gray81",
"X c #D0D0D0",
"o c #D2D2D2",
"O c LightGray",
"+ c gray83",
"@ c #D5D5D5",
"# c gray84",
"$ c #D7D7D7",
"% c gray85",
"& c #DADADA",
"* c gray86",
"= c gainsboro",
"- c #DDDDDD",
"; c gray87",
": c gray88",
"> c #E1E1E1",
", c #E2E2E2",
"< c gray89",
"1 c #E4E4E4",
"2 c gray90",
"3 c #E7E7E7",
"4 c gray91",
"5 c #E9E9E9",
"6 c #EAEAEA",
"7 c gray92",
"8 c #ECECEC",
"9 c #EEEEEE",
"0 c #EFEFEF",
"q c gray94",
"w c #F1F1F1",
"e c gray95",
"r c #F3F3F3",
"t c gray96",
"y c #F6F6F6",
"u c gray97",
"i c #F8F8F8",
"p c #F9F9F9",
"a c gray98",
"s c #FCFBFC",
"d c #FDFDFD",
"f c #FEFEFE",
"g c white",
/* pixels */
"yyiisddddiyw888wwwwwiiiiyyww886662>>>>>>6ydyyyyy",
"yyyiiisdddsy8888wwwwyyyyiiyywwwww86>>>>>2wiwyyyy",
"yiisdddddsyw88wwwwwwwwwwyywww888862>;;;;>wywyyyy",
"iiyw8868862228wwwww8ww886622>>>>>;####%%>6w6yiiy",
"idi8%%%###;>>6ydww868886>>>>#######OO##%2626wiiw",
"sdd8%%%##%>>26ydww866888>>>>##########%;2222wiiw",
"ddd8%%%%;>6688wwww666888>>>>#########%>222228yy8",
"ddd8%%%%>268wwwww8666886>>>>########%;2262226ww6",
"idd8%%%;>68www88886666662>>>%%%%%%%%;>2622666666",
"ydy6%%>226www88888866622>>;;;%%%%%;;>22222666666",
"wyw>%>2668www888886622>>;;%%%%;;;>>>>66222666666",
"6w8>>266888888888866>>;;%%%%##%%>>2>262222226666",
"66622666888688886662;;;%######;>22228622>>2>8888",
"666666666688666666>>;;%######%>>2226662>>>>;;;;;",
"66666666668866666>>>;%#####%%>266668862>;%%%##OO",
"66666666668866662>>;;%###%%%;>668888862>%%%#####",
"w8866666888666662>>>;;%%%;;;>266888662>;%%###OOO",
"iyww866688666222662>>>>;>>>>266666622>;%#####OOO",
"iiyy8888866666226662>>>>>>>>6666662>>;%###OO####",
"yyww88886666666626622>>>>222666662>;;%##OOOO####",
"yyww8886666666622222>>>>2222662>2>;%%%###O######",
"yyww86866666666622>>>>>;6226662>>>;%%%%%#O######",
"yyww6888666666622>>>>>;>666666>>>>;%%%%%%O######",
"yyww888866666662>>>>>>;>222266>>>>;%%%%%%###%###",
"8888666666622262>>>>222>2222>>>>>>;%%%%%%%%%%;>>",
"888866662622222>>>>>226222>>>>>;;;;%%%%%%%%%%;>>",
"8888666666662>>>>>>>222222>>>>;;;;;;%%%%%;;;;;>>",
"668866666666>>>>>>>222222>>>>>;;;;;;;%%%%;;;;;>>",
"668866666622;;;;>>222222>>>>>>>>>>;>>;#O;;66;;;;",
"66662222622>;;>>>266222>>>>>>>>>>>;>>;;%;>66;;;;",
"6666222222>>;>222666622>>>>>>>>>>>>>>>2>>>66;;;;",
"666666662>>;;>266886222>>>>>>>>>>>>;>>68;>66;;;;",
"66666666>>;>>>2688882>>>>>>>>;;;>>>>>226626w;;;;",
"22222222>;;>26666688>>>>>>>>;;;;>>>>26686226;;;;",
">>>>>>>>>;>666666666;%%%%%;;;;;;>>>6668862;>>;%%",
";;>>;;;;>>6666666222%%%%%%%%;;;;;>28888662;;;;%%",
";;>>;;;>>266688862>;%%%%%%%%>;;%#%28886622>>;;%%",
";;>>;;>>666686662>;%########>;;%%>268662>>;;;;;%",
";;>>;>>6666686>;>;%#OOOOOOOO%;;>226666>>>;%%;;;%",
";;>>;>26666682;#;%#OOO  OOO##%>>86666>>>;;%%%>;;",
";;;;>266666662%%;%#OOO  OOO#%;>226622>;;;;%%%>>;",
"O###226666666>%%%#OOOOOOOO#%;>>>>22>>>;;%%%%;>>>",
"   O266666666>%%%#OOOOOO###;;>>>>>>>>;;%####>>66",
"#O#;666666666>%%#OOOOOOO##%>;>>;;;;;;;%%####2266",
"#;%#O%;;>>>>>;#O#OOOO###>>;>;>;;;;;;;%%%;;>>622>",
">2>; O%;;;;;;%O #OOO####>>>;;;;;;;;;%%%%6666w886",
">2>;O O%%%%%%#  OOOO####>>>;;;;%%#%%%%%%6666w886",
"#;%#OO O######  OOOO####>>>;;;;%####%%%;;;>>622>"
};
