/* XPM */
static char *cdf596bafdfb451ed1b0bb56f288db79QuExpxoteK4YCvef[] = {
/* columns rows colors chars-per-pixel */
"48 48 229 2 ",
"   c #1B3C5F",
".  c #2F5073",
"X  c #3E5F82",
"o  c #38597C",
"O  c #3C5D80",
"+  c #436487",
"@  c #395A7D",
"#  c #3B5C7F",
"$  c #3D5E81",
"%  c #2E4F72",
"&  c #325376",
"*  c #16375A",
"=  c #18395C",
"-  c #416285",
";  c #3A5B7E",
":  c #426386",
">  c #456689",
",  c #355679",
"<  c #0F3053",
"1  c #2D4E71",
"2  c #46678A",
"3  c #37587B",
"4  c #103154",
"5  c #2B4C6F",
"6  c #7697BA",
"7  c #89AACD",
"8  c #799ABD",
"9  c #6D8EB1",
"0  c #6687AA",
"q  c #6485A8",
"w  c #6889AC",
"e  c #5C7DA0",
"r  c #6182A5",
"t  c #6384A7",
"y  c #557699",
"u  c #48698C",
"i  c #7FA0C3",
"p  c #87A8CB",
"a  c #7899BC",
"s  c #698AAD",
"d  c #6283A6",
"f  c #5E7FA2",
"g  c #6586A9",
"h  c #527396",
"j  c #82A3C6",
"k  c #6B8CAF",
"l  c #6081A4",
"z  c #5B7C9F",
"x  c #5D7EA1",
"c  c #4C6D90",
"v  c #244568",
"b  c #80A1C4",
"n  c #7091B4",
"m  c #6E8FB2",
"M  c #7192B5",
"N  c #547598",
"B  c #4D6E91",
"V  c #47688B",
"C  c #406184",
"Z  c #345578",
"A  c #7E9FC2",
"S  c #56779A",
"D  c #4F7093",
"F  c #446588",
"G  c #4B6C8F",
"H  c #4A6B8E",
"J  c #36577A",
"K  c #5A7B9E",
"L  c #94B5D8",
"P  c #7293B6",
"I  c #57789B",
"U  c #496A8D",
"Y  c #335477",
"T  c #81A2C5",
"R  c #5F80A3",
"E  c #7394B7",
"W  c #4E6F92",
"Q  c #3F6083",
"!  c #6788AB",
"~  c #1F4063",
"^  c #507194",
"/  c #517295",
"(  c #305174",
")  c #597A9D",
"_  c #224366",
"`  c #28496C",
"'  c #1D3E61",
"]  c #17385B",
"[  c #1C3D60",
"{  c #27486B",
"}  c #214265",
"|  c #254669",
" . c #8CADD0",
".. c #7C9DC0",
"X. c #7798BB",
"o. c #8DAED1",
"O. c #83A4C7",
"+. c #6A8BAE",
"@. c #26476A",
"#. c #86A7CA",
"$. c #7A9BBE",
"%. c #88A9CC",
"&. c #98B9DC",
"*. c #2C4D70",
"=. c #2A4B6E",
"-. c #315275",
";. c #234467",
":. c #204164",
">. c #153659",
",. c #7495B8",
"<. c #7B9CBF",
"1. c #85A6C9",
"2. c #7596B9",
"3. c #8EAFD2",
"4. c #537497",
"5. c #92B3D6",
"6. c #294A6D",
"7. c #143558",
"8. c #7D9EC1",
"9. c #58799C",
"0. c #6F90B3",
"q. c #6C8DB0",
"w. c #193A5D",
"e. c #113255",
"r. c #133457",
"t. c #84A5C8",
"y. c #95B6D9",
"u. c #1E3F62",
"i. c #90B1D4",
"p. c #3E6083",
"a. c #496B8E",
"s. c #345679",
"d. c #83A5C8",
"f. c #7092B5",
"g. c #6183A6",
"h. c #4E6C90",
"j. c #466488",
"k. c #436185",
"l. c #486A8D",
"z. c #46688B",
"x. c #2E5073",
"c. c #6E90B3",
"v. c #6082A5",
"b. c #4C6E91",
"n. c #456387",
"m. c #476589",
"M. c #49678B",
"N. c #4B698D",
"B. c #446689",
"V. c #3A5C7F",
"C. c #27496C",
"Z. c #57799C",
"A. c #597B9E",
"S. c #4A6C8F",
"D. c #516F93",
"F. c #426084",
"G. c #345276",
"H. c #2F5174",
"J. c #1D3F62",
"K. c #426487",
"L. c #3C5E81",
"P. c #39577B",
"I. c #375579",
"U. c #325074",
"Y. c #234165",
"T. c #3D5F82",
"R. c #36587B",
"E. c #325477",
"W. c #3B5D80",
"Q. c #395B7E",
"!. c #3F5D81",
"~. c #405E82",
"^. c #415F83",
"/. c #3C5A7E",
"(. c #6385A8",
"). c #698BAE",
"_. c #6789AC",
"`. c #5C7EA1",
"'. c #5E80A3",
"]. c #7997BB",
"[. c #6D8BAF",
"{. c #6785A9",
"}. c #6A88AC",
"|. c #93B4D7",
" X c #436588",
".X c #3F6184",
"XX c #4F6D91",
"oX c #4C6A8E",
"OX c #4D6F92",
"+X c #4A688C",
"@X c #506E92",
"#X c #4B6D90",
"$X c #507295",
"%X c #537195",
"&X c #416386",
"*X c #4E7093",
"=X c #123356",
"-X c #446286",
";X c #1A3B5E",
":X c #133558",
">X c #1E4063",
",X c #385A7D",
"<X c #37597C",
"1X c #3D5B7F",
"2X c #224064",
"3X c #8AABCE",
"4X c #5B7DA0",
"5X c #204265",
"6X c #6486A9",
"7X c #85A7CA",
"8X c #7EA0C3",
"9X c #5C7A9E",
"0X c #6381A5",
"qX c #58769A",
"wX c #294B6E",
"eX c #89ABCE",
"rX c #547296",
"tX c #244669",
"yX c #7597BA",
"uX c #587A9D",
"iX c #406285",
"pX c #4D6B8F",
"aX c #355377",
"sX c #35577A",
"dX c #305275",
"fX c #224467",
"gX c #3A587C",
"hX c #314F73",
"jX c #29476B",
/* pixels */
"  . X o O + @ # $ % + @ & * = - # ; : > $ o O $ , o . < 1 - - $ O 2 O 3 , 3 O % 4 5 & # + X X @ ",
": 6 7 8 9 0 q w e r t y u 5 r i p a s d f e e e g h , o 6 j a k l t z r 0 d x c v s p b n t s m ",
"z p M N B > > ; 3 V C V B Z p A S D F + G H > u F F J K L P I U F u C > > C u > Y 8 T R c - - C ",
"y E V o U G S U c h U W W 5 P N + u V U W V Q > H D Y H n - - G 2 c F > > > W U & 0 x : 2 c D c ",
"2 ! W G B # V F 2 + H + J ~ R f G G H c D c G ^ 2 H % F 9 G c U U h G B h / U ( 5 ) K c U + 2 u ",
"_ ; ; 2 u Q G u u Q + @ ` ' o $ : o O : Q - > Q 3 ( ] [ $ , 2 + O V : C # , , { * & # - F + G u ",
"C @ 3 o 3 # Y ] ` , & @ , # O Y - Y X X } _ J Z , & X C V @ O & o ( | & @ Z # O Q O , 3 , 3 3   ",
"w z q f I q ^ | r  .....q 0 ! x f h g z % O X.o.O.0 +.f e ) l z s X @.S #.p $.w 0 r l t K R l 3 ",
"F : U F : c 2 @ %.k x y u > C 2 U - F c Y z &.R ^ u + X Q G u G F W J O.n t c D X V 2 + H c F Q ",
"B F 2 u H G Q Y E R c - : U u U > 2 G ^ Z H X.u c V u G W H Q Q G u . n r W $ : G B U : : 2 U u ",
"G 2 V / N u J ` f K B : c D c V B D H V ( ; l c U u u H h H B I F ; ` ) z c H D U u W h W G : & ",
"V H X 3 Y *.=.@.Y X - C c X : : # $ -.1 ;.@.- : $ 2 + $ V J J J . { ' J + $ + - H C X O J 3 & :.",
">.X + X $ @ X , & @ X # 3 * 1 O Q : @ ; ; Y 3 # $ $ ;.* # ; : J X $ , -.; @ ; 5 ] =.$ Q O Q C o ",
"; a i a ,.+.+.z q x l K B 1 0 ..<.X.k ! s d e r f S Z , ..b 1.9 g +.! z x d R ^ _ f 1.T 2.k g g ",
"s 3.9 / u $ U F > @ > V : Y A #.z 4.H : F F - V 2 H O / 5.k K O X : F + C U F F Q <.O.e c > Q U ",
"H k c F c - G 2 D - D D + -.P x - C V V H c > V u G O H $.+ u H G u U ^ 2 H - B 5 w q Q u / > H ",
"c z 4.> c D u V U W G V ; ` x x B c W 2 V u > 4.H - Y Q K ) H B W F B > G / - $ 3 h I c W c > V ",
"_ @ : O $ F V H $ Q ( Y =.] 3 3 Q 3 @ V B U F O % 6.:.=.C C @ C O - W > > , . @.7.( - X $ : 2 G ",
"X X Q # o @ 1 ] ;.Q 3 - $ o Q o - X @ O :.] o J Q # Z J X ; J Q F -.* :.; @ V o O $ Q O ; $ Z :.",
"w z ) z K x B 5 R  .8.P q +.r S 9.l x ) . o O.1.6 0.! q d e K f x H _ g #.i $.l 9 f K z K d 9.; ",
"+ C U B 2 G u , a #.d D : c 2 u : u 2 c o 4.3.q.y c V u u u u 2 F u ` %.A l c V > : H H - U ^ F ",
"c u U U u u - -.6 f - F U G 2 ^ H U U U ; N E F U C C > > H c > H B | 6 ) : O W c H G U F V V Q ",
"B G : : B G # % d H U B 4.c u F B 2 B + % F r / ^ u c / G D / 2 + C | x K W c W W B 2 2 ^ ^ : 3 ",
"X G V X O % :.v 3 J B O O + D Q V Y ; 1 ] @.O C + O > U X C + 3 -.5 [ -.- # V C $ H 2 Q - , | | ",
"w.J @ # Q O X o J . 2 o Y ' ~ : o J X : @ , o @ J ; ( e.% + + Q Q F , ( Y @ Q ( r.% Z O + X $ 3 ",
": 8 p $.m t 0 0 r l d z B ` x j p a s r f e e e 0 4.J @ X.t.8 q.z g r q d z x 4.v s p b M q +.0.",
"z t.,.4.c V : # X V X H D . j b 9./ 2 > B c V H F F J K y.P I U 2 U - V u : u + Y 8 T l B + + - ",
"S q.c , V / / c U y G u U . X.4.+ U V U W V C 2 H D Y H n - - G G c C + U G D F , s R + 2 c W H ",
"V l 4.U G - : V C F G X & v g f G G H c D c H D 2 H % F 9 G c U F h W W W G U J % z e B U + > 2 ",
"_ 3 O > V : U U G O Q O *.  J : + @ O + C : > C 3 ( ] [ $ , 2 F o > C X @ Z J 5 * & # : > F B H ",
"Q # Z @ o o , * *.Y ( X ; @ @ 3 : Z Q Q _ ;.3 , J Z Q - u # $ Y O % u.% $ ; $ 3 Q O , o J o @ ' ",
"! d f l ) f y } f i.T <.q 9 9 z f h g z % O X.o.1.! q.l f z r x g Q *.e %.1.a s s q d q K R R J ",
": C V : C H F 3 #.+.R c W - - u U : F c & z &.R S U + : C > - H p.a.s.d.f.g.U H C 2 > > h.h.j.k.",
"W > V U G c C Z P r W $ V U u B 2 V G D Z U X.U > + 2 H B c + F l.z.x.c.v.b.O C c G V + n.m.M.N.",
"H > 2 ^ 4.V , { x R G : B 4.H G W ^ H 2 . @ l c U D W u c U G W B.V.C.Z.A.S.H / U 2 c h D.N.F.G.",
"> U O , & =.6.v ( + # - u : O F O $ -.*._ | - : 3 2 F # > @ # ; H.C.J.s.K.L.F : H X O O P.I.U.Y.",
"* C F C X # Q 3 . X o O Y w.{ X C : @ @ @ & 3 O # @ } w.Q # > X T.T.R.E.W.Q.# 5 = 6.O - !.~.^./.",
"# 8 b 8 2.k k e g t R K B ( d i <.X.k 0 w d e d ! 9., O b $.b m (.)._.`.'.(.l ^ v f 1.O.].[.{.}.",
"w o.q.^ V O u + 2 $ V + 2 -.8.%.e 4.H : + F - u X + o ^ |.9 R F p.K. XK..Xl.> > C $.j x XXj.~.oX",
"c 9 W 2 W + B u D : 4.2 U 5 n e : C V 2 U c > u F W Q V ,.+ V F OXl.z.b.K.l.: ^ 5 0 d Q +X@Xn.oX",
"/ e 4.V B B 2 u G c c U & -.y l U W ^ + + H 2 D / @ & 2 9.y W W OX X#XK.a.$X+ Q Y I y 2 %Xh.^.oX",
";.J Q $ Q + V B C O Y Y | ' -.@ Q ; O u B G V $ % ;.~ =.o $ O # T.&X*XB.B.R.& =.=XJ C ; -Xj.-X@X",
"X O $ O @ @ % ;X{ O $ X X @ X ; : $ o X _ * 3 o C X ; J @ Q Q O  XH.:X>X,X<Xu @ @ Q $ o 1X!.U.2X",
"+.e z x z x B =.t 3Xt.m s w q I z f K z & J T %.E m 0 R e z K ) 4Xl.5X6X7X8X8 l k f ) ) 9X0XqX/.",
"F : G W V G V & $.1.g U 2 2 U V > 2 > ^ # h o.n S G > u U > > U B.a.wXeX8Xv.B u 2 : G c k.N.rXj.",
"V 2 u u V H - . 2.R $ C H + u c U 2 2 U @ / n + W - X V B U u c l.#XtXyXuXiX; G c > H H F.m.N.1X",
"U G F + W D X 1 d / + / 4.U G + G 2 B - 5 F r D H V 2 u H H V > &Xp.tX`.A.b.H G D V > u pXXXm.aX",
"C h D : C Z v ;.; > U u X 2 S + G O : -.;X. > + + G c 2 > H V X sXdXfX<Xz..XG + > U c U k.gXhXjX"
};
